{"glyphs":{"0":{"ha":778,"x_min":42,"x_max":729,"o":"m 622 -375 q 597 -478 622 -453 q 494 -503 571 -503 l 321 -503 q 219 -478 244 -503 q 194 -375 194 -453 l 194 -340 q 216 -241 194 -267 q 300 -214 238 -215 l 300 -182 l 400 -82 l 515 -82 l 515 -214 q 600 -241 578 -215 q 622 -340 622 -267 l 622 -375 m 397 -178 l 397 -117 l 335 -178 l 397 -178 m 493 -381 l 493 -104 l 419 -104 l 419 -200 l 322 -200 l 322 -381 l 493 -381 m 600 -375 l 600 -340 q 583 -257 600 -276 q 515 -236 567 -237 l 515 -403 l 300 -403 l 300 -236 q 232 -257 247 -237 q 217 -340 217 -276 l 217 -375 q 235 -462 217 -443 q 321 -481 254 -481 l 494 -481 q 581 -461 561 -481 q 600 -375 600 -442 m 729 701 l 729 343 q 664 108 729 200 q 394 -18 574 -18 q 107 113 206 -18 q 42 343 42 201 l 42 692 q 135 949 42 854 q 386 1044 228 1044 q 635 951 542 1044 q 729 701 729 858 m 226 692 l 226 349 q 268 202 226 253 q 389 151 310 151 q 511 208 472 151 q 544 344 544 253 l 544 692 q 503 828 544 781 q 388 875 463 875 q 269 826 313 875 q 226 692 226 776 z "},"1":{"ha":778,"x_min":213,"x_max":526,"o":"m 342 0 l 342 853 l 213 853 l 213 1026 l 526 1026 l 526 0 l 342 0 z "},"2":{"ha":778,"x_min":47,"x_max":722,"o":"m 54 0 l 54 163 l 419 508 q 538 714 538 621 q 495 829 538 783 q 389 875 453 875 q 273 819 317 875 q 229 672 229 764 l 47 672 q 101 893 47 808 q 221 1004 144 964 q 388 1044 297 1044 q 626 949 531 1044 q 722 711 722 853 q 661 514 722 603 q 524 364 622 453 l 314 174 l 718 174 l 718 0 l 54 0 z "},"3":{"ha":778,"x_min":21,"x_max":719,"o":"m 303 494 l 303 672 q 401 686 372 674 q 461 778 461 711 q 436 848 461 821 q 371 875 411 875 q 285 782 297 875 l 97 782 q 117 883 103 844 q 164 957 132 922 q 369 1044 244 1044 q 567 965 489 1044 q 646 768 646 886 q 560 592 646 654 q 719 326 719 521 q 622 80 719 178 q 375 -18 524 -18 q 128 74 228 -18 q 21 311 29 167 l 207 311 q 262 195 217 239 q 374 151 307 151 q 489 200 443 151 q 535 322 535 249 q 480 447 535 400 q 333 494 425 494 l 303 494 z "},"4":{"ha":778,"x_min":0,"x_max":736,"o":"m 0 304 l 472 1026 l 628 1026 l 628 319 l 736 319 l 736 154 l 628 154 l 628 0 l 443 0 l 443 154 l 0 154 l 0 304 m 443 319 l 443 715 l 188 319 l 443 319 z "},"5":{"ha":778,"x_min":17,"x_max":722,"o":"m 64 490 l 160 1026 l 624 1026 l 624 853 l 299 853 l 265 664 q 397 693 335 693 q 630 594 538 693 q 722 343 722 494 q 622 85 722 189 q 374 -18 522 -18 q 92 114 200 -18 q 17 307 22 199 l 201 307 q 258 192 215 232 q 368 151 301 151 q 490 204 443 151 q 538 340 538 257 q 490 471 538 418 q 371 524 442 524 q 228 446 290 524 l 64 490 z "},"6":{"ha":778,"x_min":29,"x_max":740,"o":"m 399 1026 l 619 1026 l 374 661 q 457 675 415 675 q 660 583 579 675 q 740 350 740 490 q 641 86 740 190 q 389 -18 542 -18 q 131 83 233 -18 q 29 336 29 183 q 52 475 29 410 q 131 624 75 540 l 399 1026 m 386 514 q 262 464 310 514 q 214 332 214 414 q 263 202 214 253 q 389 151 313 151 q 509 201 463 151 q 556 332 556 251 q 508 463 556 411 q 386 514 460 514 z "},"7":{"ha":778,"x_min":90,"x_max":694,"o":"m 111 0 l 500 853 l 90 853 l 90 1026 l 694 1026 l 694 853 l 319 0 l 111 0 z "},"8":{"ha":778,"x_min":43,"x_max":726,"o":"m 190 571 q 124 664 143 622 q 106 763 106 706 q 188 963 106 881 q 388 1044 269 1044 q 588 965 508 1044 q 668 765 668 885 q 582 571 668 640 q 664 508 639 536 q 726 322 726 435 q 629 79 726 176 q 386 -18 532 -18 q 142 80 242 -18 q 43 321 43 178 q 101 500 43 429 q 190 571 129 536 m 389 875 q 313 843 343 875 q 282 763 282 811 q 313 684 282 717 q 388 651 344 651 q 461 684 431 651 q 492 764 492 717 q 462 843 492 811 q 389 875 432 875 m 388 474 q 274 428 321 474 q 228 314 228 382 q 274 198 228 244 q 388 151 319 151 q 497 198 453 151 q 542 313 542 244 q 497 426 542 379 q 388 474 451 474 z "},"9":{"ha":778,"x_min":31,"x_max":9782,"o":"m 9637 -2149 q 9630 -2141 9637 -2149 q 9600 -2133 9622 -2133 q 9563 -2149 9578 -2133 q 9549 -2185 9549 -2164 q 9563 -2222 9549 -2207 q 9600 -2236 9578 -2236 q 9637 -2222 9622 -2236 q 9651 -2185 9651 -2207 q 9637 -2149 9651 -2164 m 9600 -2099 q 9634 -2105 9618 -2099 q 9661 -2124 9650 -2111 q 9680 -2151 9674 -2136 q 9686 -2185 9686 -2167 q 9661 -2246 9686 -2221 q 9599 -2271 9636 -2271 q 9538 -2247 9563 -2271 q 9514 -2185 9514 -2222 q 9539 -2124 9514 -2149 q 9600 -2099 9564 -2099 m 9654 -2053 q 9600 -2043 9629 -2043 q 9546 -2053 9571 -2043 q 9500 -2085 9521 -2064 q 9469 -2131 9479 -2106 q 9458 -2185 9458 -2156 q 9469 -2239 9458 -2214 q 9500 -2285 9479 -2264 q 9546 -2316 9521 -2306 q 9600 -2326 9571 -2326 q 9654 -2316 9629 -2326 q 9700 -2285 9679 -2306 q 9731 -2239 9721 -2264 q 9742 -2185 9742 -2214 q 9731 -2131 9742 -2156 q 9700 -2085 9721 -2106 q 9654 -2053 9679 -2064 m 9531 -2016 q 9547 -2009 9531 -2016 q 9600 -2003 9563 -2003 q 9670 -2016 9638 -2003 q 9729 -2056 9703 -2029 q 9769 -2115 9756 -2083 q 9782 -2185 9782 -2147 q 9769 -2254 9782 -2222 q 9729 -2313 9756 -2286 q 9670 -2353 9703 -2340 q 9600 -2367 9638 -2367 q 9531 -2353 9563 -2367 q 9472 -2313 9499 -2340 q 9431 -2254 9444 -2286 q 9418 -2185 9418 -2222 q 9431 -2115 9418 -2147 q 9472 -2056 9444 -2083 q 9531 -2016 9499 -2029 m 4110 1547 q 4102 1555 4110 1547 q 4073 1563 4094 1563 q 4037 1548 4051 1563 q 4022 1511 4022 1533 q 4037 1474 4022 1489 q 4073 1460 4051 1460 q 4110 1474 4094 1460 q 4125 1510 4125 1489 q 4110 1547 4125 1532 m 4074 1597 q 4107 1591 4092 1597 q 4135 1572 4122 1585 q 4153 1544 4147 1560 q 4160 1511 4160 1529 q 4135 1450 4160 1475 q 4073 1425 4110 1425 q 4012 1450 4036 1425 q 3988 1511 3988 1475 q 4013 1572 3988 1547 q 4074 1597 4038 1597 m 4128 1643 q 4074 1653 4103 1653 q 4019 1643 4044 1653 q 3974 1611 3994 1632 q 3942 1565 3953 1590 q 3932 1511 3932 1540 q 3942 1457 3932 1482 q 3974 1411 3953 1432 q 4019 1380 3994 1390 q 4074 1369 4044 1369 q 4128 1380 4103 1369 q 4174 1411 4153 1390 q 4205 1457 4194 1432 q 4215 1511 4215 1482 q 4205 1565 4215 1540 q 4174 1611 4194 1590 q 4128 1643 4153 1632 m 4004 1681 q 4020 1688 4004 1681 q 4074 1694 4036 1694 q 4143 1681 4111 1694 q 4202 1640 4175 1667 q 4242 1581 4229 1614 q 4256 1511 4256 1549 q 4242 1442 4256 1474 q 4202 1383 4229 1410 q 4143 1342 4175 1356 q 4074 1329 4111 1329 q 4004 1342 4036 1329 q 3945 1383 3972 1356 q 3905 1442 3918 1410 q 3892 1511 3892 1474 q 3905 1581 3892 1549 q 3945 1640 3918 1614 q 4004 1681 3972 1667 m 2072 -208 l 1650 -208 l 1650 0 l 2072 0 l 2072 -208 m 1650 -208 l 1228 -208 l 1228 -139 l 1650 -139 l 1650 -208 m 369 0 l 149 0 l 396 365 q 313 349 351 349 q 112 443 193 349 q 31 676 31 538 q 129 941 31 838 q 379 1044 228 1044 q 637 943 535 1044 q 739 689 739 842 q 638 403 739 554 l 369 0 m 379 875 q 261 824 307 875 q 215 694 215 774 q 263 564 215 615 q 383 513 310 513 q 507 563 460 513 q 554 694 554 614 q 505 824 554 774 q 379 875 456 875 z "}," ":{"ha":389,"x_min":639,"x_max":3976,"o":"m 740 1417 q 708 1361 733 1361 l 706 1361 q 690 1374 690 1364 q 740 1417 690 1389 m 853 1486 q 819 1429 844 1429 l 818 1429 q 803 1442 803 1432 q 853 1486 803 1457 m 950 1518 q 918 1463 943 1463 l 917 1463 q 900 1474 900 1464 l 900 1475 q 950 1518 900 1489 m 967 1439 l 968 1439 q 935 1383 960 1383 l 933 1383 q 918 1394 918 1386 l 918 1396 q 967 1439 918 1411 m 1065 1496 q 1033 1440 1058 1440 l 1031 1440 q 1015 1453 1015 1442 q 1065 1496 1015 1468 m 1094 1439 l 1096 1439 q 1063 1383 1088 1383 l 1061 1383 q 1046 1394 1046 1385 l 1046 1396 q 1094 1439 1046 1411 m 1069 1347 l 1071 1347 q 1038 1290 1063 1290 l 1036 1290 q 1021 1303 1021 1293 q 1069 1347 1021 1318 m 858 1361 l 875 1361 l 875 1358 l 875 1329 l 876 1329 q 1072 1211 996 1329 q 1083 1188 1083 1190 l 1083 1186 q 1072 1200 1076 1189 q 1047 1206 1063 1206 l 1035 1206 q 964 1182 994 1206 l 964 1169 q 961 1165 964 1167 l 953 1181 q 875 1196 911 1196 l 875 1031 q 846 1000 875 1006 l 838 1000 q 803 1024 814 1000 l 803 1031 l 803 1036 l 804 1038 l 817 1038 l 817 1036 l 817 1033 q 838 1008 819 1008 l 840 1008 q 860 1022 854 1008 l 861 1033 l 861 1196 q 781 1181 804 1196 q 772 1168 776 1168 l 771 1169 l 771 1172 l 772 1185 q 700 1206 753 1200 l 682 1206 q 646 1192 656 1206 l 640 1188 l 639 1188 q 707 1275 656 1222 q 857 1329 772 1329 l 857 1358 l 858 1361 m 3831 -636 q 3824 -628 3831 -636 q 3794 -621 3817 -621 q 3758 -635 3772 -621 q 3743 -672 3743 -650 q 3758 -709 3743 -694 q 3794 -724 3772 -724 q 3831 -709 3817 -724 q 3846 -673 3846 -694 q 3831 -636 3846 -651 m 3794 -586 q 3828 -592 3813 -586 q 3856 -611 3844 -599 q 3874 -639 3868 -624 q 3881 -672 3881 -654 q 3856 -733 3881 -708 q 3794 -758 3831 -758 q 3733 -733 3757 -758 q 3708 -672 3708 -708 q 3733 -611 3708 -636 q 3794 -586 3758 -586 m 3849 -540 q 3794 -531 3824 -531 q 3740 -540 3765 -531 q 3694 -572 3715 -551 q 3663 -618 3674 -593 q 3653 -672 3653 -643 q 3663 -726 3653 -701 q 3694 -772 3674 -751 q 3740 -803 3715 -793 q 3794 -814 3765 -814 q 3849 -803 3824 -814 q 3894 -772 3874 -793 q 3926 -726 3915 -751 q 3936 -672 3936 -701 q 3926 -618 3936 -643 q 3894 -572 3915 -593 q 3849 -540 3874 -551 m 3725 -503 q 3741 -496 3725 -503 q 3794 -489 3757 -489 q 3865 -503 3832 -489 q 3924 -543 3897 -517 q 3963 -602 3950 -569 q 3976 -672 3976 -635 q 3963 -742 3976 -710 q 3924 -801 3950 -774 q 3865 -841 3897 -828 q 3794 -854 3832 -854 q 3725 -841 3757 -854 q 3666 -801 3693 -828 q 3626 -742 3639 -774 q 3613 -672 3613 -710 q 3626 -602 3613 -635 q 3666 -543 3639 -569 q 3725 -503 3693 -517 z "},"!":{"ha":389,"x_min":100,"x_max":285,"o":"m 100 261 l 100 1026 l 285 1026 l 285 261 l 100 261 m 100 0 l 100 178 l 285 178 l 285 0 l 100 0 z "},"\"":{"ha":500,"x_min":103,"x_max":393,"o":"m 393 713 l 288 713 l 288 1026 l 393 1026 l 393 713 m 208 713 l 103 713 l 103 1026 l 208 1026 l 208 713 z "},"#":{"ha":778,"x_min":47,"x_max":731,"o":"m 276 1026 l 401 1026 l 361 724 l 482 724 l 522 1026 l 647 1026 l 607 724 l 731 724 l 731 586 l 588 586 l 571 463 l 694 463 l 694 324 l 553 324 l 508 0 l 383 0 l 428 324 l 307 324 l 264 0 l 138 0 l 182 324 l 47 324 l 47 463 l 200 463 l 217 586 l 83 586 l 83 724 l 236 724 l 276 1026 m 343 586 l 325 463 l 446 463 l 463 586 l 343 586 z "},"$":{"ha":778,"x_min":82,"x_max":686,"o":"m 82 346 l 268 346 q 303 259 271 292 q 385 226 335 226 q 468 260 435 226 q 501 342 501 293 q 447 439 501 404 q 301 501 422 456 q 122 751 122 567 q 200 951 122 874 q 306 1004 239 989 l 306 1189 l 482 1189 l 482 1004 q 602 922 553 990 q 654 765 651 854 l 479 765 q 389 851 463 851 q 330 826 353 851 q 307 763 307 801 q 347 679 307 708 q 465 624 374 658 q 610 551 567 589 q 686 349 686 483 q 633 166 686 242 q 482 64 579 90 l 482 -119 l 306 -119 l 306 64 q 186 122 233 85 q 110 216 138 161 q 82 328 82 271 l 82 346 z "},"%":{"ha":1194,"x_min":29,"x_max":1160,"o":"m 733 1026 l 876 1026 l 451 0 l 310 0 l 733 1026 m 910 483 q 1085 410 1011 483 q 1160 233 1160 336 q 1086 56 1160 129 q 908 -18 1013 -18 q 731 56 804 -18 q 657 232 657 129 q 731 410 657 338 q 910 483 804 483 m 981 306 q 965 321 981 306 q 908 336 950 336 q 837 306 867 336 q 807 233 807 276 q 837 160 807 190 q 908 131 867 131 q 981 161 950 131 q 1011 233 1011 192 q 981 306 1011 275 m 282 1044 q 458 971 383 1044 q 532 794 532 897 q 458 617 532 690 q 281 543 385 543 q 103 617 176 543 q 29 793 29 690 q 103 972 29 899 q 282 1044 176 1044 m 353 867 q 338 882 353 867 q 281 897 322 897 q 209 867 239 897 q 179 794 179 838 q 209 722 179 751 q 281 692 239 692 q 353 722 322 692 q 383 794 383 753 q 353 867 383 836 z "},"&":{"ha":944,"x_min":49,"x_max":922,"o":"m 710 601 l 917 601 l 739 297 l 922 101 l 790 -18 l 644 136 q 522 15 579 49 q 383 -18 465 -18 q 146 77 243 -18 q 49 310 49 172 q 94 472 49 403 q 240 601 140 542 q 172 697 190 658 q 154 790 154 736 q 229 971 154 897 q 414 1044 304 1044 q 602 972 526 1044 q 678 792 678 900 q 615 617 678 688 q 517 540 588 586 l 610 436 l 710 601 m 401 668 q 481 724 460 700 q 501 786 501 747 q 478 847 501 824 q 417 871 454 871 q 356 847 381 871 q 331 788 331 822 q 346 733 331 760 q 401 668 361 707 m 517 275 l 357 447 q 233 299 233 392 q 273 203 233 242 q 372 165 313 165 q 450 189 418 165 q 517 275 482 213 z "},"'":{"ha":306,"x_min":103,"x_max":208,"o":"m 208 713 l 103 713 l 103 1026 l 208 1026 l 208 713 z "},"(":{"ha":528,"x_min":103,"x_max":485,"o":"m 485 11 l 485 -190 q 376 -137 422 -168 q 281 -53 331 -107 q 149 165 196 42 q 103 417 103 288 q 160 698 103 564 q 317 922 217 832 q 485 1026 388 986 l 485 826 q 290 417 290 676 q 345 181 290 294 q 485 11 400 67 z "},")":{"ha":528,"x_min":51,"x_max":433,"o":"m 51 825 l 51 1026 q 160 974 114 1004 q 256 889 206 943 q 387 672 340 794 q 433 419 433 549 q 376 138 433 272 q 219 -86 319 4 q 51 -190 149 -150 l 51 10 q 246 419 246 160 q 191 656 246 542 q 51 825 136 769 z "},"*":{"ha":611,"x_min":97,"x_max":515,"o":"m 161 981 l 249 1025 l 310 906 l 374 1026 l 456 976 l 381 861 l 515 869 l 515 769 l 381 776 l 454 665 l 375 613 l 310 735 l 250 613 l 161 656 l 233 779 l 97 769 l 97 868 l 235 861 l 161 981 z "},"+":{"ha":833,"x_min":71,"x_max":771,"o":"m 338 597 l 338 868 l 504 868 l 504 597 l 771 597 l 771 433 l 504 433 l 504 163 l 338 163 l 338 433 l 71 433 l 71 597 l 338 597 z "},",":{"ha":389,"x_min":100,"x_max":285,"o":"m 100 0 l 100 178 l 285 178 l 285 -10 q 196 -172 285 -124 q 100 -194 158 -194 l 100 -101 q 163 -75 144 -93 q 182 -24 182 -57 q 181 0 182 -8 l 100 0 z "},"-":{"ha":583,"x_min":103,"x_max":488,"o":"m 103 318 l 103 482 l 488 482 l 488 318 l 103 318 z "},".":{"ha":389,"x_min":100,"x_max":285,"o":"m 100 0 l 100 178 l 285 178 l 285 0 l 100 0 z "},"/":{"ha":639,"x_min":36,"x_max":615,"o":"m 36 -178 l 485 1026 l 615 1026 l 167 -178 l 36 -178 z "},":":{"ha":389,"x_min":100,"x_max":285,"o":"m 100 0 l 100 178 l 285 178 l 285 0 l 100 0 m 100 513 l 100 697 l 285 697 l 285 513 l 100 513 z "},";":{"ha":389,"x_min":100,"x_max":285,"o":"m 100 0 l 100 178 l 285 178 l 285 -10 q 225 -153 285 -103 q 100 -194 178 -194 l 100 -101 q 163 -75 144 -93 q 182 -24 182 -57 l 182 0 l 100 0 m 100 513 l 100 697 l 285 697 l 285 513 l 100 513 z "},"<":{"ha":833,"x_min":68,"x_max":775,"o":"m 775 808 l 775 646 l 301 428 l 775 207 l 775 46 l 68 358 l 68 494 l 775 808 z "},"=":{"ha":833,"x_min":71,"x_max":771,"o":"m 771 726 l 771 563 l 71 563 l 71 726 l 771 726 m 771 456 l 771 292 l 71 292 l 71 456 l 771 456 z "},">":{"ha":833,"x_min":67,"x_max":774,"o":"m 67 46 l 67 207 l 542 425 l 67 646 l 67 808 l 774 494 l 774 358 l 67 46 z "},"?":{"ha":778,"x_min":44,"x_max":674,"o":"m 442 260 l 257 260 q 290 459 256 389 q 426 614 324 529 q 489 732 489 668 q 451 824 489 788 q 357 861 414 861 q 229 722 247 861 l 44 722 q 111 924 54 851 q 221 1013 154 981 q 361 1044 288 1044 q 584 953 494 1044 q 674 726 674 863 q 643 603 674 657 q 532 478 613 549 q 459 390 475 429 q 442 260 443 351 m 257 0 l 257 178 l 442 178 l 442 0 l 257 0 z "},"@":{"ha":1028,"x_min":4,"x_max":1035,"o":"m 806 796 l 760 386 q 758 365 758 379 q 796 329 758 329 q 892 402 851 329 q 933 574 933 475 q 825 856 933 747 q 542 964 717 964 q 228 838 353 964 q 103 519 103 711 q 140 340 103 426 q 243 193 176 254 q 557 83 364 83 q 764 149 676 83 l 828 65 q 554 -18 721 -18 q 133 165 288 -18 q 4 524 4 314 q 158 909 4 754 q 539 1064 311 1064 q 806 994 686 1064 q 983 807 925 925 q 1035 551 1035 701 q 943 296 1035 392 q 742 214 858 214 q 604 289 631 214 q 447 214 554 214 q 281 285 343 214 q 218 479 218 357 q 299 709 218 617 q 499 801 379 801 q 592 783 556 801 q 663 721 628 765 l 672 796 l 806 796 m 526 646 q 426 601 468 646 q 385 493 385 557 q 414 397 385 432 q 493 361 443 361 q 593 406 554 361 q 632 519 632 450 q 603 612 632 578 q 526 646 575 646 z "},"A":{"ha":1028,"x_min":0,"x_max":11556,"o":"m 3050 1603 l 2728 1603 l 2728 1708 l 3050 1708 l 3050 1603 m 3050 1765 l 2728 1765 l 2889 1944 l 3050 1765 m 4950 -426 q 4935 -437 4942 -426 q 4929 -458 4929 -447 q 4939 -469 4929 -469 l 4940 -469 q 4953 -460 4947 -469 q 4960 -439 4960 -450 q 4950 -426 4960 -426 m 4933 -556 q 4981 -542 4960 -556 q 5020 -503 5001 -529 q 5061 -437 5039 -476 l 5111 -347 l 5117 -347 l 5111 -486 l 5167 -369 l 5171 -369 l 5169 -481 l 5224 -382 l 5225 -471 l 5265 -401 l 5275 -449 q 5294 -474 5281 -474 q 5311 -467 5303 -474 l 5333 -449 l 5346 -457 q 5331 -469 5340 -461 q 5317 -481 5321 -478 q 5306 -486 5314 -483 q 5288 -490 5297 -489 q 5269 -481 5274 -490 q 5257 -443 5264 -472 l 5214 -518 l 5211 -432 l 5156 -536 l 5156 -425 l 5099 -546 l 5094 -546 l 5099 -401 l 5064 -462 l 5035 -510 l 5003 -546 l 4969 -565 l 4928 -572 q 4872 -547 4889 -572 q 4854 -490 4854 -522 q 4870 -419 4854 -457 q 4917 -353 4886 -382 q 4983 -325 4947 -325 q 5026 -340 5011 -325 q 5042 -383 5042 -356 q 5015 -462 5042 -422 q 4950 -504 4988 -503 q 4922 -490 4931 -504 q 4914 -461 4914 -476 q 4928 -426 4914 -440 q 4956 -411 4942 -411 q 4975 -437 4975 -411 q 4963 -468 4975 -454 q 4939 -482 4950 -482 l 4938 -482 q 4956 -487 4944 -487 q 5003 -453 4981 -487 q 5025 -389 5025 -419 q 5013 -354 5025 -367 q 4979 -342 5001 -342 q 4906 -389 4939 -342 q 4872 -483 4872 -436 q 4876 -515 4872 -500 q 4896 -543 4881 -531 q 4933 -556 4911 -556 m 4378 -156 l 4339 -156 l 4167 256 l 4206 256 l 4378 -156 m 1283 -203 l 1244 -203 l 1072 208 l 1111 208 l 1283 -203 m 1028 -806 l 989 -806 l 817 -394 l 856 -394 l 1028 -806 m 11556 875 l 11517 875 l 11344 1286 l 11383 1286 l 11556 875 m 403 447 l 622 447 l 513 758 l 403 447 m 175 397 l 438 1026 l 588 1026 l 1018 0 l 808 0 l 699 265 l 333 265 l 219 0 l 10 0 l 156 350 l 0 722 l 39 722 l 175 397 z "},"B":{"ha":806,"x_min":94,"x_max":761,"o":"m 94 0 l 94 1026 l 306 1026 q 479 1016 421 1026 q 583 976 538 1006 q 700 753 700 901 q 674 636 700 681 q 586 560 647 592 q 711 474 674 524 q 761 306 761 408 q 726 161 761 226 q 628 57 692 96 q 368 0 536 0 l 94 0 m 285 182 l 379 182 q 524 213 479 182 q 569 310 569 243 q 375 444 569 444 l 285 444 l 285 182 m 285 631 l 346 631 q 471 656 432 631 q 510 736 510 681 q 363 840 510 840 l 285 840 l 285 631 z "},"C":{"ha":1083,"x_min":42,"x_max":11344,"o":"m 11275 -1237 l 11240 -1237 l 11240 -1272 l 11171 -1272 l 11171 -1237 l 11240 -1237 l 11240 -1203 l 11275 -1203 l 11275 -1237 m 11171 -1168 l 11136 -1168 l 11136 -1133 l 11171 -1133 l 11171 -1168 m 11275 -1168 l 11240 -1168 l 11240 -1133 l 11275 -1133 l 11275 -1168 m 11136 -1307 l 11275 -1307 l 11275 -1342 l 11136 -1342 l 11136 -1307 m 11136 -1307 l 11101 -1307 l 11101 -1272 l 11136 -1272 l 11136 -1307 m 11275 -1307 l 11275 -1272 l 11310 -1272 l 11310 -1307 l 11275 -1307 m 11101 -1272 l 11067 -1272 l 11067 -1237 l 11067 -1203 l 11067 -1168 l 11067 -1133 l 11067 -1099 l 11101 -1099 l 11101 -1133 l 11101 -1168 l 11101 -1203 l 11101 -1237 l 11101 -1272 m 11310 -1272 l 11310 -1237 l 11310 -1203 l 11310 -1168 l 11310 -1133 l 11310 -1099 l 11344 -1099 l 11344 -1133 l 11344 -1168 l 11344 -1203 l 11344 -1237 l 11344 -1272 l 11310 -1272 m 11171 -1237 l 11136 -1237 l 11136 -1203 l 11171 -1203 l 11171 -1237 m 11101 -1099 l 11101 -1064 l 11136 -1064 l 11136 -1099 l 11101 -1099 m 11310 -1099 l 11275 -1099 l 11275 -1064 l 11310 -1064 l 11310 -1099 m 11136 -1064 l 11136 -1029 l 11275 -1029 l 11275 -1064 l 11136 -1064 m 2506 1046 l 2471 1046 l 2471 1011 l 2401 1011 l 2401 1046 l 2471 1046 l 2471 1081 l 2506 1081 l 2506 1046 m 2401 1115 l 2367 1115 l 2367 1150 l 2401 1150 l 2401 1115 m 2506 1115 l 2471 1115 l 2471 1150 l 2506 1150 l 2506 1115 m 2367 976 l 2506 976 l 2506 942 l 2367 942 l 2367 976 m 2367 976 l 2332 976 l 2332 1011 l 2367 1011 l 2367 976 m 2506 976 l 2506 1011 l 2540 1011 l 2540 976 l 2506 976 m 2332 1011 l 2297 1011 l 2297 1046 l 2297 1081 l 2297 1115 l 2297 1150 l 2297 1185 l 2332 1185 l 2332 1150 l 2332 1115 l 2332 1081 l 2332 1046 l 2332 1011 m 2540 1011 l 2540 1046 l 2540 1081 l 2540 1115 l 2540 1150 l 2540 1185 l 2575 1185 l 2575 1150 l 2575 1115 l 2575 1081 l 2575 1046 l 2575 1011 l 2540 1011 m 2401 1046 l 2367 1046 l 2367 1081 l 2401 1081 l 2401 1046 m 2332 1185 l 2332 1219 l 2367 1219 l 2367 1185 l 2332 1185 m 2540 1185 l 2506 1185 l 2506 1219 l 2540 1219 l 2540 1185 m 2367 1219 l 2367 1254 l 2506 1254 l 2506 1219 l 2367 1219 m 6289 225 l 6261 128 l 6358 153 l 6289 81 l 6385 53 l 6289 22 l 6358 -50 l 6261 -25 l 6289 -122 l 6211 -50 l 6183 -149 l 6158 -50 l 6085 -122 l 6110 -25 l 6013 -50 l 6085 22 l 5983 53 l 6085 81 l 6013 153 l 6110 128 l 6085 225 l 6158 153 l 6183 251 l 6211 153 l 6289 225 m 832 286 l 1056 286 q 867 64 996 146 q 582 -18 739 -18 q 199 138 357 -18 q 42 517 42 294 q 86 727 42 628 q 208 901 131 826 l 79 1071 q 58 1113 64 1092 q 53 1153 51 1135 q 62 1189 54 1172 q 82 1217 69 1206 q 111 1236 94 1229 q 147 1243 128 1243 q 188 1236 169 1243 q 217 1217 207 1229 q 236 1192 228 1206 q 247 1164 244 1178 q 251 1139 250 1150 q 253 1119 253 1128 l 253 1114 l 253 939 q 275 954 264 947 l 275 1114 l 275 1119 q 277 1139 275 1128 q 282 1164 279 1150 q 292 1192 285 1178 q 311 1217 300 1206 q 340 1236 322 1229 q 381 1243 358 1243 q 417 1236 400 1243 q 447 1217 435 1229 q 467 1189 460 1206 q 476 1153 475 1172 q 471 1113 478 1135 q 449 1071 464 1092 l 410 1019 q 569 1044 488 1044 q 910 926 764 1044 q 993 841 961 883 q 1056 732 1025 799 l 843 732 q 726 831 790 800 q 574 861 663 861 q 318 749 414 861 q 233 515 233 650 q 335 268 233 371 q 578 165 436 165 q 711 193 653 165 q 832 286 769 221 z "},"D":{"ha":972,"x_min":94,"x_max":917,"o":"m 94 0 l 94 1026 l 329 1026 q 693 953 571 1026 q 858 773 800 889 q 917 511 917 657 q 850 235 917 356 q 665 57 783 115 q 333 0 551 0 l 94 0 m 285 182 l 326 182 q 576 228 494 182 q 685 342 644 265 q 725 511 725 418 q 683 688 725 610 q 568 803 642 765 q 322 844 486 844 l 285 844 l 285 182 z "},"E":{"ha":722,"x_min":94,"x_max":646,"o":"m 94 0 l 94 1026 l 646 1026 l 646 844 l 285 844 l 285 603 l 631 603 l 631 421 l 285 421 l 285 182 l 646 182 l 646 0 l 94 0 z "},"F":{"ha":667,"x_min":94,"x_max":617,"o":"m 94 0 l 94 1026 l 617 1026 l 617 844 l 285 844 l 285 603 l 601 603 l 601 421 l 285 421 l 285 0 l 94 0 z "},"G":{"ha":1167,"x_min":42,"x_max":1136,"o":"m 465 346 l 465 524 l 1136 524 l 1136 499 q 989 140 1136 294 q 600 -18 835 -18 q 203 136 364 -18 q 42 515 42 290 q 199 890 42 736 q 582 1044 357 1044 q 892 954 750 1044 q 1083 725 1033 864 l 860 725 q 578 861 763 861 q 329 760 422 861 q 260 647 286 714 q 233 513 233 579 q 335 265 233 365 q 589 165 438 165 q 769 213 690 165 q 890 346 849 260 l 465 346 z "},"H":{"ha":944,"x_min":94,"x_max":842,"o":"m 94 0 l 94 1026 l 285 1026 l 285 613 l 651 613 l 651 1026 l 842 1026 l 842 0 l 651 0 l 651 431 l 285 431 l 285 0 l 94 0 z "},"I":{"ha":389,"x_min":-221,"x_max":6183,"o":"m 5908 -1237 l 5908 -961 l 6183 -1099 l 5908 -1237 m 5633 -1099 l 5633 -822 l 5908 -961 l 5633 -1099 m 2475 1129 l 2475 1406 l 2750 1267 l 2475 1129 m 2200 990 l 2200 1267 l 2475 1129 l 2200 990 m 21 675 q 32 672 26 675 q 31 664 29 669 q 43 663 35 665 q 57 656 51 661 q 56 656 57 656 q 51 656 53 656 q 47 656 49 656 l 46 654 l 53 646 l 43 639 l 42 632 q 36 628 40 631 q 29 626 32 626 q 22 625 26 625 q 28 615 28 621 q 23 613 26 615 q 18 610 19 610 q 46 621 33 617 q 94 633 71 629 l 94 1026 l 285 1026 l 285 279 q 350 206 324 243 q 390 158 372 176 l 342 158 q 285 244 318 207 l 285 0 l 94 0 l 94 414 q 82 426 86 422 q 29 490 53 456 q 26 494 28 492 q 25 493 26 493 l 28 486 l 28 485 q 50 443 42 453 l 24 475 l 24 472 q 36 415 32 450 q 31 408 33 411 q 31 401 31 404 q 27 399 29 400 q 24 397 25 397 q 28 386 26 394 q 19 381 22 385 q 13 372 18 378 q 8 382 13 376 q 3 379 6 379 q 0 386 1 382 q -3 392 -3 390 q -10 394 -6 392 q -11 410 -10 404 q -19 410 -14 411 q -14 422 -17 418 l -22 424 l -22 432 q -21 440 -22 440 q -25 443 -22 442 q -29 446 -28 444 q -25 454 -26 450 l -35 468 q -29 490 -29 475 q -22 503 -25 500 q -28 518 -22 504 q -26 533 -26 524 l -35 538 q -29 524 -32 528 q -40 540 -36 532 q -33 518 -33 519 q -37 525 -36 522 q -37 513 -36 519 q -43 510 -42 511 l -43 508 l -43 508 q -43 508 -43 508 q -49 504 -47 504 q -44 490 -49 500 q -40 476 -40 481 q -43 474 -40 476 q -49 469 -46 471 q -49 465 -49 467 q -48 460 -49 463 q -46 454 -47 457 l -50 453 q -57 451 -54 451 q -62 447 -60 451 l -64 446 q -62 438 -62 442 q -61 429 -61 435 q -60 422 -61 424 l -65 425 q -66 415 -67 422 q -67 406 -65 408 l -74 411 l -69 403 l -74 400 q -78 392 -74 400 q -81 392 -79 392 q -83 393 -82 393 q -83 390 -83 393 q -83 386 -83 388 q -90 386 -87 386 q -96 403 -92 394 l -97 397 q -97 390 -97 393 q -99 394 -99 392 q -101 399 -100 397 q -106 390 -106 394 q -108 399 -107 393 q -111 406 -110 404 l -115 399 q -115 415 -117 404 q -114 428 -114 425 l -115 429 l -118 432 q -108 454 -115 443 q -112 458 -110 457 q -115 463 -114 461 q -112 453 -112 454 l -118 461 q -118 460 -118 461 q -118 453 -118 456 l -119 444 q -125 454 -122 450 q -121 442 -124 447 q -125 444 -121 442 q -131 451 -129 449 l -126 436 l -131 442 q -128 431 -128 435 q -136 442 -131 436 q -135 431 -136 436 l -142 439 l -136 425 l -144 433 q -143 419 -146 426 q -147 423 -144 421 q -151 428 -150 425 q -154 417 -151 421 l -158 425 q -158 415 -158 422 q -158 404 -157 407 l -161 408 l -162 401 q -167 414 -165 408 q -151 461 -164 436 q -134 487 -147 469 q -114 513 -121 504 q -86 539 -101 525 q -82 547 -83 543 l -85 550 q -87 549 -86 550 q -85 551 -87 549 q -86 556 -86 553 l -87 554 q -92 549 -89 553 q -96 543 -94 546 l -96 547 l -96 553 q -106 532 -103 543 q -107 539 -106 532 q -108 550 -108 547 q -112 542 -108 547 q -117 533 -115 536 q -114 549 -117 539 l -124 529 l -124 538 l -124 546 q -133 526 -131 535 q -133 539 -135 536 q -146 521 -143 529 l -149 533 q -161 519 -157 525 q -161 533 -162 524 q -165 524 -162 531 q -169 515 -167 518 q -168 529 -169 522 l -175 511 q -175 525 -176 517 q -183 511 -181 517 l -185 525 q -186 519 -186 522 q -187 511 -186 515 q -187 504 -187 507 q -192 514 -190 510 q -194 503 -194 510 q -196 519 -197 513 l -203 496 q -206 517 -204 513 q -208 507 -207 514 q -210 499 -210 500 q -210 505 -210 500 q -210 511 -210 510 q -217 496 -217 497 l -215 507 q -217 503 -217 506 q -219 497 -218 500 q -221 490 -219 493 q -220 500 -219 494 q -221 510 -221 506 q -207 525 -219 513 q -185 544 -194 538 q -119 571 -161 563 q -122 577 -121 574 q -124 582 -124 581 q -128 578 -125 582 q -132 574 -131 575 q -133 576 -132 575 q -153 564 -142 569 l -144 574 l -157 569 l -151 582 l -164 575 l -157 583 q -167 578 -160 582 q -178 572 -174 574 l -172 578 l -182 575 q -187 580 -183 576 q -193 586 -190 583 q -154 600 -181 592 q -147 608 -151 604 q -161 610 -156 610 q -135 619 -154 615 q -99 624 -117 624 q -93 624 -99 624 q -97 626 -94 625 q -89 635 -90 633 q -94 631 -90 633 q -103 629 -99 629 q -107 643 -104 635 q -118 643 -111 643 q -121 654 -118 643 q -126 655 -122 656 q -132 654 -131 654 q -131 663 -132 660 q -119 667 -126 665 q -118 672 -119 669 q -103 668 -118 672 q -79 660 -86 664 q -78 649 -79 653 q -78 653 -78 650 l -76 656 q -70 653 -75 656 q -64 651 -65 651 q -67 644 -65 647 q -62 649 -64 649 q -46 634 -58 646 q -31 618 -33 622 l -29 618 l -28 617 l -29 629 q -22 632 -28 632 q -19 632 -22 632 q -21 651 -19 647 q -13 654 -17 654 q -7 653 -10 654 q 1 663 -4 657 q 8 672 7 669 q 21 675 17 675 m 94 439 l 94 483 q 92 503 92 489 q 89 492 89 497 l 88 493 q 89 465 90 478 q 87 469 88 465 q 85 476 86 474 q 79 467 83 469 q 65 503 69 485 q 65 510 65 507 q 63 515 64 513 q 60 519 61 518 q 56 519 60 519 q 56 521 56 519 l 54 521 q 53 517 54 521 q 51 513 53 514 q 50 526 50 519 l 49 528 q 43 521 46 525 q 53 497 46 507 q 67 473 60 485 q 88 446 75 461 l 94 439 z "},"J":{"ha":667,"x_min":13,"x_max":575,"o":"m 385 1026 l 575 1026 l 575 294 q 501 66 575 150 q 297 -18 426 -18 q 78 75 163 -18 q 33 146 47 110 q 13 243 19 182 l 203 243 q 293 165 222 165 q 385 300 385 165 l 385 1026 z "},"K":{"ha":861,"x_min":94,"x_max":832,"o":"m 94 0 l 94 1026 l 285 1026 l 285 583 l 603 1026 l 832 1026 l 446 522 l 832 0 l 603 0 l 285 451 l 285 0 l 94 0 z "},"L":{"ha":611,"x_min":94,"x_max":599,"o":"m 94 0 l 94 1026 l 285 1026 l 285 182 l 599 182 l 599 0 l 94 0 z "},"M":{"ha":1250,"x_min":94,"x_max":11314,"o":"m 5178 -428 l 5178 -700 l 5004 -471 q 4983 -428 4989 -450 q 4978 -388 4976 -407 q 4987 -353 4979 -369 q 5007 -324 4994 -336 q 5036 -306 5019 -312 q 5072 -299 5053 -299 q 5113 -306 5094 -299 q 5142 -324 5132 -312 q 5161 -350 5153 -336 q 5172 -378 5169 -364 q 5176 -403 5175 -392 q 5178 -422 5178 -414 l 5178 -428 m 5200 -428 l 5200 -422 q 5201 -403 5200 -414 q 5207 -378 5204 -392 q 5217 -350 5210 -364 q 5236 -324 5225 -336 q 5265 -306 5247 -312 q 5306 -299 5283 -299 q 5342 -306 5325 -299 q 5372 -324 5360 -312 q 5392 -353 5385 -336 q 5401 -388 5400 -369 q 5396 -428 5403 -407 q 5374 -471 5389 -450 l 5200 -700 l 5200 -428 m 2060 1239 q 2051 1256 2058 1250 q 2032 1261 2044 1261 q 2013 1256 2019 1261 q 2003 1239 2006 1250 l 1986 1239 q 1999 1271 1988 1261 q 2032 1281 2011 1281 q 2064 1271 2053 1281 q 2078 1239 2075 1261 l 2060 1239 m 1893 1383 q 1885 1399 1892 1393 q 1864 1404 1878 1404 q 1846 1399 1853 1404 q 1836 1383 1839 1394 l 1819 1383 q 1832 1414 1821 1403 q 1865 1425 1843 1425 q 1897 1414 1886 1425 q 1910 1383 1908 1403 l 1893 1383 m 2228 1383 q 2218 1399 2225 1393 q 2199 1404 2211 1404 q 2179 1399 2186 1404 q 2171 1383 2172 1394 l 2153 1383 q 2167 1414 2156 1403 q 2199 1425 2178 1425 q 2231 1414 2219 1425 q 2244 1383 2243 1403 l 2228 1383 m 1942 1282 q 1933 1297 1940 1292 q 1914 1303 1926 1303 q 1894 1298 1901 1303 q 1886 1282 1888 1293 l 1868 1282 q 1881 1313 1869 1303 q 1914 1324 1893 1324 q 1947 1313 1935 1324 q 1958 1282 1958 1303 l 1942 1282 m 2178 1282 q 2169 1297 2176 1292 q 2150 1303 2163 1303 q 2131 1298 2138 1303 q 2122 1282 2124 1293 l 2104 1282 q 2117 1313 2106 1303 q 2150 1324 2129 1324 q 2183 1313 2171 1324 q 2196 1282 2194 1303 l 2178 1282 m 1942 1483 q 1933 1500 1940 1494 q 1914 1506 1926 1506 q 1894 1500 1901 1506 q 1886 1483 1888 1494 l 1868 1483 q 1881 1515 1869 1504 q 1914 1525 1893 1525 q 1947 1515 1935 1525 q 1958 1483 1958 1504 l 1942 1483 m 2178 1483 q 2169 1500 2176 1494 q 2150 1506 2163 1506 q 2131 1500 2138 1506 q 2122 1483 2124 1494 l 2104 1483 q 2117 1515 2106 1504 q 2150 1525 2129 1525 q 2183 1515 2171 1525 q 2196 1483 2194 1504 l 2178 1483 m 2060 1525 q 2051 1542 2058 1536 q 2032 1547 2044 1547 q 2013 1542 2019 1547 q 2003 1525 2006 1536 l 1986 1525 q 1999 1556 1988 1546 q 2032 1567 2011 1567 q 2064 1556 2053 1567 q 2078 1525 2075 1546 l 2060 1525 m 4238 -244 q 4229 -228 4236 -233 q 4208 -222 4222 -222 q 4190 -228 4197 -222 q 4181 -244 4183 -233 l 4164 -244 q 4176 -213 4165 -224 q 4209 -203 4188 -203 q 4242 -213 4231 -203 q 4254 -244 4253 -224 l 4238 -244 m 4069 -101 q 4061 -85 4068 -90 q 4042 -79 4054 -79 q 4022 -85 4029 -79 q 4014 -101 4015 -90 l 3997 -101 q 4009 -70 3997 -81 q 4042 -60 4021 -60 q 4074 -70 4063 -60 q 4088 -101 4086 -81 l 4069 -101 m 4404 -101 q 4396 -85 4403 -90 q 4376 -79 4389 -79 q 4357 -85 4364 -79 q 4347 -101 4350 -90 l 4331 -101 q 4344 -70 4332 -81 q 4376 -60 4356 -60 q 4408 -70 4397 -60 q 4422 -101 4419 -81 l 4404 -101 m 4119 -203 q 4110 -186 4118 -192 q 4090 -181 4103 -181 q 4071 -186 4078 -181 q 4063 -203 4064 -192 l 4046 -203 q 4058 -172 4047 -182 q 4090 -161 4069 -161 q 4123 -172 4111 -161 q 4136 -203 4135 -182 l 4119 -203 m 4356 -203 q 4347 -186 4354 -192 q 4328 -181 4340 -181 q 4308 -186 4315 -181 q 4299 -203 4300 -192 l 4282 -203 q 4294 -172 4283 -182 q 4327 -161 4306 -161 q 4360 -172 4349 -161 q 4372 -203 4371 -182 l 4356 -203 m 4119 0 q 4110 17 4118 11 q 4090 22 4103 22 q 4071 17 4078 22 q 4063 0 4064 11 l 4046 0 q 4058 31 4047 21 q 4090 42 4069 42 q 4123 31 4111 42 q 4136 0 4135 21 l 4119 0 m 4356 0 q 4347 17 4354 11 q 4328 22 4340 22 q 4308 17 4315 22 q 4299 0 4300 11 l 4282 0 q 4294 31 4283 21 q 4327 42 4306 42 q 4360 31 4349 42 q 4372 0 4371 21 l 4356 0 m 4238 42 q 4229 58 4236 53 q 4208 64 4222 64 q 4190 58 4197 64 q 4181 42 4183 53 l 4164 42 q 4176 73 4165 63 q 4209 83 4188 83 q 4242 73 4231 83 q 4254 42 4253 63 l 4238 42 m 11129 2146 q 11121 2163 11128 2157 q 11100 2167 11114 2167 q 11082 2162 11089 2167 q 11072 2146 11075 2157 l 11056 2146 q 11068 2177 11057 2167 q 11101 2188 11079 2188 q 11133 2177 11122 2188 q 11146 2146 11144 2167 l 11129 2146 m 10961 2289 q 10953 2306 10960 2300 q 10933 2311 10946 2311 q 10914 2306 10921 2311 q 10906 2289 10907 2300 l 10889 2289 q 10901 2320 10889 2310 q 10933 2331 10913 2331 q 10966 2320 10954 2331 q 10979 2289 10978 2310 l 10961 2289 m 11296 2289 q 11288 2306 11294 2300 q 11268 2311 11281 2311 q 11249 2306 11256 2311 q 11239 2289 11242 2300 l 11222 2289 q 11235 2320 11224 2310 q 11268 2331 11247 2331 q 11300 2320 11289 2331 q 11314 2289 11311 2310 l 11296 2289 m 11011 2188 q 11002 2204 11010 2199 q 10982 2210 10994 2210 q 10963 2204 10969 2210 q 10954 2188 10956 2199 l 10938 2188 q 10950 2219 10939 2208 q 10982 2229 10961 2229 q 11015 2219 11003 2229 q 11028 2188 11026 2208 l 11011 2188 m 11247 2188 q 11239 2204 11246 2199 q 11219 2210 11232 2210 q 11199 2204 11207 2210 q 11190 2188 11192 2199 l 11174 2188 q 11186 2219 11175 2208 q 11219 2229 11197 2229 q 11251 2219 11240 2229 q 11264 2188 11263 2208 l 11247 2188 m 11011 2390 q 11002 2406 11010 2400 q 10982 2411 10994 2411 q 10963 2406 10969 2411 q 10954 2390 10956 2401 l 10938 2390 q 10950 2422 10939 2411 q 10982 2432 10961 2432 q 11015 2422 11003 2432 q 11028 2390 11026 2411 l 11011 2390 m 11247 2390 q 11239 2406 11246 2400 q 11219 2411 11232 2411 q 11199 2406 11207 2411 q 11190 2390 11192 2401 l 11174 2390 q 11186 2422 11175 2411 q 11219 2432 11197 2432 q 11251 2422 11240 2432 q 11264 2390 11263 2411 l 11247 2390 m 11129 2432 q 11121 2447 11128 2443 q 11100 2453 11114 2453 q 11082 2448 11089 2453 q 11072 2432 11075 2443 l 11056 2432 q 11068 2463 11057 2453 q 11101 2474 11079 2474 q 11133 2463 11122 2474 q 11146 2432 11144 2453 l 11129 2432 m 94 0 l 94 1026 l 356 1026 l 546 492 q 564 483 556 489 q 576 451 575 472 l 560 451 l 581 392 q 613 382 601 392 q 625 350 624 371 l 608 350 q 600 367 607 361 q 589 371 594 369 l 632 249 l 653 308 q 664 338 654 328 l 819 781 l 818 781 q 799 786 811 786 q 779 781 786 786 q 769 764 772 775 l 753 764 q 766 795 754 785 q 799 806 778 806 q 826 800 815 806 l 906 1026 l 1167 1026 l 1167 347 q 1174 343 1171 346 q 1186 311 1186 332 l 1169 311 q 1167 321 1169 317 l 1167 146 q 1174 140 1171 143 q 1186 110 1186 131 l 1169 110 q 1167 119 1169 115 l 1167 0 l 976 0 l 976 642 q 965 643 972 643 q 946 638 953 643 q 938 622 939 633 l 925 622 l 904 561 q 917 563 910 563 q 949 552 938 563 q 963 521 961 542 l 944 521 q 936 536 943 531 q 917 542 929 542 q 897 538 904 542 q 894 535 897 538 l 879 492 q 897 483 890 489 q 911 451 908 472 l 893 451 q 885 468 892 463 q 874 472 881 471 l 843 386 q 849 382 846 385 q 861 350 860 371 l 844 350 q 836 367 843 361 l 708 0 l 553 0 l 285 769 l 285 0 l 94 0 m 608 553 q 599 569 607 564 q 579 575 592 575 q 560 569 567 575 q 551 553 553 564 l 535 553 q 547 584 535 574 q 579 594 558 594 q 612 584 600 594 q 625 553 624 574 l 608 553 m 726 594 q 718 611 725 606 q 697 617 710 617 q 679 611 686 617 q 669 594 672 606 l 653 594 q 661 622 653 611 l 660 622 q 651 638 658 632 q 631 643 644 643 q 613 638 619 643 q 603 622 606 633 l 586 622 q 599 653 588 642 q 631 664 610 664 q 664 653 653 664 q 675 632 672 644 q 697 636 685 636 q 731 626 719 636 q 743 594 742 615 l 726 594 m 708 521 q 700 536 707 531 q 681 542 693 542 q 661 537 668 542 q 653 521 654 532 l 635 521 q 648 552 636 542 q 681 563 660 563 q 713 552 701 563 q 725 521 725 542 l 708 521 m 708 722 q 700 739 707 733 q 681 744 693 744 q 661 739 668 744 q 653 722 654 733 l 635 722 q 648 753 636 743 q 681 764 660 764 q 713 753 701 764 q 725 722 725 743 l 708 722 m 1288 67 q 1279 83 1286 78 q 1260 89 1272 89 q 1240 83 1247 89 q 1231 67 1233 78 l 1214 67 q 1227 99 1215 89 q 1260 108 1239 108 q 1292 99 1281 108 q 1306 67 1303 89 l 1288 67 m 1456 211 q 1446 226 1453 221 q 1426 232 1439 232 q 1407 227 1414 232 q 1399 211 1400 222 l 1381 211 q 1394 242 1383 231 q 1426 253 1406 253 q 1459 242 1447 253 q 1472 211 1471 231 l 1456 211 m 1406 110 q 1397 125 1404 119 q 1378 131 1390 131 q 1358 126 1365 131 q 1350 110 1351 121 l 1332 110 q 1345 141 1333 131 q 1378 151 1357 151 q 1410 141 1399 151 q 1424 110 1422 131 l 1406 110 m 1406 311 q 1397 328 1404 322 q 1378 333 1390 333 q 1358 328 1365 333 q 1350 311 1351 322 l 1332 311 q 1345 342 1333 332 q 1378 353 1357 353 q 1410 342 1399 353 q 1424 311 1422 332 l 1406 311 m 1288 353 q 1279 369 1286 364 q 1260 375 1272 375 q 1240 369 1247 375 q 1231 353 1233 364 l 1214 353 q 1227 384 1215 374 q 1260 394 1239 394 q 1292 384 1281 394 q 1306 353 1303 374 l 1288 353 m 976 663 l 976 769 l 961 728 q 963 722 963 725 l 960 722 l 936 656 q 965 664 947 664 q 976 663 971 664 z "},"N":{"ha":1028,"x_min":94,"x_max":926,"o":"m 94 0 l 94 1026 l 311 1026 l 736 279 l 736 1026 l 926 1026 l 926 0 l 714 0 l 285 746 l 285 0 l 94 0 z "},"O":{"ha":1167,"x_min":42,"x_max":1111,"o":"m 583 1044 q 957 889 803 1044 q 1111 514 1111 733 q 958 135 1111 289 q 582 -18 806 -18 q 199 136 356 -18 q 42 513 42 290 q 198 891 42 738 q 583 1044 354 1044 m 581 861 q 333 761 432 861 q 233 513 233 661 q 334 266 233 367 q 581 165 435 165 q 823 264 726 165 q 919 511 919 363 q 822 760 919 658 q 581 861 724 861 z "},"P":{"ha":778,"x_min":94,"x_max":750,"o":"m 94 0 l 94 1026 l 349 1026 q 611 979 532 1026 q 750 710 750 894 q 714 548 750 621 q 615 436 678 475 q 514 400 572 410 q 346 390 456 390 l 285 390 l 285 0 l 94 0 m 285 572 l 340 572 q 496 596 451 572 q 558 707 558 631 q 535 790 558 756 q 469 835 511 824 q 349 844 426 844 l 285 844 l 285 572 z "},"Q":{"ha":1167,"x_min":42,"x_max":1150,"o":"m 1150 153 l 1150 -19 q 1125 -21 1139 -21 q 882 63 1004 -21 q 597 -18 765 -18 q 203 137 365 -18 q 42 514 42 292 q 200 891 42 738 q 589 1044 358 1044 q 977 892 822 1044 q 1132 508 1132 739 q 1008 179 1132 307 q 1113 149 1068 149 q 1150 153 1121 149 m 721 192 q 392 326 553 326 q 293 315 353 326 q 597 165 407 165 q 721 192 663 165 m 857 283 q 940 506 940 369 q 840 760 940 658 q 586 861 739 861 q 333 761 435 861 q 232 513 232 661 q 235 464 232 489 q 393 482 303 482 q 639 429 515 482 q 857 283 763 376 z "},"R":{"ha":806,"x_min":94,"x_max":789,"o":"m 94 0 l 94 1026 l 390 1026 q 558 1010 496 1026 q 671 950 621 993 q 779 697 779 858 q 674 454 779 544 q 511 379 615 404 l 789 0 l 554 0 l 285 393 l 285 0 l 94 0 m 285 536 l 378 536 q 538 573 488 536 q 588 692 588 610 q 538 808 588 769 q 369 844 496 844 l 285 844 l 285 536 z "},"S":{"ha":722,"x_min":19,"x_max":19308,"o":"m 3997 -86 q 3965 -142 3990 -142 l 3963 -142 q 3947 -129 3947 -139 q 3997 -86 3947 -114 m 4110 -17 q 4076 -74 4101 -74 l 4075 -74 q 4060 -61 4060 -71 q 4110 -17 4060 -46 m 4207 15 q 4175 -40 4200 -40 l 4174 -40 q 4157 -29 4157 -39 l 4157 -28 q 4207 15 4157 -14 m 4224 -64 l 4225 -64 q 4192 -119 4217 -119 l 4190 -119 q 4175 -108 4175 -117 l 4175 -107 q 4224 -64 4175 -92 m 4322 -7 q 4290 -62 4315 -62 l 4288 -62 q 4272 -50 4272 -61 q 4322 -7 4272 -35 m 4351 -64 l 4353 -64 q 4319 -119 4344 -119 l 4318 -119 q 4303 -108 4303 -118 l 4303 -107 q 4351 -64 4303 -92 m 4326 -156 l 4328 -156 q 4294 -212 4319 -212 l 4293 -212 q 4278 -200 4278 -210 q 4326 -156 4278 -185 m 4115 -142 l 4132 -142 l 4132 -144 l 4132 -174 l 4133 -174 q 4329 -292 4253 -174 q 4340 -315 4340 -312 l 4340 -317 q 4329 -303 4333 -314 q 4304 -297 4319 -297 l 4292 -297 q 4221 -321 4251 -297 l 4221 -333 q 4218 -337 4221 -336 l 4210 -322 q 4132 -307 4168 -307 l 4132 -472 q 4103 -503 4132 -497 l 4094 -503 q 4060 -479 4071 -503 l 4060 -472 l 4060 -467 l 4061 -465 l 4074 -465 l 4074 -467 l 4074 -469 q 4094 -494 4076 -494 l 4097 -494 q 4117 -481 4111 -494 l 4118 -469 l 4118 -307 q 4038 -322 4061 -307 q 4029 -335 4033 -335 l 4028 -333 l 4028 -331 l 4029 -318 q 3957 -297 4010 -303 l 3939 -297 q 3903 -311 3913 -297 l 3897 -315 l 3896 -315 q 3964 -228 3913 -281 q 4114 -174 4029 -174 l 4114 -144 l 4115 -142 m 18896 -1394 l 19015 -1192 l 19289 -1311 l 19308 -1432 l 19261 -1565 l 19053 -1704 l 18961 -1686 l 18896 -1394 m 18925 -1400 l 18985 -1662 l 19047 -1675 l 19239 -1547 l 19281 -1429 l 19264 -1331 l 19028 -1228 l 18925 -1400 m 5458 -858 l 5579 -656 l 5853 -775 l 5872 -896 l 5825 -1029 l 5617 -1168 l 5525 -1150 l 5458 -858 m 5489 -864 l 5549 -1126 l 5611 -1139 l 5803 -1011 l 5844 -893 l 5828 -794 l 5590 -692 l 5489 -864 m 1731 1365 l 1851 1568 l 2125 1449 l 2144 1328 l 2097 1194 l 1889 1056 l 1797 1074 l 1731 1365 m 1761 1360 l 1821 1097 l 1883 1085 l 2075 1213 l 2117 1331 l 2100 1429 l 1863 1533 l 1761 1360 m 19 293 l 218 293 q 357 165 231 165 q 457 200 418 165 q 496 290 496 235 q 449 394 496 356 q 271 474 414 421 q 113 584 168 513 q 57 753 57 656 q 144 960 57 875 q 356 1044 232 1044 q 596 935 507 1044 q 660 753 654 863 l 463 753 q 431 833 458 806 q 354 861 403 861 q 278 832 307 861 q 249 757 249 803 q 306 664 249 700 q 419 618 319 656 q 513 579 481 594 l 513 582 l 513 586 l 519 586 l 526 586 l 529 586 l 529 594 l 532 594 l 536 594 l 540 594 l 540 600 l 540 604 l 550 604 l 558 604 l 558 610 l 558 614 l 568 614 l 578 614 l 578 619 l 578 624 l 579 624 l 581 624 l 581 626 l 581 629 l 586 629 l 592 629 l 592 626 l 592 624 l 596 624 l 600 624 l 600 628 l 600 632 l 610 632 l 618 632 l 618 635 l 618 638 l 621 638 l 624 638 l 624 635 l 624 632 l 628 632 l 632 632 l 632 635 l 632 638 l 638 638 l 643 638 l 643 640 l 643 643 l 650 643 l 657 643 l 657 640 l 657 638 l 651 638 l 646 638 l 646 633 l 646 629 l 642 629 l 638 629 l 638 631 l 638 632 l 635 632 l 632 632 l 632 631 l 632 629 l 635 629 l 638 629 l 638 626 l 638 624 l 640 624 l 643 624 l 643 617 l 643 610 l 638 610 l 632 610 l 632 613 l 632 614 l 631 614 l 629 614 l 629 606 l 629 596 l 631 596 l 632 596 l 632 597 l 632 600 l 635 600 l 638 600 l 638 596 l 638 592 l 640 592 l 640 594 l 644 594 l 646 594 l 646 600 l 646 604 l 649 604 l 651 604 l 651 603 l 651 600 l 658 600 l 665 600 l 665 597 l 665 596 l 669 596 l 674 596 l 674 593 l 674 592 l 671 592 l 668 592 l 668 579 l 668 567 l 671 567 l 674 567 l 674 576 l 674 586 l 676 586 l 679 586 l 679 583 l 679 581 l 701 581 l 725 581 l 725 576 l 725 572 l 728 572 l 731 572 l 731 582 l 739 582 l 739 576 l 739 572 l 750 572 l 763 572 l 763 569 l 763 567 l 771 567 l 771 558 l 771 553 l 776 553 l 782 553 l 782 558 l 782 564 l 783 564 l 785 564 l 785 561 l 785 558 l 789 558 l 793 558 l 793 556 l 793 553 l 799 553 l 804 553 l 804 556 l 804 558 l 806 558 l 807 558 l 807 550 l 807 542 l 810 542 l 813 542 l 813 546 l 813 550 l 817 550 l 821 550 l 821 551 l 821 553 l 824 553 l 826 553 l 826 551 l 826 550 l 829 550 l 832 550 l 832 547 l 832 544 l 829 544 l 826 544 l 826 540 l 826 536 l 832 536 l 835 536 l 835 539 l 835 542 l 843 542 l 850 542 l 850 533 l 850 526 l 858 526 l 858 533 l 858 536 l 861 536 l 864 536 l 864 529 l 864 522 l 867 522 l 868 522 l 868 525 l 868 526 l 871 526 l 872 526 l 872 522 l 872 517 l 876 517 l 882 517 l 882 514 l 882 513 l 883 513 l 886 513 l 886 510 l 886 508 l 883 508 l 882 508 l 882 500 l 882 493 l 883 493 l 886 493 l 886 496 l 886 499 l 889 499 l 892 499 l 892 506 l 892 513 l 889 513 l 886 513 l 886 514 l 886 517 l 890 517 l 896 517 l 896 514 l 896 513 l 899 513 l 900 513 l 900 510 l 900 508 l 899 508 l 896 508 l 896 506 l 896 503 l 899 503 l 900 503 l 900 506 l 900 508 l 903 508 l 906 508 l 906 500 l 906 493 l 910 493 l 915 493 l 915 486 l 915 479 l 907 479 l 900 479 l 900 478 l 900 476 l 907 476 l 915 476 l 915 469 l 915 463 l 913 463 l 910 463 l 910 460 l 910 457 l 915 457 l 919 457 l 919 467 l 919 476 l 921 476 l 924 476 l 924 481 l 924 485 l 926 485 l 929 485 l 929 478 l 929 471 l 926 471 l 924 471 l 924 467 l 924 463 l 933 463 l 943 463 l 946 463 l 946 453 l 951 453 l 951 446 l 951 439 l 949 439 l 946 439 l 946 442 l 946 443 l 942 443 l 938 443 l 938 442 l 938 439 l 940 439 l 943 439 l 943 436 l 943 433 l 940 433 l 938 433 l 938 436 l 938 439 l 935 439 l 932 439 l 932 436 l 932 433 l 928 433 l 924 433 l 924 436 l 924 439 l 928 439 l 928 446 l 928 447 l 926 447 l 925 447 l 925 446 l 925 443 l 924 443 l 919 443 l 919 438 l 919 433 l 919 429 l 926 429 l 932 429 l 932 426 l 932 425 l 935 425 l 938 425 l 938 422 l 938 419 l 931 419 l 924 419 l 924 417 l 924 414 l 926 414 l 929 414 l 929 413 l 929 411 l 926 411 l 924 411 l 924 410 l 924 401 l 907 401 l 907 414 l 903 414 l 900 414 l 900 403 l 900 392 l 896 392 l 892 392 l 892 390 l 892 389 l 889 389 l 886 389 l 886 393 l 886 397 l 883 397 l 882 397 l 882 400 l 882 403 l 875 403 l 868 403 l 868 397 l 868 392 l 867 392 l 864 392 l 864 390 l 864 389 l 868 389 l 872 389 l 872 383 l 872 378 l 865 378 l 858 378 l 858 381 l 858 383 l 857 383 l 854 383 l 854 381 l 854 378 l 851 378 l 850 378 l 850 376 l 850 375 l 851 375 l 854 375 l 854 372 l 854 369 l 851 369 l 850 369 l 850 372 l 850 375 l 847 375 l 844 375 l 844 372 l 844 369 l 838 369 l 832 369 l 832 372 l 832 375 l 829 375 l 826 375 l 826 372 l 826 369 l 817 369 l 807 369 l 807 364 l 807 360 l 810 360 l 813 360 l 813 356 l 813 351 l 810 351 l 807 351 l 807 349 l 807 346 l 806 346 l 804 346 l 804 353 l 804 360 l 801 360 l 799 360 l 799 358 l 799 356 l 796 356 l 793 356 l 793 343 l 793 332 l 792 332 l 790 332 l 790 336 l 790 342 l 781 342 l 771 342 l 771 343 l 771 346 l 767 346 l 763 346 l 763 343 l 763 342 l 767 342 l 771 342 l 771 339 l 771 338 l 767 338 l 763 338 l 763 335 l 763 332 l 757 332 l 753 332 l 753 335 l 753 338 l 746 338 l 739 338 l 739 339 l 739 342 l 736 342 l 733 342 l 733 343 l 733 346 l 732 346 l 731 346 l 731 343 l 731 342 l 728 342 l 725 342 l 725 343 l 725 346 l 728 346 l 731 346 l 731 350 l 731 356 l 728 356 l 725 356 l 725 358 l 725 360 l 722 360 l 719 360 l 719 358 l 719 356 l 722 356 l 725 356 l 725 353 l 725 351 l 722 351 l 719 351 l 719 349 l 719 346 l 718 346 l 717 346 l 717 343 l 717 342 l 710 342 l 701 342 l 701 339 l 701 338 l 725 338 l 725 335 l 725 332 l 718 332 l 711 332 l 711 329 l 711 326 l 708 326 l 706 326 l 706 329 l 706 332 l 701 332 l 697 332 l 697 329 l 697 326 l 696 326 l 693 326 l 693 329 l 693 332 l 690 332 l 688 332 l 688 329 l 688 326 l 685 326 q 685 311 685 319 q 590 77 685 172 q 357 -18 496 -18 q 203 15 275 -18 q 86 107 132 47 q 19 293 29 181 m 674 631 l 674 632 l 676 632 l 679 632 l 679 631 l 679 629 l 676 629 l 674 629 l 674 631 m 821 561 l 821 564 l 824 564 l 826 564 l 826 561 l 826 558 l 824 558 l 821 558 l 821 561 m 872 533 l 872 536 l 875 536 l 878 536 l 878 533 l 878 531 l 875 531 l 872 531 l 872 533 m 932 492 l 932 493 l 935 493 l 938 493 l 938 492 l 938 490 l 935 490 l 932 490 l 932 492 m 932 478 l 932 479 l 935 479 l 938 479 l 938 478 l 938 476 l 935 476 l 932 476 l 932 478 m 965 446 l 965 447 l 967 447 l 969 447 l 969 446 l 969 443 l 967 443 l 965 443 l 965 446 m 946 431 l 946 433 l 949 433 l 951 433 l 951 431 l 951 429 l 949 429 l 946 429 l 946 431 m 878 392 l 875 392 l 872 392 l 872 394 l 872 397 l 875 397 l 878 397 l 878 394 l 878 392 m 826 360 l 826 364 l 838 364 l 840 364 l 840 361 l 840 360 l 838 360 l 835 360 l 835 358 l 835 356 l 832 356 l 826 356 l 826 360 m 771 325 l 771 326 l 774 326 l 776 326 l 776 325 l 776 324 l 774 324 l 771 324 l 771 325 m 753 325 l 753 326 l 757 326 l 763 326 l 763 325 l 763 324 l 757 324 l 753 324 l 753 325 m 624 621 l 624 624 l 621 624 l 618 624 l 618 621 l 618 618 l 621 618 l 624 618 l 624 621 m 606 603 l 606 604 l 603 604 l 600 604 l 600 603 l 600 600 l 603 600 l 606 600 l 606 603 m 596 606 l 596 610 l 593 610 l 592 610 l 592 607 l 592 604 l 589 604 l 586 604 l 586 603 l 586 600 l 590 600 l 596 600 l 596 606 m 568 597 l 568 600 l 567 600 l 564 600 l 564 597 l 564 596 l 567 596 l 568 596 l 568 597 m 665 589 l 665 592 l 663 592 l 660 592 l 660 596 l 657 596 l 657 592 l 657 586 l 661 586 l 665 586 l 665 589 m 651 589 l 651 592 l 647 592 l 643 592 l 643 589 l 643 586 l 647 586 l 651 586 l 651 589 m 638 583 l 638 586 l 635 586 l 632 586 l 632 583 l 632 581 l 635 581 l 638 581 l 638 583 m 600 579 l 600 581 l 604 581 l 610 581 l 610 583 l 610 586 l 607 586 l 606 586 l 606 589 l 606 592 l 614 592 l 624 592 l 624 593 l 624 596 l 621 596 l 618 596 l 618 597 l 618 600 l 617 600 l 614 600 l 614 597 l 614 596 l 607 596 l 600 596 l 600 593 l 600 592 l 590 592 l 581 592 l 581 589 l 581 586 l 583 586 l 586 586 l 586 583 l 586 581 l 589 581 l 592 581 l 592 583 l 592 586 l 593 586 l 596 586 l 596 582 l 596 578 l 597 578 l 600 578 l 600 579 m 683 575 l 683 578 l 681 578 l 679 578 l 679 575 l 679 572 l 681 572 l 683 572 l 683 575 m 610 575 l 610 578 l 607 578 l 606 578 l 606 575 l 606 572 l 607 572 l 610 572 l 610 575 m 586 575 l 586 578 l 583 578 l 582 578 l 582 575 l 582 572 l 583 572 l 586 572 l 586 575 m 719 569 l 719 572 l 718 572 l 717 572 l 717 569 l 717 567 l 718 567 l 719 567 l 719 569 m 632 569 l 632 572 l 631 572 l 629 572 l 629 569 l 629 567 l 631 567 l 632 567 l 632 569 m 711 565 l 711 567 l 708 567 l 706 567 l 706 565 l 706 564 l 708 564 l 711 564 l 711 565 m 719 561 l 719 564 l 718 564 l 717 564 l 717 561 l 717 558 l 718 558 l 719 558 l 719 561 m 804 547 l 804 550 l 801 550 l 799 550 l 799 547 l 799 544 l 801 544 l 804 544 l 804 547 m 733 546 l 733 553 l 729 553 l 722 553 l 717 553 l 717 550 l 719 550 l 719 547 l 719 544 l 726 544 l 733 544 l 733 546 m 711 547 l 711 550 l 708 550 l 706 550 l 706 547 l 706 544 l 708 544 l 711 544 l 711 547 m 693 551 l 693 558 l 688 558 l 683 558 l 683 556 l 683 553 l 679 553 l 674 553 l 674 549 l 674 544 l 683 544 l 693 544 l 693 551 m 668 547 l 668 550 l 668 553 l 668 556 l 668 558 l 667 558 l 665 558 l 665 556 l 665 553 l 663 553 l 660 553 l 660 551 l 660 550 l 663 550 l 665 550 l 665 547 l 665 544 l 667 544 l 668 544 l 668 547 m 646 547 l 646 550 l 644 550 l 643 550 l 643 547 l 643 544 l 644 544 l 646 544 l 646 547 m 657 546 l 657 550 l 654 550 l 651 550 l 651 546 l 651 542 l 654 542 l 657 542 l 657 546 m 844 533 l 844 536 l 843 536 l 840 536 l 840 533 l 840 531 l 843 531 l 844 531 l 844 533 m 821 536 l 821 542 l 819 542 l 818 542 l 818 536 l 818 531 l 819 531 l 821 531 l 821 536 m 782 533 l 782 536 l 785 536 l 790 536 l 790 539 l 790 542 l 785 542 l 782 542 l 782 543 l 782 544 l 776 544 l 771 544 l 771 547 l 771 550 l 767 550 l 763 550 l 763 551 l 763 553 l 760 553 l 757 553 l 757 551 l 757 550 l 750 550 l 744 550 l 744 551 l 744 553 l 742 553 l 739 553 l 739 549 l 739 544 l 746 544 l 753 544 l 753 543 l 753 542 l 757 542 l 763 542 l 763 539 l 763 536 l 765 536 l 767 536 l 767 539 l 767 542 l 768 542 l 771 542 l 771 539 l 771 536 l 774 536 l 776 536 l 776 533 l 776 531 l 779 531 l 782 531 l 782 533 m 844 525 l 844 526 l 843 526 l 840 526 l 840 525 l 840 522 l 843 522 l 844 522 l 844 525 m 854 519 l 854 522 l 851 522 l 850 522 l 850 519 l 850 517 l 851 517 l 854 517 l 854 519 m 868 506 l 868 508 l 867 508 l 864 508 l 864 506 l 864 503 l 867 503 l 868 503 l 868 506 m 821 506 l 821 508 l 824 508 l 826 508 l 826 510 l 826 513 l 819 513 l 819 522 l 815 522 l 813 522 l 813 525 l 813 526 l 810 526 l 807 526 l 807 525 l 807 522 l 806 522 l 804 522 l 804 525 l 804 526 l 797 526 l 790 526 l 790 525 l 790 522 l 794 522 l 799 522 l 799 519 l 799 517 l 803 517 l 807 517 l 807 514 l 807 513 l 810 513 l 813 513 l 813 508 l 813 503 l 817 503 l 821 503 l 821 506 m 832 496 l 832 499 l 833 499 l 835 499 l 835 496 l 835 493 l 840 493 l 844 493 l 844 501 l 835 501 l 835 506 l 835 508 l 833 508 l 832 508 l 832 506 l 832 503 l 829 503 l 826 503 l 826 497 l 826 493 l 829 493 l 832 493 l 832 496 m 878 492 l 878 493 l 875 493 l 872 493 l 872 492 l 872 490 l 875 490 l 878 490 l 878 492 m 910 488 l 910 490 l 903 490 l 896 490 l 896 488 l 896 485 l 903 485 l 910 485 l 910 488 m 892 478 l 892 479 l 889 479 l 886 479 l 886 478 l 886 476 l 889 476 l 892 476 l 892 478 m 864 474 l 864 476 l 861 476 l 858 476 l 858 474 l 858 471 l 861 471 l 864 471 l 864 474 m 900 464 l 900 465 l 896 465 l 892 465 l 892 464 l 892 463 l 896 463 l 900 463 l 900 464 m 943 453 l 943 457 l 940 457 l 938 457 l 938 453 l 938 447 l 940 447 l 943 447 l 943 453 m 906 431 l 906 433 l 900 433 l 896 433 l 896 431 l 896 429 l 900 429 l 906 429 l 906 431 m 878 425 l 878 429 l 875 429 l 872 429 l 872 425 l 872 419 l 875 419 l 878 419 l 878 425 m 818 422 l 818 425 l 815 425 l 813 425 l 813 422 l 813 419 l 815 419 l 818 419 l 818 422 m 854 415 l 854 419 l 851 419 l 850 419 l 850 422 l 850 425 l 847 425 l 844 425 l 844 418 l 844 411 l 850 411 l 854 411 l 854 415 m 840 413 l 840 414 l 836 414 l 832 414 l 832 413 l 832 411 l 836 411 l 840 411 l 840 413 m 881 415 l 872 415 l 872 410 l 872 406 l 876 406 l 881 406 l 881 415 m 896 404 l 896 406 l 890 406 l 886 406 l 886 404 l 886 403 l 890 403 l 896 403 l 896 404 m 832 404 l 832 406 l 826 406 l 821 406 l 821 404 l 821 403 l 826 403 l 832 403 l 832 404 m 807 400 l 807 403 l 810 403 l 813 403 l 813 404 l 813 406 l 804 406 l 804 397 l 806 397 l 807 397 l 807 400 m 854 394 l 854 397 l 851 397 l 850 397 l 850 394 l 850 392 l 851 392 l 854 392 l 854 394 m 776 394 l 776 397 l 774 397 l 771 397 l 771 394 l 771 392 l 774 392 l 776 392 l 776 394 m 771 386 l 771 389 l 767 389 l 763 389 l 763 386 l 763 383 l 767 383 l 771 383 l 771 386 m 697 390 l 697 392 l 700 392 l 701 392 l 701 390 l 701 389 l 700 389 l 697 389 l 697 390 m 679 381 l 679 383 l 686 383 l 693 383 l 693 381 l 693 378 l 707 378 l 719 378 l 719 381 l 719 383 l 725 383 l 731 383 l 731 381 l 731 378 l 739 378 l 749 378 l 749 381 l 749 383 l 751 383 l 757 383 l 757 388 l 757 392 l 753 392 l 753 389 l 749 389 l 744 389 l 744 390 l 744 392 l 742 392 l 739 392 l 739 390 l 739 389 l 725 389 l 711 389 l 711 390 l 711 392 l 714 392 l 717 392 l 717 394 l 717 397 l 721 397 l 725 397 l 725 394 l 725 392 l 729 392 l 733 392 l 733 397 l 733 403 l 736 403 l 739 403 l 739 404 l 739 406 l 743 406 l 749 406 l 749 408 l 749 411 l 750 411 l 753 411 l 753 407 l 753 403 l 754 403 l 757 403 l 757 400 l 757 397 l 760 397 l 763 397 l 763 401 l 763 406 l 760 406 l 757 406 l 757 408 l 757 411 l 763 411 l 767 411 l 767 407 l 767 403 l 771 403 l 771 406 l 774 406 l 776 406 l 776 408 l 776 411 l 781 411 l 785 411 l 785 413 l 785 414 l 788 414 l 790 414 l 790 417 l 790 419 l 792 419 l 793 419 l 793 425 l 793 429 l 796 429 l 799 429 l 799 425 l 799 419 l 801 419 l 804 419 l 804 422 l 804 425 l 808 425 l 813 425 l 813 426 l 813 429 l 817 429 l 821 429 l 821 433 l 821 439 l 824 439 l 826 439 l 826 433 l 826 429 l 829 429 l 832 429 l 832 433 l 832 439 l 836 439 l 840 439 l 840 442 l 840 443 l 849 443 l 854 443 l 854 446 l 854 447 l 851 447 l 850 447 l 850 450 l 850 453 l 840 453 l 832 453 l 832 456 l 832 457 l 838 457 l 844 457 l 844 460 l 844 463 l 840 463 l 835 463 l 835 464 l 835 465 l 838 465 l 840 465 l 840 468 l 840 471 l 833 471 l 826 471 l 826 481 l 826 490 l 822 490 l 818 490 l 818 492 l 818 493 l 815 493 l 813 493 l 813 496 l 813 499 l 811 499 l 804 499 l 804 508 l 801 508 l 799 508 l 799 506 l 799 503 l 796 503 l 793 503 l 793 508 l 793 513 l 790 513 l 786 513 l 781 513 l 781 522 l 774 522 l 767 522 l 767 525 l 767 526 l 763 526 l 757 526 l 757 529 l 757 531 l 749 531 l 739 531 l 739 536 l 739 542 l 736 542 l 733 542 l 733 539 l 733 536 l 718 536 l 701 536 l 701 539 l 701 542 l 690 542 l 679 542 l 679 536 l 679 531 l 676 531 l 674 531 l 674 533 l 674 536 l 667 536 l 660 536 l 660 533 l 660 531 l 656 531 l 651 531 l 651 529 l 651 526 l 649 526 l 646 526 l 646 529 q 644 531 646 531 l 643 531 l 643 526 l 643 522 l 638 522 l 632 522 l 632 519 l 632 517 l 628 517 l 624 517 l 624 514 l 624 513 l 621 513 l 618 513 l 618 510 l 618 508 l 614 508 l 610 508 q 632 481 622 494 l 632 485 l 635 485 l 638 485 l 638 489 l 638 493 l 640 493 l 643 493 l 643 497 l 643 503 l 644 503 l 646 503 l 646 506 l 646 508 l 649 508 l 651 508 l 651 513 l 651 517 l 656 517 l 660 517 l 660 519 l 660 522 l 669 522 l 679 522 l 679 525 l 679 526 l 693 526 l 706 526 l 706 525 l 706 522 l 711 522 l 717 522 l 717 519 l 717 517 l 721 517 l 725 517 l 725 514 l 725 513 l 728 513 l 731 513 l 731 510 l 731 508 l 732 508 l 733 508 l 733 506 l 733 503 l 736 503 l 739 503 l 739 497 l 739 493 l 731 493 l 721 493 l 718 493 l 718 486 l 718 485 l 714 485 l 711 485 l 711 478 l 711 471 l 714 471 l 717 471 l 717 468 l 717 465 l 724 465 l 731 465 l 731 468 l 731 471 l 735 471 l 739 471 l 739 474 l 739 476 l 742 476 l 744 476 l 744 481 l 744 485 l 746 485 l 749 485 l 749 481 l 749 476 l 750 476 l 753 476 l 753 464 l 753 453 l 750 453 l 749 453 l 749 446 l 749 439 l 746 439 l 744 439 l 744 433 l 744 429 l 742 429 l 739 429 l 739 425 l 739 419 l 736 419 l 733 419 l 733 411 l 725 411 l 725 407 l 725 403 l 715 403 l 706 403 l 706 400 l 706 397 l 704 397 l 701 397 l 701 400 l 701 403 l 690 403 l 679 403 l 679 400 l 679 397 l 683 397 l 688 397 l 688 394 l 688 392 l 685 392 l 683 392 l 683 390 l 683 389 l 679 389 l 675 389 q 678 378 675 389 l 679 378 l 679 381 m 763 372 l 763 375 l 760 375 l 757 375 l 757 372 l 757 369 l 760 369 l 763 369 l 763 372 m 785 353 l 785 360 l 783 360 l 782 360 l 782 353 l 782 346 l 783 346 l 785 346 l 785 353 m 744 349 l 744 351 l 742 351 l 739 351 l 739 349 l 739 346 l 742 346 l 744 346 l 744 349 m 706 349 l 706 351 l 704 351 l 701 351 l 701 349 l 701 346 l 704 346 l 706 346 l 706 349 m 693 339 l 693 342 l 690 342 l 688 342 l 688 339 l 688 338 l 690 338 l 693 338 l 693 339 m 697 321 l 697 324 l 700 324 l 701 324 l 701 321 l 701 318 l 700 318 l 697 318 l 697 321 m 660 638 l 660 635 l 660 632 l 658 632 l 657 632 l 657 635 l 657 638 l 658 638 l 660 638 m 660 638 l 660 640 l 660 643 l 663 643 l 665 643 l 665 640 l 665 638 l 663 638 l 660 638 m 938 479 l 938 482 l 938 485 l 940 485 l 943 485 l 943 482 l 943 479 l 940 479 l 938 479 m 632 586 l 632 589 l 632 592 l 628 592 l 624 592 l 624 589 l 624 586 l 618 586 l 614 586 l 614 583 l 614 581 l 621 581 l 629 581 l 629 583 l 629 586 l 631 586 l 632 586 m 582 579 l 582 581 l 582 582 l 576 582 l 576 579 l 579 579 l 582 579 m 706 567 l 706 569 l 706 572 l 708 572 l 711 572 l 711 575 l 711 578 l 707 578 l 701 578 l 701 575 l 701 572 l 700 572 l 697 572 l 697 569 l 697 567 l 701 567 l 706 567 m 790 536 l 790 533 l 790 531 l 792 531 l 793 531 l 793 533 l 793 536 l 792 536 l 790 536 m 844 425 l 844 426 l 844 429 l 840 429 l 835 429 l 835 426 l 835 425 l 840 425 l 844 425 m 858 425 l 858 429 l 858 433 l 861 433 l 864 433 l 864 436 l 864 439 l 857 439 l 850 439 l 850 436 l 850 433 l 851 433 l 854 433 l 854 431 l 854 429 l 851 429 l 850 429 l 850 426 l 850 425 l 854 425 l 858 425 m 858 425 l 858 419 l 858 414 l 861 414 l 864 414 l 864 419 l 864 425 l 861 425 l 858 425 m 674 392 l 676 392 l 679 392 l 679 394 l 679 397 l 676 397 l 674 397 l 674 394 l 674 392 l 674 392 m 674 392 m 725 326 l 725 329 l 725 332 l 728 332 l 731 332 l 731 329 l 731 326 l 728 326 l 725 326 m 725 326 l 725 325 l 725 324 l 721 324 l 717 324 l 717 325 l 717 326 l 721 326 l 725 326 m 807 346 l 810 346 l 813 346 l 813 342 l 813 338 l 810 338 l 807 338 l 807 342 l 807 346 m 813 360 l 813 361 l 813 364 l 815 364 l 821 364 l 821 357 l 821 356 l 819 356 l 818 356 l 818 358 l 818 360 l 815 360 l 813 360 m 907 414 l 910 414 l 915 414 l 915 413 l 915 411 l 917 411 l 919 411 l 919 415 l 919 419 l 915 419 l 910 419 l 910 422 l 910 425 l 907 425 l 907 419 l 907 414 m 915 476 l 915 478 l 915 479 l 917 479 l 919 479 l 919 478 l 919 476 l 917 476 l 915 476 m 739 572 l 736 572 l 733 572 l 733 569 l 733 567 l 736 567 l 739 567 l 739 569 l 739 572 z "},"T":{"ha":583,"x_min":10,"x_max":12008,"o":"m 6632 -643 l 6632 -640 l 6635 -640 l 6638 -640 l 6638 -643 l 6638 -644 l 6635 -644 l 6632 -644 l 6632 -643 m 6564 -635 l 6564 -631 l 6554 -631 l 6544 -631 l 6544 -626 l 6544 -622 l 6540 -622 l 6536 -622 l 6536 -617 l 6536 -611 l 6532 -611 l 6526 -611 l 6526 -617 l 6526 -622 l 6525 -622 l 6522 -622 l 6522 -619 l 6522 -617 l 6519 -617 l 6517 -617 l 6517 -612 l 6517 -608 l 6510 -608 l 6504 -608 l 6504 -604 l 6504 -599 l 6501 -599 l 6499 -599 l 6499 -601 l 6499 -603 l 6496 -603 l 6493 -603 l 6493 -599 l 6493 -594 l 6489 -594 l 6485 -594 l 6485 -597 l 6485 -599 l 6482 -599 l 6479 -599 l 6479 -597 l 6479 -594 l 6475 -594 l 6471 -594 l 6471 -592 l 6471 -589 l 6468 -589 l 6465 -589 l 6465 -583 l 6463 -583 l 6463 -586 l 6454 -586 l 6454 -581 l 6451 -581 l 6449 -581 l 6449 -578 l 6449 -575 l 6446 -575 l 6443 -575 l 6443 -578 l 6443 -581 l 6446 -581 l 6449 -581 l 6449 -582 l 6449 -585 l 6446 -585 l 6443 -585 l 6443 -582 l 6443 -581 l 6442 -581 l 6439 -581 l 6439 -578 l 6439 -575 l 6432 -575 l 6425 -575 l 6425 -574 l 6425 -571 l 6415 -571 l 6406 -571 l 6406 -568 l 6406 -565 l 6399 -565 l 6392 -565 l 6392 -561 l 6392 -557 l 6390 -557 l 6389 -557 l 6389 -554 l 6389 -551 l 6386 -551 l 6383 -551 l 6383 -550 l 6383 -549 l 6381 -549 l 6378 -549 l 6378 -542 l 6378 -535 l 6376 -535 l 6375 -535 l 6375 -532 l 6375 -529 l 6376 -529 l 6378 -529 l 6378 -522 l 6378 -515 l 6376 -515 l 6375 -515 l 6375 -508 l 6375 -501 l 6376 -501 l 6378 -501 l 6378 -494 l 6378 -487 l 6381 -487 l 6383 -487 l 6383 -485 l 6383 -483 l 6386 -483 l 6389 -483 l 6389 -475 l 6389 -465 l 6393 -465 l 6397 -465 l 6397 -461 l 6397 -454 l 6397 -447 l 6401 -447 l 6406 -447 l 6406 -442 l 6406 -436 l 6408 -436 l 6411 -436 l 6411 -429 l 6411 -422 l 6415 -422 l 6421 -422 l 6421 -418 l 6421 -414 l 6422 -414 l 6428 -414 l 6428 -408 l 6428 -404 l 6428 -399 l 6432 -399 l 6435 -399 l 6435 -401 l 6435 -404 l 6438 -404 l 6439 -404 l 6439 -397 l 6439 -390 l 6442 -390 l 6443 -390 l 6443 -387 l 6443 -385 l 6446 -385 l 6449 -385 l 6449 -381 l 6449 -376 l 6456 -376 l 6463 -376 l 6465 -376 l 6465 -368 l 6468 -368 l 6472 -368 l 6476 -368 l 6476 -362 l 6476 -360 l 6485 -360 l 6493 -360 l 6493 -354 l 6493 -349 l 6504 -349 l 6513 -349 l 6513 -344 l 6513 -340 l 6515 -340 l 6517 -340 l 6517 -337 l 6517 -335 l 6522 -335 l 6526 -335 l 6526 -337 l 6526 -340 l 6532 -340 l 6536 -340 l 6536 -335 l 6536 -331 l 6544 -331 l 6554 -331 l 6554 -328 l 6554 -326 l 6557 -326 l 6558 -326 l 6558 -328 l 6558 -331 l 6563 -331 l 6568 -331 l 6568 -332 l 6568 -335 l 6571 -335 l 6574 -335 l 6574 -337 l 6574 -340 l 6575 -340 l 6578 -340 l 6578 -346 l 6578 -354 l 6574 -354 l 6568 -354 l 6568 -351 l 6568 -349 l 6565 -349 l 6564 -349 l 6564 -358 l 6564 -368 l 6565 -368 l 6568 -368 l 6568 -365 l 6568 -362 l 6571 -362 l 6574 -362 l 6574 -367 l 6574 -371 l 6575 -371 l 6575 -368 l 6579 -368 l 6582 -368 l 6582 -362 l 6582 -360 l 6585 -360 l 6588 -360 l 6588 -361 l 6588 -362 l 6593 -362 l 6601 -362 l 6601 -365 l 6601 -368 l 6606 -368 l 6610 -368 l 6610 -369 l 6610 -371 l 6607 -371 l 6604 -371 l 6604 -383 l 6604 -396 l 6607 -396 l 6610 -396 l 6610 -386 l 6610 -376 l 6613 -376 l 6615 -376 l 6615 -379 l 6615 -382 l 6638 -382 l 6660 -382 l 6660 -386 l 6660 -390 l 6663 -390 l 6665 -390 l 6665 -382 l 6675 -382 l 6675 -386 l 6675 -390 l 6672 -390 l 6669 -390 l 6669 -393 l 6669 -396 l 6672 -396 l 6675 -396 l 6675 -393 l 6675 -390 l 6686 -390 l 6697 -390 l 6697 -393 l 6697 -396 l 6706 -396 l 6706 -406 l 6706 -410 l 6711 -410 l 6717 -410 l 6717 -404 l 6717 -399 l 6718 -399 l 6721 -399 l 6721 -401 l 6721 -404 l 6725 -404 l 6729 -404 l 6729 -407 l 6729 -410 l 6735 -410 l 6740 -410 l 6740 -407 l 6740 -404 l 6742 -404 l 6743 -404 l 6743 -414 l 6743 -422 l 6746 -422 l 6749 -422 l 6749 -418 l 6749 -414 l 6753 -414 l 6757 -414 l 6757 -411 l 6757 -410 l 6760 -410 l 6763 -410 l 6763 -411 l 6763 -414 l 6765 -414 l 6768 -414 l 6768 -415 l 6768 -418 l 6765 -418 l 6763 -418 l 6763 -424 l 6763 -428 l 6767 -428 l 6771 -428 l 6771 -425 l 6771 -422 l 6778 -422 l 6785 -422 l 6785 -429 l 6785 -436 l 6793 -436 l 6793 -429 l 6793 -428 l 6796 -428 l 6799 -428 l 6799 -435 l 6799 -442 l 6801 -442 l 6804 -442 l 6804 -439 l 6804 -436 l 6807 -436 l 6808 -436 l 6808 -442 l 6808 -447 l 6813 -447 l 6817 -447 l 6817 -449 l 6817 -450 l 6819 -450 l 6822 -450 l 6822 -449 l 6822 -447 l 6826 -447 l 6831 -447 l 6831 -449 l 6831 -450 l 6833 -450 l 6836 -450 l 6836 -453 l 6836 -456 l 6839 -456 l 6842 -456 l 6842 -462 l 6842 -469 l 6846 -469 l 6850 -469 l 6850 -476 l 6850 -483 l 6853 -483 l 6856 -483 l 6856 -485 l 6856 -487 l 6853 -487 l 6850 -487 l 6850 -485 l 6850 -483 l 6843 -483 l 6836 -483 l 6836 -485 l 6836 -487 l 6843 -487 l 6850 -487 l 6850 -494 l 6850 -501 l 6847 -501 l 6846 -501 l 6846 -504 l 6846 -507 l 6850 -507 l 6856 -507 l 6856 -497 l 6856 -487 l 6857 -487 l 6858 -487 l 6858 -482 l 6858 -478 l 6861 -478 l 6864 -478 l 6864 -485 l 6864 -493 l 6861 -493 l 6858 -493 l 6858 -497 l 6858 -501 l 6868 -501 l 6878 -501 l 6882 -501 l 6882 -510 l 6888 -510 l 6888 -517 l 6888 -524 l 6885 -524 l 6882 -524 l 6882 -522 l 6882 -521 l 6878 -521 l 6874 -521 l 6874 -522 l 6874 -524 l 6871 -524 l 6868 -524 l 6868 -526 l 6868 -529 l 6863 -529 l 6858 -529 l 6858 -526 l 6858 -524 l 6864 -524 l 6864 -517 l 6864 -515 l 6863 -515 l 6861 -515 l 6861 -518 l 6861 -521 l 6858 -521 l 6856 -521 l 6856 -525 l 6856 -529 l 6856 -535 l 6861 -535 l 6868 -535 l 6868 -536 l 6868 -537 l 6871 -537 l 6874 -537 l 6874 -540 l 6874 -543 l 6865 -543 l 6858 -543 l 6858 -546 l 6858 -549 l 6861 -549 l 6864 -549 l 6864 -550 l 6864 -551 l 6861 -551 l 6858 -551 l 6858 -554 l 6858 -561 l 6842 -561 l 6842 -549 l 6846 -549 l 6850 -549 l 6850 -550 l 6850 -551 l 6853 -551 l 6856 -551 l 6856 -547 l 6856 -543 l 6850 -543 l 6844 -543 l 6844 -540 l 6844 -537 l 6843 -537 l 6842 -537 l 6842 -543 l 6842 -549 l 6839 -549 l 6836 -549 l 6836 -560 l 6836 -571 l 6832 -571 l 6828 -571 l 6828 -574 l 6828 -575 l 6825 -575 l 6822 -575 l 6822 -571 l 6822 -565 l 6819 -565 l 6817 -565 l 6817 -564 l 6817 -561 l 6811 -561 l 6804 -561 l 6804 -565 l 6804 -571 l 6801 -571 l 6799 -571 l 6799 -574 l 6799 -575 l 6804 -575 l 6808 -575 l 6808 -581 l 6808 -585 l 6801 -585 l 6794 -585 l 6794 -582 l 6794 -581 l 6792 -581 l 6790 -581 l 6790 -582 l 6790 -585 l 6788 -585 l 6785 -585 l 6785 -587 l 6785 -589 l 6782 -589 l 6779 -589 l 6779 -592 l 6779 -594 l 6774 -594 l 6768 -594 l 6768 -592 l 6768 -589 l 6765 -589 l 6763 -589 l 6763 -592 l 6763 -594 l 6753 -594 l 6743 -594 l 6743 -599 l 6743 -603 l 6746 -603 l 6749 -603 l 6749 -601 l 6749 -599 l 6750 -599 l 6757 -599 l 6757 -607 l 6757 -608 l 6756 -608 l 6754 -608 l 6754 -606 l 6754 -603 l 6751 -603 l 6749 -603 l 6749 -607 l 6749 -611 l 6746 -611 l 6743 -611 l 6743 -614 l 6743 -617 l 6746 -617 l 6749 -617 l 6749 -621 l 6749 -626 l 6746 -626 l 6743 -626 l 6743 -621 l 6743 -617 l 6742 -617 l 6740 -617 l 6740 -610 l 6740 -603 l 6738 -603 l 6735 -603 l 6735 -606 l 6735 -608 l 6732 -608 l 6729 -608 l 6729 -619 l 6729 -631 l 6728 -631 l 6725 -631 l 6725 -626 l 6725 -622 l 6715 -622 l 6707 -622 l 6707 -624 l 6707 -626 l 6701 -626 l 6697 -626 l 6697 -628 l 6697 -631 l 6693 -631 l 6689 -631 l 6689 -628 l 6689 -626 l 6682 -626 l 6675 -626 l 6675 -624 l 6675 -622 l 6672 -622 l 6669 -622 l 6669 -619 l 6669 -617 l 6668 -617 l 6665 -617 l 6665 -612 l 6665 -608 l 6663 -608 l 6660 -608 l 6660 -610 l 6660 -611 l 6658 -611 l 6656 -611 l 6656 -614 l 6656 -617 l 6654 -617 l 6651 -617 l 6651 -619 l 6651 -622 l 6644 -622 l 6638 -622 l 6638 -624 l 6638 -626 l 6660 -626 l 6660 -628 l 6660 -631 l 6663 -631 l 6665 -631 l 6665 -633 l 6665 -636 l 6663 -636 l 6660 -636 l 6660 -637 l 6660 -640 l 6657 -640 l 6651 -640 l 6651 -637 l 6651 -636 l 6657 -636 l 6660 -636 l 6660 -633 l 6660 -631 l 6654 -631 l 6646 -631 l 6646 -633 l 6646 -636 l 6643 -636 l 6642 -636 l 6642 -633 l 6642 -631 l 6638 -631 l 6632 -631 l 6632 -633 l 6632 -636 l 6631 -636 l 6629 -636 l 6629 -633 l 6629 -631 l 6626 -631 l 6624 -631 l 6624 -633 l 6624 -636 l 6621 -636 l 6618 -636 l 6618 -633 l 6618 -631 l 6617 -631 l 6615 -631 l 6615 -619 l 6615 -608 l 6610 -608 l 6604 -608 l 6604 -612 l 6604 -617 l 6607 -617 l 6610 -617 l 6610 -619 l 6610 -622 l 6606 -622 l 6601 -622 l 6601 -624 l 6601 -626 l 6606 -626 l 6610 -626 l 6610 -628 l 6610 -631 l 6613 -631 l 6615 -631 l 6615 -633 l 6615 -636 l 6610 -636 l 6604 -636 l 6604 -633 l 6604 -631 l 6600 -631 l 6596 -631 l 6596 -626 l 6596 -622 l 6592 -622 l 6588 -622 l 6588 -624 l 6588 -626 l 6585 -626 l 6582 -626 l 6582 -628 l 6582 -631 l 6579 -631 l 6578 -631 l 6578 -633 l 6578 -636 l 6575 -636 l 6574 -636 l 6574 -633 l 6574 -631 l 6571 -631 l 6568 -631 l 6568 -635 l 6568 -640 l 6565 -640 l 6564 -640 l 6564 -635 m 6554 -626 l 6554 -622 l 6557 -622 l 6558 -622 l 6558 -619 l 6558 -617 l 6561 -617 l 6564 -617 l 6564 -612 l 6564 -608 l 6561 -608 l 6558 -608 l 6558 -610 l 6558 -611 l 6557 -611 l 6554 -611 l 6554 -614 l 6554 -617 l 6551 -617 l 6550 -617 l 6550 -621 l 6550 -626 l 6551 -626 l 6554 -626 m 6629 -624 l 6629 -622 l 6626 -622 l 6624 -622 l 6624 -624 l 6624 -626 l 6626 -626 l 6629 -626 l 6629 -624 m 6707 -619 l 6707 -617 l 6701 -617 l 6697 -617 l 6697 -619 l 6697 -622 l 6701 -622 l 6707 -622 l 6707 -619 m 6642 -614 l 6642 -611 l 6640 -611 l 6638 -611 l 6638 -614 l 6638 -617 l 6640 -617 l 6642 -617 l 6642 -614 m 6679 -614 l 6679 -611 l 6676 -611 l 6675 -611 l 6675 -614 l 6675 -617 l 6676 -617 l 6679 -617 l 6679 -614 m 6721 -610 l 6721 -603 l 6718 -603 l 6717 -603 l 6717 -610 l 6717 -617 l 6718 -617 l 6721 -617 l 6721 -610 m 6660 -606 l 6660 -603 l 6658 -603 l 6656 -603 l 6656 -606 l 6656 -608 l 6658 -608 l 6660 -608 l 6660 -606 m 6697 -592 l 6697 -589 l 6694 -589 l 6692 -589 l 6692 -592 l 6692 -594 l 6694 -594 l 6697 -594 l 6697 -592 m 6615 -582 l 6615 -581 l 6622 -581 l 6629 -581 l 6629 -582 l 6629 -585 l 6642 -585 l 6656 -585 l 6656 -582 l 6656 -581 l 6660 -581 l 6665 -581 l 6665 -582 l 6665 -585 l 6675 -585 l 6683 -585 l 6683 -582 l 6683 -581 l 6688 -581 l 6692 -581 l 6692 -576 l 6692 -571 l 6689 -571 l 6689 -575 l 6685 -575 l 6679 -575 l 6679 -574 l 6679 -571 l 6676 -571 l 6675 -571 l 6675 -574 l 6675 -575 l 6660 -575 l 6646 -575 l 6646 -574 l 6646 -571 l 6649 -571 l 6651 -571 l 6651 -568 l 6651 -565 l 6657 -565 l 6660 -565 l 6660 -568 l 6660 -571 l 6665 -571 l 6669 -571 l 6669 -565 l 6669 -561 l 6672 -561 l 6675 -561 l 6675 -560 l 6675 -557 l 6679 -557 l 6683 -557 l 6683 -554 l 6683 -551 l 6686 -551 l 6689 -551 l 6689 -557 l 6689 -561 l 6690 -561 l 6692 -561 l 6692 -564 l 6692 -565 l 6694 -565 l 6697 -565 l 6697 -561 l 6697 -557 l 6694 -557 l 6692 -557 l 6692 -554 l 6692 -551 l 6697 -551 l 6703 -551 l 6703 -557 l 6703 -561 l 6707 -561 l 6707 -557 l 6708 -557 l 6711 -557 l 6711 -554 l 6711 -551 l 6715 -551 l 6721 -551 l 6721 -550 l 6721 -549 l 6724 -549 l 6725 -549 l 6725 -546 l 6725 -543 l 6728 -543 l 6729 -543 l 6729 -539 l 6729 -535 l 6732 -535 l 6735 -535 l 6735 -539 l 6735 -543 l 6738 -543 l 6740 -543 l 6740 -540 l 6740 -537 l 6744 -537 l 6749 -537 l 6749 -536 l 6749 -535 l 6753 -535 l 6757 -535 l 6757 -529 l 6757 -524 l 6760 -524 l 6763 -524 l 6763 -529 l 6763 -535 l 6765 -535 l 6768 -535 l 6768 -529 l 6768 -524 l 6772 -524 l 6776 -524 l 6776 -522 l 6776 -521 l 6783 -521 l 6790 -521 l 6790 -518 l 6790 -515 l 6788 -515 l 6785 -515 l 6785 -512 l 6785 -510 l 6776 -510 l 6768 -510 l 6768 -508 l 6768 -507 l 6774 -507 l 6779 -507 l 6779 -504 l 6779 -501 l 6775 -501 l 6771 -501 l 6771 -499 l 6771 -497 l 6774 -497 l 6776 -497 l 6776 -494 l 6776 -493 l 6769 -493 l 6763 -493 l 6763 -482 l 6763 -474 l 6758 -474 l 6754 -474 l 6754 -471 l 6754 -469 l 6751 -469 l 6749 -469 l 6749 -467 l 6749 -464 l 6746 -464 l 6740 -464 l 6740 -456 l 6738 -456 l 6735 -456 l 6735 -458 l 6735 -461 l 6732 -461 l 6729 -461 l 6729 -456 l 6729 -450 l 6725 -450 l 6722 -450 l 6717 -450 l 6717 -442 l 6710 -442 l 6703 -442 l 6703 -439 l 6703 -436 l 6697 -436 l 6692 -436 l 6692 -435 l 6692 -432 l 6683 -432 l 6675 -432 l 6675 -428 l 6675 -422 l 6672 -422 l 6669 -422 l 6669 -425 l 6669 -428 l 6654 -428 l 6638 -428 l 6638 -425 l 6638 -422 l 6626 -422 l 6615 -422 l 6615 -428 l 6615 -432 l 6613 -432 l 6610 -432 l 6610 -431 l 6610 -428 l 6603 -428 l 6596 -428 l 6596 -431 l 6596 -432 l 6592 -432 l 6588 -432 l 6588 -435 l 6588 -436 l 6585 -436 l 6582 -436 l 6582 -435 q 6579 -432 6582 -432 l 6578 -432 l 6578 -437 l 6578 -442 l 6574 -442 l 6568 -442 l 6568 -444 l 6568 -447 l 6563 -447 l 6558 -447 l 6558 -449 l 6558 -450 l 6557 -450 l 6554 -450 l 6554 -453 l 6554 -456 l 6549 -456 l 6544 -456 l 6544 -460 l 6544 -464 l 6543 -464 l 6542 -464 l 6542 -468 l 6542 -474 l 6536 -474 l 6531 -474 l 6531 -481 l 6531 -487 l 6529 -487 l 6526 -487 l 6526 -490 l 6526 -493 l 6529 -493 l 6531 -493 l 6531 -499 l 6531 -507 l 6533 -507 l 6536 -507 l 6536 -508 l 6536 -510 l 6533 -510 l 6531 -510 l 6531 -512 l 6531 -515 l 6533 -515 l 6536 -515 l 6536 -522 l 6536 -529 l 6539 -529 l 6542 -529 l 6542 -537 l 6550 -537 l 6550 -540 l 6550 -543 l 6551 -543 l 6554 -543 l 6554 -546 l 6554 -549 l 6563 -549 l 6574 -549 l 6574 -550 l 6574 -551 l 6571 -551 l 6568 -551 l 6568 -554 l 6568 -557 l 6571 -557 l 6574 -557 l 6574 -560 l 6574 -561 l 6585 -561 l 6596 -561 l 6596 -564 l 6596 -565 l 6599 -565 l 6601 -565 l 6601 -571 l 6601 -575 l 6599 -575 l 6596 -575 l 6596 -571 l 6596 -565 l 6589 -565 l 6582 -565 l 6582 -568 l 6582 -571 l 6585 -571 l 6588 -571 l 6588 -574 l 6588 -575 l 6592 -575 l 6596 -575 l 6596 -578 l 6596 -581 l 6603 -581 l 6610 -581 l 6610 -582 l 6610 -585 l 6613 -585 l 6615 -585 l 6615 -582 m 6610 -574 l 6610 -571 l 6607 -571 l 6604 -571 l 6604 -564 l 6604 -557 l 6603 -557 l 6601 -557 l 6601 -554 l 6601 -551 l 6596 -551 l 6592 -551 l 6592 -550 l 6592 -549 l 6590 -549 l 6588 -549 l 6588 -546 l 6588 -543 l 6585 -543 l 6582 -543 l 6582 -540 l 6582 -537 l 6579 -537 l 6578 -537 l 6578 -533 l 6578 -529 l 6575 -529 l 6574 -529 l 6574 -525 l 6574 -521 l 6571 -521 l 6568 -521 l 6568 -514 l 6568 -507 l 6565 -507 l 6564 -507 l 6564 -504 l 6564 -501 l 6565 -501 l 6568 -501 l 6568 -490 l 6568 -478 l 6571 -478 l 6574 -478 l 6574 -474 l 6574 -469 l 6575 -469 l 6578 -469 l 6578 -465 l 6578 -461 l 6579 -461 l 6582 -461 l 6582 -458 l 6582 -456 l 6585 -456 l 6588 -456 l 6588 -451 l 6588 -447 l 6592 -447 l 6596 -447 l 6596 -444 l 6596 -442 l 6606 -442 l 6615 -442 l 6615 -439 l 6615 -436 l 6628 -436 l 6642 -436 l 6642 -439 l 6642 -442 l 6646 -442 l 6651 -442 l 6651 -444 l 6651 -447 l 6657 -447 l 6660 -447 l 6660 -449 l 6660 -450 l 6663 -450 l 6665 -450 l 6665 -453 l 6665 -456 l 6668 -456 l 6669 -456 l 6669 -458 l 6669 -461 l 6672 -461 l 6675 -461 l 6675 -465 l 6675 -469 l 6665 -469 l 6657 -469 l 6653 -469 l 6653 -476 l 6653 -478 l 6649 -478 l 6646 -478 l 6646 -485 l 6646 -493 l 6649 -493 l 6651 -493 l 6651 -494 l 6651 -497 l 6658 -497 l 6665 -497 l 6665 -494 l 6665 -493 l 6671 -493 l 6675 -493 l 6675 -490 l 6675 -487 l 6676 -487 l 6679 -487 l 6679 -482 l 6679 -478 l 6682 -478 l 6683 -478 l 6683 -482 l 6683 -487 l 6686 -487 l 6689 -487 l 6689 -499 l 6689 -510 l 6686 -510 l 6683 -510 l 6683 -517 l 6683 -524 l 6682 -524 l 6679 -524 l 6679 -529 l 6679 -535 l 6676 -535 l 6675 -535 l 6675 -539 l 6675 -543 l 6672 -543 l 6669 -543 l 6669 -553 l 6660 -553 l 6660 -557 l 6660 -561 l 6651 -561 l 6642 -561 l 6642 -564 l 6642 -565 l 6640 -565 l 6638 -565 l 6638 -564 l 6638 -561 l 6626 -561 l 6615 -561 l 6615 -564 l 6615 -565 l 6613 -565 l 6610 -565 l 6610 -568 l 6610 -571 l 6613 -571 l 6615 -571 l 6615 -568 l 6615 -565 l 6619 -565 l 6624 -565 l 6624 -568 l 6624 -571 l 6621 -571 l 6618 -571 l 6618 -574 l 6618 -575 l 6614 -575 l 6610 -575 l 6610 -574 m 6632 -574 l 6632 -571 l 6635 -571 l 6638 -571 l 6638 -574 l 6638 -575 l 6635 -575 l 6632 -575 l 6632 -574 m 6707 -578 l 6707 -575 l 6701 -575 l 6697 -575 l 6697 -578 l 6697 -581 l 6701 -581 l 6707 -581 l 6707 -578 m 6711 -568 l 6711 -565 l 6708 -565 l 6707 -565 l 6707 -568 l 6707 -571 l 6708 -571 l 6711 -571 l 6711 -568 m 6790 -568 l 6790 -565 l 6788 -565 l 6785 -565 l 6785 -568 l 6785 -571 l 6788 -571 l 6790 -571 l 6790 -568 m 6743 -564 l 6743 -561 l 6746 -561 l 6749 -561 l 6749 -560 l 6749 -557 l 6740 -557 l 6740 -565 l 6742 -565 l 6743 -565 l 6743 -564 m 6768 -560 l 6768 -557 l 6763 -557 l 6757 -557 l 6757 -560 l 6757 -561 l 6763 -561 l 6768 -561 l 6768 -560 m 6831 -560 l 6831 -557 l 6826 -557 l 6822 -557 l 6822 -560 l 6822 -561 l 6826 -561 l 6831 -561 l 6831 -560 m 6815 -549 l 6808 -549 l 6808 -553 l 6808 -557 l 6813 -557 l 6815 -557 l 6815 -549 m 6776 -550 l 6776 -549 l 6772 -549 l 6768 -549 l 6768 -550 l 6768 -551 l 6772 -551 l 6776 -551 l 6776 -550 m 6790 -547 l 6790 -543 l 6788 -543 l 6785 -543 l 6785 -540 l 6785 -537 l 6790 -537 l 6794 -537 l 6794 -543 l 6794 -549 l 6796 -549 l 6799 -549 l 6799 -543 l 6799 -537 l 6796 -537 l 6794 -537 l 6794 -533 l 6794 -529 l 6796 -529 l 6799 -529 l 6799 -526 l 6799 -524 l 6792 -524 l 6785 -524 l 6785 -526 l 6785 -529 l 6788 -529 l 6790 -529 l 6790 -532 l 6790 -535 l 6788 -535 l 6785 -535 l 6785 -536 l 6785 -537 l 6782 -537 l 6779 -537 l 6779 -536 l 6779 -535 l 6775 -535 l 6771 -535 l 6771 -536 l 6771 -537 l 6775 -537 l 6779 -537 l 6779 -544 l 6779 -551 l 6785 -551 l 6790 -551 l 6790 -547 m 6754 -540 l 6754 -537 l 6751 -537 l 6749 -537 l 6749 -540 l 6749 -543 l 6751 -543 l 6754 -543 l 6754 -540 m 6813 -539 l 6813 -535 l 6811 -535 l 6808 -535 l 6808 -539 l 6808 -543 l 6811 -543 l 6813 -543 l 6813 -539 m 6842 -532 l 6842 -529 l 6836 -529 l 6831 -529 l 6831 -532 l 6831 -535 l 6836 -535 l 6842 -535 l 6842 -532 m 6526 -518 l 6526 -515 l 6525 -515 l 6522 -515 l 6522 -518 l 6522 -521 l 6525 -521 l 6526 -521 l 6526 -518 m 6878 -511 l 6878 -507 l 6875 -507 l 6874 -507 l 6874 -511 l 6874 -515 l 6875 -515 l 6878 -515 l 6878 -511 m 6836 -499 l 6836 -497 l 6832 -497 l 6828 -497 l 6828 -499 l 6828 -501 l 6832 -501 l 6836 -501 l 6836 -499 m 6799 -490 l 6799 -487 l 6796 -487 l 6794 -487 l 6794 -490 l 6794 -493 l 6796 -493 l 6799 -493 l 6799 -490 m 6828 -485 l 6828 -483 l 6825 -483 l 6822 -483 l 6822 -485 l 6822 -487 l 6825 -487 l 6828 -487 l 6828 -485 m 6844 -476 l 6844 -474 l 6838 -474 l 6831 -474 l 6831 -476 l 6831 -478 l 6838 -478 l 6844 -478 l 6844 -476 m 6813 -471 l 6813 -469 l 6811 -469 l 6808 -469 l 6808 -471 l 6808 -474 l 6811 -474 l 6813 -474 l 6813 -471 m 6768 -467 l 6768 -464 l 6769 -464 l 6771 -464 l 6771 -467 l 6771 -469 l 6775 -469 l 6779 -469 l 6779 -461 l 6771 -461 l 6771 -458 l 6771 -456 l 6769 -456 l 6768 -456 l 6768 -458 l 6768 -461 l 6765 -461 l 6763 -461 l 6763 -465 l 6763 -469 l 6765 -469 l 6768 -469 l 6768 -467 m 6822 -467 l 6822 -464 l 6825 -464 l 6828 -464 l 6828 -457 l 6828 -450 l 6825 -450 l 6822 -450 l 6822 -453 l 6822 -456 l 6819 -456 l 6817 -456 l 6817 -462 l 6817 -469 l 6819 -469 l 6822 -469 l 6822 -467 m 6757 -458 l 6757 -456 l 6760 -456 l 6763 -456 l 6763 -453 l 6763 -450 l 6754 -450 l 6754 -442 l 6751 -442 l 6749 -442 l 6749 -439 l 6749 -436 l 6746 -436 l 6743 -436 l 6743 -439 l 6743 -442 l 6742 -442 l 6740 -442 l 6740 -439 l 6740 -436 l 6732 -436 l 6725 -436 l 6725 -439 l 6725 -442 l 6729 -442 l 6735 -442 l 6735 -444 l 6735 -447 l 6739 -447 l 6743 -447 l 6743 -449 l 6743 -450 l 6746 -450 l 6749 -450 l 6749 -456 l 6749 -461 l 6753 -461 l 6757 -461 l 6757 -458 m 6804 -458 l 6804 -456 l 6801 -456 l 6799 -456 l 6799 -458 l 6799 -461 l 6801 -461 l 6804 -461 l 6804 -458 m 6836 -458 l 6836 -456 l 6833 -456 l 6831 -456 l 6831 -458 l 6831 -461 l 6833 -461 l 6836 -461 l 6836 -458 m 6790 -444 l 6790 -442 l 6788 -442 l 6785 -442 l 6785 -444 l 6785 -447 l 6788 -447 l 6790 -447 l 6790 -444 m 6779 -439 l 6779 -436 l 6778 -436 l 6776 -436 l 6776 -439 l 6776 -442 l 6778 -442 l 6779 -442 l 6779 -439 m 6717 -431 l 6717 -428 l 6721 -428 l 6725 -428 l 6725 -431 l 6725 -432 l 6728 -432 l 6729 -432 l 6729 -431 l 6729 -428 l 6728 -428 l 6725 -428 l 6725 -425 l 6725 -422 l 6721 -422 l 6717 -422 l 6717 -421 l 6717 -418 l 6711 -418 l 6707 -418 l 6707 -415 l 6707 -414 l 6701 -414 l 6697 -414 l 6697 -411 l 6697 -410 l 6694 -410 l 6692 -410 l 6692 -411 l 6692 -414 l 6686 -414 l 6679 -414 l 6679 -411 l 6679 -410 l 6676 -410 l 6675 -410 l 6675 -414 l 6675 -418 l 6682 -418 l 6689 -418 l 6689 -421 l 6689 -422 l 6693 -422 l 6697 -422 l 6697 -425 l 6697 -428 l 6700 -428 l 6703 -428 l 6703 -425 l 6703 -422 l 6704 -422 l 6707 -422 l 6707 -425 l 6707 -428 l 6708 -428 l 6711 -428 l 6711 -431 l 6711 -432 l 6714 -432 l 6717 -432 l 6717 -431 m 6757 -428 l 6757 -422 l 6756 -422 l 6754 -422 l 6754 -428 l 6754 -432 l 6756 -432 l 6757 -432 l 6757 -428 m 6779 -431 l 6779 -428 l 6778 -428 l 6776 -428 l 6776 -431 l 6776 -432 l 6778 -432 l 6779 -432 l 6779 -431 m 6592 -418 l 6592 -414 l 6590 -414 l 6588 -414 l 6588 -418 l 6588 -422 l 6590 -422 l 6592 -422 l 6592 -418 m 6582 -415 l 6582 -414 l 6579 -414 l 6578 -414 l 6578 -415 l 6578 -418 l 6579 -418 l 6582 -418 l 6582 -415 m 6604 -417 l 6604 -414 l 6604 -410 l 6604 -407 l 6604 -404 l 6603 -404 l 6601 -404 l 6601 -407 l 6601 -410 l 6599 -410 l 6596 -410 l 6596 -411 l 6596 -414 l 6599 -414 l 6601 -414 l 6601 -415 l 6601 -418 l 6603 -418 l 6604 -418 l 6604 -417 m 6629 -411 l 6629 -404 l 6624 -404 l 6618 -404 l 6618 -407 l 6618 -410 l 6614 -410 l 6610 -410 l 6610 -414 l 6610 -418 l 6619 -418 l 6629 -418 l 6629 -411 m 6646 -415 l 6646 -414 l 6643 -414 l 6642 -414 l 6642 -415 l 6642 -418 l 6643 -418 l 6646 -418 l 6646 -415 m 6669 -417 l 6669 -410 l 6664 -410 l 6658 -410 l 6651 -410 l 6651 -412 l 6656 -412 l 6656 -415 l 6656 -418 l 6663 -418 l 6669 -418 l 6669 -417 m 6740 -415 l 6740 -414 l 6738 -414 l 6735 -414 l 6735 -415 l 6735 -418 l 6738 -418 l 6740 -418 l 6740 -415 m 6656 -401 l 6656 -399 l 6654 -399 l 6651 -399 l 6651 -401 l 6651 -404 l 6654 -404 l 6656 -404 l 6656 -401 m 6646 -397 l 6646 -396 l 6643 -396 l 6642 -396 l 6642 -393 l 6642 -390 l 6643 -390 l 6646 -390 l 6646 -387 l 6646 -385 l 6642 -385 l 6638 -385 l 6638 -387 l 6638 -390 l 6635 -390 l 6632 -390 l 6632 -393 l 6632 -396 l 6638 -396 l 6642 -396 l 6642 -397 l 6642 -399 l 6643 -399 l 6646 -399 l 6646 -397 m 6568 -393 l 6568 -390 l 6565 -390 l 6564 -390 l 6564 -393 l 6564 -396 l 6565 -396 l 6568 -396 l 6568 -393 m 6656 -393 l 6656 -390 l 6654 -390 l 6651 -390 l 6651 -393 l 6651 -396 l 6654 -396 l 6656 -396 l 6656 -393 m 6522 -387 l 6522 -385 l 6519 -385 l 6517 -385 l 6517 -383 l 6517 -381 l 6513 -381 l 6513 -385 l 6514 -385 l 6517 -385 l 6517 -387 l 6517 -390 l 6519 -390 l 6522 -390 l 6522 -387 m 6544 -387 l 6544 -385 l 6543 -385 l 6542 -385 l 6542 -387 l 6542 -390 l 6543 -390 l 6544 -390 l 6544 -387 m 6618 -387 l 6618 -385 l 6617 -385 l 6615 -385 l 6615 -387 l 6615 -390 l 6617 -390 l 6618 -390 l 6618 -387 m 6536 -383 l 6536 -382 l 6540 -382 l 6544 -382 l 6544 -379 l 6544 -376 l 6543 -376 l 6542 -376 l 6542 -374 l 6542 -371 l 6550 -371 l 6558 -371 l 6558 -374 l 6558 -376 l 6554 -376 l 6550 -376 l 6550 -379 l 6550 -382 l 6557 -382 l 6564 -382 l 6564 -379 l 6564 -376 l 6565 -376 l 6568 -376 l 6568 -374 l 6568 -371 l 6563 -371 l 6558 -371 l 6558 -369 l 6558 -368 l 6557 -368 l 6554 -368 l 6554 -365 l 6554 -362 l 6551 -362 l 6550 -362 l 6550 -365 l 6550 -368 l 6543 -368 l 6536 -368 l 6536 -369 l 6536 -371 l 6526 -371 l 6517 -371 l 6517 -374 l 6517 -376 l 6519 -376 l 6522 -376 l 6522 -379 l 6522 -382 l 6525 -382 l 6526 -382 l 6526 -379 l 6526 -376 l 6529 -376 l 6531 -376 l 6531 -381 l 6531 -385 l 6533 -385 l 6536 -385 l 6536 -383 m 6574 -379 l 6574 -376 l 6571 -376 l 6568 -376 l 6568 -379 l 6568 -382 l 6571 -382 l 6574 -382 l 6574 -379 m 6588 -374 l 6588 -371 l 6582 -371 l 6578 -371 l 6578 -374 l 6578 -376 l 6582 -376 l 6588 -376 l 6588 -374 m 6601 -374 l 6601 -371 l 6599 -371 l 6596 -371 l 6596 -368 l 6592 -368 l 6592 -372 l 6592 -376 l 6596 -376 l 6601 -376 l 6601 -374 m 6504 -365 l 6504 -362 l 6501 -362 l 6499 -362 l 6499 -365 l 6499 -368 l 6501 -368 l 6504 -368 l 6504 -365 m 6531 -358 l 6531 -354 l 6529 -354 l 6526 -354 l 6526 -357 l 6526 -360 l 6525 -360 l 6522 -360 l 6522 -361 l 6522 -362 l 6526 -362 l 6531 -362 l 6531 -358 m 6542 -361 l 6542 -360 l 6539 -360 l 6536 -360 l 6536 -361 l 6536 -362 l 6539 -362 l 6542 -362 l 6542 -361 m 6558 -343 l 6558 -340 l 6557 -340 l 6554 -340 l 6554 -343 l 6554 -344 l 6557 -344 l 6558 -344 l 6558 -343 m 6689 -637 l 6689 -636 l 6693 -636 l 6697 -636 l 6697 -637 l 6697 -640 l 6693 -640 l 6689 -640 l 6689 -637 m 6707 -637 l 6707 -636 l 6708 -636 l 6711 -636 l 6711 -637 l 6711 -640 l 6708 -640 l 6707 -640 l 6707 -637 m 6582 -633 l 6582 -631 l 6585 -631 l 6588 -631 l 6588 -633 l 6588 -636 l 6585 -636 l 6582 -636 l 6582 -633 m 6660 -619 l 6660 -617 l 6663 -617 l 6665 -617 l 6665 -619 l 6665 -622 l 6663 -622 l 6660 -622 l 6660 -619 m 6763 -604 l 6763 -599 l 6774 -599 l 6776 -599 l 6776 -601 l 6776 -603 l 6774 -603 l 6771 -603 l 6771 -606 l 6771 -608 l 6767 -608 l 6763 -608 l 6763 -604 m 6785 -592 l 6785 -589 l 6788 -589 l 6790 -589 l 6790 -592 l 6790 -594 l 6788 -594 l 6785 -594 l 6785 -592 m 6813 -571 l 6811 -571 l 6808 -571 l 6808 -568 l 6808 -565 l 6811 -565 l 6813 -565 l 6813 -568 l 6813 -571 m 6383 -560 l 6383 -557 l 6386 -557 l 6389 -557 l 6389 -560 l 6389 -561 l 6386 -561 l 6383 -561 l 6383 -560 m 6882 -532 l 6882 -529 l 6885 -529 l 6888 -529 l 6888 -532 l 6888 -535 l 6885 -535 l 6882 -535 l 6882 -532 m 6874 -526 l 6874 -524 l 6875 -524 l 6878 -524 l 6878 -526 l 6878 -529 l 6875 -529 l 6874 -529 l 6874 -526 m 6901 -518 l 6901 -515 l 6903 -515 l 6904 -515 l 6904 -518 l 6904 -521 l 6903 -521 l 6901 -521 l 6901 -518 m 6868 -485 l 6868 -483 l 6871 -483 l 6874 -483 l 6874 -481 l 6874 -478 l 6875 -478 l 6878 -478 l 6878 -481 l 6878 -483 l 6875 -483 l 6874 -483 l 6874 -485 l 6874 -487 l 6871 -487 l 6868 -487 l 6868 -485 m 6868 -471 l 6868 -469 l 6871 -469 l 6874 -469 l 6874 -471 l 6874 -474 l 6871 -474 l 6868 -474 l 6868 -471 m 6808 -431 l 6808 -428 l 6811 -428 l 6813 -428 l 6813 -431 l 6813 -432 l 6811 -432 l 6808 -432 l 6808 -431 m 6757 -401 l 6757 -399 l 6760 -399 l 6763 -399 l 6763 -401 l 6763 -404 l 6760 -404 l 6757 -404 l 6757 -401 m 6574 -332 l 6574 -331 l 6571 -331 l 6568 -331 l 6568 -328 l 6568 -326 l 6574 -326 l 6578 -326 l 6578 -324 l 6578 -321 l 6585 -321 l 6592 -321 l 6592 -324 l 6592 -326 l 6593 -326 l 6596 -326 l 6596 -324 l 6596 -321 l 6599 -321 l 6601 -321 l 6601 -324 l 6601 -326 l 6599 -326 l 6596 -326 l 6596 -328 l 6596 -331 l 6593 -331 l 6592 -331 l 6592 -328 l 6592 -326 l 6588 -326 l 6582 -326 l 6582 -329 l 6582 -335 l 6576 -335 l 6574 -335 l 6574 -332 m 6610 -332 l 6610 -331 l 6613 -331 l 6615 -331 l 6615 -332 l 6615 -335 l 6613 -335 l 6610 -335 l 6610 -332 m 11742 -1607 l 11743 -1607 l 11744 -1607 q 12008 -1726 11890 -1607 q 11885 -1823 11947 -1787 q 11747 -1858 11822 -1858 l 11743 -1858 l 11738 -1858 q 11601 -1823 11664 -1858 q 11478 -1726 11538 -1787 q 11742 -1607 11594 -1607 m 11742 -1633 q 11517 -1726 11626 -1633 q 11535 -1743 11528 -1736 q 11631 -1687 11581 -1708 q 11742 -1665 11681 -1665 l 11743 -1665 l 11744 -1665 q 11855 -1687 11806 -1665 q 11951 -1743 11904 -1708 q 11969 -1726 11958 -1736 q 11744 -1633 11858 -1633 l 11743 -1633 l 11742 -1633 m 11788 -1715 q 11779 -1706 11788 -1715 q 11743 -1696 11769 -1696 q 11698 -1715 11717 -1696 q 11679 -1761 11679 -1735 q 11698 -1806 11679 -1787 q 11743 -1825 11717 -1825 q 11788 -1806 11769 -1825 q 11807 -1761 11807 -1787 q 11788 -1715 11807 -1735 m 11674 -1701 q 11556 -1760 11617 -1717 q 11675 -1821 11615 -1806 q 11651 -1761 11651 -1796 q 11674 -1701 11651 -1729 m 11811 -1701 q 11833 -1761 11835 -1729 q 11810 -1821 11833 -1796 q 11929 -1760 11871 -1806 q 11811 -1701 11869 -1717 m 11713 -1732 q 11719 -1726 11713 -1732 q 11743 -1721 11725 -1721 q 11773 -1732 11761 -1721 q 11785 -1762 11785 -1743 q 11772 -1792 11785 -1779 q 11743 -1804 11760 -1804 q 11713 -1792 11725 -1804 q 11701 -1762 11701 -1779 q 11713 -1732 11700 -1743 m 11743 -1747 q 11732 -1751 11736 -1747 q 11728 -1762 11728 -1756 q 11732 -1772 11728 -1768 q 11743 -1776 11736 -1776 q 11754 -1772 11750 -1776 q 11758 -1762 11758 -1768 q 11754 -1751 11758 -1756 q 11743 -1747 11750 -1747 m 2115 1271 l 2117 1271 l 2119 1271 q 2383 1151 2265 1271 q 2260 1055 2322 1090 q 2122 1019 2197 1019 l 2117 1019 l 2113 1019 q 1975 1055 2038 1019 q 1851 1151 1913 1090 q 2115 1271 1969 1271 m 2115 1244 q 1892 1151 2001 1244 q 1908 1135 1903 1140 q 2006 1191 1956 1169 q 2115 1213 2056 1213 l 2117 1213 l 2119 1213 q 2229 1191 2179 1213 q 2325 1135 2279 1169 q 2343 1151 2332 1140 q 2119 1244 2233 1244 l 2117 1244 l 2115 1244 m 2163 1163 q 2153 1172 2163 1163 q 2117 1182 2144 1182 q 2072 1163 2090 1182 q 2053 1117 2053 1143 q 2072 1072 2053 1090 q 2117 1053 2090 1053 q 2163 1072 2144 1053 q 2181 1117 2181 1090 q 2163 1163 2181 1143 m 2049 1176 q 1931 1118 1992 1161 q 2050 1057 1989 1072 q 2026 1117 2026 1082 q 2049 1176 2026 1149 m 2186 1176 q 2208 1117 2208 1149 q 2185 1057 2208 1082 q 2304 1118 2244 1072 q 2186 1176 2243 1161 m 2087 1146 q 2093 1151 2087 1146 q 2117 1157 2099 1157 q 2148 1146 2136 1157 q 2160 1115 2160 1135 q 2147 1086 2160 1099 q 2117 1074 2135 1074 q 2088 1086 2100 1074 q 2075 1115 2075 1099 q 2087 1146 2075 1135 m 2117 1131 q 2107 1126 2111 1131 q 2103 1116 2103 1122 q 2107 1106 2103 1110 q 2117 1101 2111 1101 q 2128 1106 2124 1101 q 2132 1116 2132 1110 q 2128 1126 2132 1122 q 2117 1131 2124 1131 m 699 -179 l 376 -179 l 538 0 l 699 -179 m 699 -342 l 376 -342 l 376 -236 l 699 -236 l 699 -342 m 200 0 l 200 844 l 10 844 l 10 1026 l 581 1026 l 581 844 l 390 844 l 390 0 l 200 0 z "},"U":{"ha":889,"x_min":94,"x_max":788,"o":"m 94 1026 l 285 1026 l 285 376 q 310 235 285 278 q 442 165 353 165 q 572 235 529 165 q 597 376 597 278 l 597 1026 l 788 1026 l 788 376 q 718 114 788 207 q 598 17 672 53 q 440 -18 524 -18 q 272 23 350 -18 q 150 135 194 64 q 94 376 94 224 l 94 1026 z "},"V":{"ha":972,"x_min":11,"x_max":964,"o":"m 411 0 l 11 1026 l 211 1026 l 488 246 l 764 1026 l 964 1026 l 567 0 l 411 0 z "},"W":{"ha":1250,"x_min":10,"x_max":1247,"o":"m 311 0 l 10 1026 l 204 1026 l 385 310 l 560 1026 l 699 1026 l 871 310 l 1053 1026 l 1247 1026 l 947 0 l 796 0 l 631 679 l 461 0 l 311 0 z "},"X":{"ha":944,"x_min":7,"x_max":939,"o":"m 7 0 l 360 511 l 7 1026 l 233 1026 l 472 668 l 718 1026 l 939 1026 l 583 511 l 939 0 l 718 0 l 472 354 l 233 0 l 7 0 z "},"Y":{"ha":861,"x_min":4,"x_max":869,"o":"m 342 0 l 342 379 l 4 1026 l 210 1026 l 438 554 l 664 1026 l 869 1026 l 532 379 l 532 0 l 342 0 z "},"Z":{"ha":694,"x_min":25,"x_max":667,"o":"m 25 161 l 414 844 l 46 844 l 46 1026 l 640 1026 l 640 856 l 254 182 l 667 182 l 667 0 l 25 0 l 25 161 z "},"[":{"ha":444,"x_min":103,"x_max":406,"o":"m 406 1026 l 406 822 q 318 749 339 794 q 290 582 290 686 l 290 228 q 318 86 290 144 q 406 14 342 38 l 406 -190 q 269 -134 324 -171 q 171 -32 214 -97 q 103 260 103 75 l 103 619 q 208 919 103 808 q 288 981 246 958 q 406 1026 331 1004 z "},"\\":{"ha":889,"x_min":117,"x_max":699,"o":"m 699 0 l 568 0 l 117 1026 l 247 1026 l 699 0 z "},"]":{"ha":444,"x_min":51,"x_max":354,"o":"m 51 -190 l 51 14 q 139 88 118 42 q 167 254 167 150 l 167 608 q 139 750 167 692 q 51 822 117 796 l 51 1026 q 190 970 135 1007 q 286 868 244 933 q 354 576 354 761 l 354 217 q 249 -83 354 28 q 51 -190 182 -153 z "},"^":{"ha":833,"x_min":88,"x_max":754,"o":"m 232 435 l 88 504 l 336 1026 l 506 1026 l 754 504 l 610 435 l 421 818 l 232 435 z "},"_":{"ha":694,"x_min":0,"x_max":694,"o":"m 0 -67 l 694 -67 l 694 -192 l 0 -192 l 0 -67 z "},"`":{"ha":583,"x_min":103,"x_max":490,"o":"m 103 1024 l 182 1146 l 490 961 l 417 851 l 103 1024 z "},"a":{"ha":917,"x_min":42,"x_max":12578,"o":"m 854 769 l 854 0 l 685 0 l 685 100 q 569 10 629 38 q 429 -18 510 -18 q 151 95 261 -18 q 42 382 42 208 q 152 673 42 558 q 433 788 263 788 q 685 667 593 788 l 685 769 l 854 769 m 615 551 q 583 585 615 551 q 453 618 551 618 q 291 551 354 618 q 228 378 228 483 q 291 214 228 276 q 456 151 354 151 q 624 221 565 151 q 679 379 679 286 q 615 551 679 485 m 8778 -533 l 8778 -526 q 8779 -507 8778 -519 q 8785 -482 8782 -497 q 8795 -454 8788 -468 q 8814 -428 8803 -440 q 8843 -410 8825 -417 q 8883 -403 8861 -403 q 8920 -410 8903 -403 q 8950 -429 8938 -417 q 8970 -458 8963 -442 q 8979 -493 8978 -475 q 8974 -533 8981 -511 q 8951 -575 8967 -556 l 8778 -806 l 8778 -533 m 8756 -533 l 8756 -806 l 8582 -575 q 8560 -533 8567 -556 q 8556 -493 8554 -511 q 8565 -458 8557 -475 q 8585 -429 8572 -442 q 8614 -410 8597 -417 q 8650 -403 8631 -403 q 8691 -410 8672 -403 q 8720 -428 8710 -417 q 8739 -454 8731 -440 q 8750 -482 8747 -468 q 8754 -508 8753 -496 q 8756 -526 8756 -519 l 8756 -533 m 2800 1960 l 2800 1967 q 2802 1985 2800 1974 q 2807 2011 2804 1997 q 2817 2039 2810 2025 q 2836 2065 2825 2053 q 2865 2083 2847 2076 q 2907 2089 2883 2089 q 2943 2083 2926 2089 q 2972 2064 2960 2076 q 2992 2035 2985 2051 q 3001 2000 3000 2018 q 2996 1960 3003 1982 q 2975 1917 2989 1938 l 2800 1688 l 2800 1960 m 2779 1960 l 2779 1688 l 2606 1917 q 2583 1960 2590 1938 q 2578 2000 2576 1982 q 2587 2035 2579 2018 q 2607 2064 2594 2051 q 2637 2083 2619 2076 q 2672 2089 2654 2089 q 2714 2083 2696 2089 q 2743 2065 2732 2076 q 2762 2039 2754 2053 q 2772 2011 2769 2025 q 2777 1985 2775 1997 q 2779 1967 2779 1974 l 2779 1960 m 12364 1064 q 12356 1077 12364 1075 q 12321 1079 12349 1079 q 12246 1086 12310 1079 l 12204 1031 l 12176 1028 l 12194 1093 l 12175 1100 l 12194 1107 l 12176 1172 l 12204 1168 l 12246 1114 l 12265 1115 q 12296 1118 12279 1117 q 12325 1119 12313 1119 l 12343 1121 q 12364 1135 12364 1121 q 12365 1139 12364 1136 q 12365 1143 12365 1142 q 12351 1189 12365 1158 l 12303 1300 l 12324 1300 q 12335 1297 12332 1300 q 12346 1283 12339 1294 l 12368 1253 l 12401 1253 q 12406 1250 12404 1253 q 12408 1244 12408 1247 q 12406 1238 12408 1240 q 12401 1235 12404 1235 l 12383 1235 l 12411 1196 l 12444 1196 q 12449 1193 12446 1196 q 12451 1188 12451 1190 q 12449 1181 12451 1183 q 12443 1178 12446 1178 l 12426 1178 l 12468 1122 l 12472 1122 l 12511 1119 q 12578 1100 12578 1117 q 12552 1084 12578 1089 q 12468 1078 12526 1079 l 12426 1022 l 12443 1022 q 12449 1019 12446 1022 q 12451 1013 12451 1017 q 12449 1006 12451 1008 q 12444 1003 12447 1003 l 12411 1003 l 12383 964 l 12401 964 q 12406 961 12404 964 q 12408 956 12408 958 q 12406 949 12408 951 q 12401 946 12404 946 l 12368 946 l 12346 915 q 12335 903 12339 906 q 12324 900 12331 900 l 12303 900 l 12351 1010 q 12364 1064 12364 1058 m 4603 1828 q 4614 1825 4608 1828 q 4611 1817 4611 1822 q 4625 1817 4617 1819 q 4639 1808 4633 1815 q 4633 1808 4639 1808 l 4628 1808 l 4635 1799 l 4625 1792 l 4624 1785 q 4618 1781 4622 1783 q 4611 1778 4614 1779 q 4604 1778 4608 1778 q 4610 1769 4610 1774 q 4605 1765 4608 1768 q 4600 1763 4601 1763 q 4628 1774 4615 1769 q 4697 1789 4663 1786 q 4735 1784 4713 1790 q 4767 1772 4757 1778 q 4793 1753 4783 1764 q 4769 1750 4771 1750 q 4753 1760 4764 1753 q 4738 1771 4743 1768 l 4753 1757 q 4725 1775 4733 1768 q 4729 1766 4726 1772 q 4733 1757 4732 1760 q 4726 1763 4731 1760 q 4717 1767 4721 1765 q 4710 1772 4713 1769 q 4713 1760 4710 1767 q 4703 1767 4707 1761 q 4692 1760 4697 1764 q 4684 1759 4689 1760 q 4676 1758 4679 1758 q 4706 1738 4692 1751 q 4722 1700 4719 1722 q 4713 1713 4717 1706 q 4708 1706 4710 1710 l 4711 1704 q 4734 1683 4722 1697 q 4753 1658 4746 1669 q 4750 1661 4751 1658 l 4747 1663 q 4753 1642 4753 1654 q 4744 1646 4750 1644 q 4744 1643 4744 1646 l 4747 1638 l 4744 1626 q 4735 1629 4739 1626 l 4726 1629 l 4733 1621 q 4725 1615 4731 1617 l 4722 1618 q 4717 1615 4721 1615 l 4713 1621 q 4713 1614 4713 1618 q 4703 1615 4708 1613 q 4701 1629 4703 1622 q 4699 1615 4700 1619 q 4688 1619 4694 1617 q 4688 1628 4688 1621 q 4688 1636 4688 1635 q 4676 1636 4681 1635 q 4674 1656 4674 1642 q 4671 1644 4671 1650 l 4669 1646 q 4671 1618 4671 1632 q 4669 1623 4669 1619 q 4667 1629 4668 1626 q 4660 1619 4665 1622 q 4647 1656 4651 1638 q 4647 1663 4647 1660 q 4644 1668 4646 1665 q 4642 1672 4643 1671 q 4638 1672 4640 1672 l 4638 1674 l 4636 1674 q 4636 1669 4636 1674 q 4633 1665 4635 1667 q 4632 1679 4632 1674 l 4631 1681 l 4625 1675 q 4635 1650 4628 1660 q 4649 1627 4642 1639 q 4669 1599 4657 1615 q 4699 1571 4682 1585 l 4825 1469 q 4932 1360 4892 1414 q 4972 1311 4954 1329 l 4924 1311 q 4851 1413 4894 1371 q 4769 1486 4814 1449 l 4729 1521 q 4664 1579 4675 1568 q 4611 1643 4635 1608 q 4608 1647 4610 1644 q 4607 1646 4608 1647 l 4610 1639 l 4610 1638 q 4632 1596 4624 1606 l 4604 1628 l 4606 1625 q 4618 1568 4614 1603 q 4613 1561 4615 1564 q 4613 1554 4613 1557 q 4609 1553 4611 1554 q 4606 1550 4607 1551 q 4610 1539 4608 1547 q 4601 1535 4604 1538 q 4594 1525 4600 1531 q 4590 1535 4594 1529 q 4583 1533 4588 1533 q 4581 1539 4583 1535 q 4579 1544 4579 1543 q 4572 1547 4576 1546 q 4571 1564 4572 1557 q 4563 1564 4568 1564 q 4568 1575 4565 1571 l 4560 1576 q 4560 1585 4560 1579 q 4561 1593 4560 1593 q 4557 1596 4560 1594 q 4553 1599 4554 1597 q 4556 1607 4556 1603 l 4547 1621 q 4553 1643 4553 1628 q 4560 1657 4557 1653 q 4554 1671 4560 1658 q 4556 1686 4556 1676 l 4547 1690 q 4553 1676 4550 1682 q 4542 1694 4546 1685 q 4549 1671 4549 1672 q 4544 1679 4546 1675 l 4544 1665 q 4539 1663 4540 1664 q 4539 1661 4539 1663 q 4539 1663 4539 1661 q 4533 1657 4535 1658 q 4538 1644 4533 1654 q 4542 1631 4542 1633 q 4538 1626 4542 1629 q 4533 1622 4535 1624 q 4533 1617 4533 1619 q 4534 1613 4533 1615 q 4535 1607 4535 1610 l 4531 1606 q 4525 1606 4528 1604 q 4519 1601 4522 1604 l 4518 1599 q 4520 1592 4519 1596 q 4521 1583 4521 1588 q 4522 1575 4521 1578 l 4517 1579 q 4515 1568 4515 1575 q 4515 1558 4515 1561 l 4508 1564 l 4513 1556 l 4508 1553 q 4504 1544 4508 1553 q 4501 1545 4503 1544 q 4499 1546 4500 1546 q 4499 1544 4499 1546 q 4499 1539 4499 1542 q 4492 1540 4494 1539 q 4486 1556 4490 1547 l 4486 1550 q 4485 1543 4485 1546 q 4483 1548 4483 1544 q 4481 1553 4482 1551 q 4476 1543 4476 1547 q 4473 1551 4475 1546 q 4469 1560 4471 1557 l 4467 1553 q 4467 1568 4465 1558 q 4468 1582 4468 1578 l 4467 1583 q 4464 1585 4465 1585 q 4474 1607 4465 1596 q 4469 1613 4472 1610 q 4467 1617 4467 1615 q 4469 1606 4469 1607 l 4464 1614 l 4464 1606 l 4463 1599 q 4456 1607 4460 1603 q 4461 1594 4458 1600 q 4457 1597 4461 1594 q 4451 1604 4453 1601 l 4456 1589 l 4451 1596 q 4454 1583 4454 1589 l 4446 1594 q 4447 1583 4446 1589 l 4440 1593 l 4444 1579 l 4438 1586 q 4439 1572 4436 1579 q 4435 1576 4438 1574 q 4431 1581 4432 1579 q 4428 1569 4431 1574 l 4424 1578 q 4424 1567 4424 1575 q 4424 1557 4424 1560 l 4421 1561 l 4419 1554 q 4415 1568 4417 1561 q 4431 1615 4418 1589 q 4448 1640 4435 1622 q 4468 1665 4461 1658 q 4496 1692 4481 1679 q 4500 1700 4499 1697 q 4497 1703 4500 1700 q 4494 1701 4496 1703 q 4497 1706 4496 1704 q 4496 1708 4496 1707 l 4493 1707 q 4490 1703 4493 1707 q 4486 1696 4488 1699 l 4486 1701 l 4486 1706 q 4476 1685 4479 1696 l 4475 1692 q 4474 1704 4474 1700 q 4469 1694 4472 1700 q 4465 1686 4467 1689 q 4468 1701 4465 1692 l 4458 1682 l 4458 1690 l 4458 1699 q 4449 1681 4451 1689 q 4449 1693 4447 1689 q 4436 1674 4439 1682 l 4433 1688 q 4421 1672 4424 1678 q 4421 1686 4419 1678 q 4417 1678 4419 1683 q 4413 1669 4414 1672 q 4414 1682 4413 1675 l 4407 1664 q 4407 1678 4406 1671 q 4399 1664 4401 1669 l 4397 1678 q 4395 1672 4396 1675 q 4394 1664 4394 1668 q 4394 1658 4394 1660 q 4390 1668 4392 1663 q 4388 1656 4388 1663 q 4386 1674 4385 1665 q 4379 1649 4386 1672 q 4376 1669 4378 1665 q 4374 1660 4375 1667 q 4372 1651 4372 1653 q 4372 1658 4372 1653 q 4371 1664 4372 1663 q 4365 1649 4365 1650 l 4367 1661 q 4365 1656 4365 1658 q 4363 1649 4364 1653 q 4361 1644 4363 1646 q 4362 1653 4363 1647 q 4361 1663 4361 1658 q 4375 1678 4363 1667 q 4397 1699 4388 1690 q 4463 1725 4421 1715 q 4460 1730 4461 1726 q 4458 1736 4458 1733 q 4453 1731 4456 1735 q 4450 1726 4451 1728 q 4449 1729 4450 1728 q 4429 1717 4440 1722 l 4438 1726 l 4425 1722 l 4431 1736 l 4418 1728 l 4425 1736 q 4415 1731 4422 1735 q 4404 1725 4408 1726 l 4410 1732 l 4400 1728 q 4394 1733 4397 1729 q 4389 1739 4392 1736 q 4428 1753 4401 1746 q 4435 1761 4431 1758 q 4421 1763 4426 1763 q 4446 1773 4428 1768 q 4483 1776 4464 1778 l 4489 1776 q 4485 1779 4488 1778 q 4493 1788 4492 1786 q 4488 1785 4492 1788 q 4479 1782 4483 1782 q 4475 1796 4476 1788 q 4464 1796 4471 1796 q 4461 1807 4464 1796 q 4456 1808 4460 1808 q 4450 1808 4451 1807 q 4451 1815 4450 1813 q 4463 1819 4456 1818 q 4464 1826 4463 1822 q 4481 1822 4464 1826 q 4503 1813 4496 1818 q 4504 1801 4503 1806 q 4506 1806 4504 1803 l 4506 1808 q 4512 1807 4507 1808 q 4518 1804 4517 1806 q 4515 1799 4517 1800 q 4519 1801 4518 1801 q 4536 1787 4524 1799 q 4551 1772 4549 1775 l 4553 1771 q 4554 1769 4554 1771 l 4553 1783 q 4558 1785 4554 1785 q 4563 1785 4561 1785 q 4561 1804 4563 1800 q 4568 1807 4564 1807 q 4575 1806 4572 1807 q 4583 1816 4578 1810 q 4590 1826 4589 1822 q 4603 1828 4599 1828 m 3364 -1953 l 3575 -1528 l 3788 -1953 l 3364 -1953 m 3410 -1922 l 3742 -1922 l 3575 -1590 l 3410 -1922 z "},"b":{"ha":917,"x_min":75,"x_max":886,"o":"m 75 0 l 75 1026 l 260 1026 l 260 699 q 368 774 313 751 q 499 797 424 797 q 775 681 664 797 q 886 390 886 564 q 796 117 886 233 q 511 -18 690 -18 q 365 8 425 -18 q 244 99 304 35 l 244 0 l 75 0 m 472 628 q 312 561 375 628 q 249 390 249 494 q 313 218 249 285 q 476 151 376 151 q 638 217 575 151 q 700 389 700 283 q 635 560 700 492 q 472 628 571 628 z "},"c":{"ha":889,"x_min":42,"x_max":6942,"o":"m 4378 -156 l 4339 -156 l 4167 256 l 4206 256 l 4378 -156 m 1450 917 l 1411 917 l 1239 1328 l 1278 1328 l 1450 917 m 6844 1428 l 6817 1331 l 6914 1356 l 6844 1283 l 6942 1256 l 6844 1225 l 6914 1153 l 6817 1178 l 6844 1081 l 6767 1153 l 6739 1054 l 6714 1153 l 6642 1081 l 6667 1178 l 6568 1153 l 6642 1225 l 6540 1256 l 6642 1283 l 6568 1356 l 6667 1331 l 6642 1428 l 6714 1356 l 6739 1456 l 6767 1356 l 6844 1428 m 539 554 l 511 457 l 608 482 l 539 410 l 636 382 l 539 351 l 608 279 l 511 304 l 539 207 l 461 279 l 433 181 l 408 279 l 336 207 l 361 304 l 263 279 l 336 351 l 235 382 l 336 410 l 263 482 l 361 457 l 336 554 l 408 482 l 433 582 l 461 482 l 539 554 m 936 -24 l 936 -43 l 961 -43 l 961 -24 l 936 -24 m 914 56 l 924 33 l 944 43 l 951 10 l 989 10 l 1004 -40 l 957 -117 l 1006 -178 l 1053 -164 l 1058 -172 l 1040 -179 l 1040 -185 l 1075 -181 l 1076 -190 l 1040 -194 l 1040 -199 l 1067 -204 l 1061 -212 l 1035 -207 l 985 -215 l 933 -168 l 900 -207 l 936 -244 l 1019 -242 l 1019 -257 l 975 -256 l 969 -261 l 1032 -269 l 1028 -282 l 958 -272 l 957 -275 l 996 -289 l 989 -300 l 919 -282 l 865 -289 l 657 -289 l 603 -243 l 603 -181 l 658 -103 l 792 -67 l 865 -22 l 851 32 l 872 25 l 881 47 l 897 32 l 914 56 m 626 253 l 835 253 q 687 53 786 124 q 453 -18 588 -18 q 162 99 282 -18 q 42 385 42 217 q 159 671 42 554 q 447 788 276 788 q 731 679 614 788 q 835 513 800 615 l 626 513 q 447 618 571 618 q 290 553 351 618 q 228 386 228 488 q 292 218 228 285 q 451 151 356 151 q 626 253 561 151 z "},"d":{"ha":917,"x_min":42,"x_max":851,"o":"m 851 1026 l 851 0 l 682 0 l 682 100 q 428 -18 578 -18 q 153 99 264 -18 q 42 386 42 215 q 153 678 42 558 q 426 797 265 797 q 667 701 579 797 l 667 1026 l 851 1026 m 453 628 q 293 560 358 628 q 228 394 228 493 q 294 222 228 292 q 457 151 360 151 q 616 220 551 151 q 681 389 681 289 q 615 559 681 490 q 453 628 550 628 z "},"e":{"ha":889,"x_min":42,"x_max":844,"o":"m 838 303 l 242 303 q 315 192 258 233 q 454 151 372 151 q 549 169 511 151 q 624 228 588 186 l 825 228 q 764 121 808 176 q 458 -18 643 -18 q 162 97 282 -18 q 42 382 42 213 q 160 669 42 551 q 447 788 278 788 q 732 670 619 788 q 844 374 844 553 q 838 303 844 336 m 236 465 l 663 465 q 590 578 644 539 q 450 618 535 618 q 236 465 282 618 z "},"f":{"ha":389,"x_min":14,"x_max":381,"o":"m 81 0 l 81 601 l 14 601 l 14 756 l 81 756 q 142 940 93 883 q 335 1026 213 1026 q 381 1024 358 1026 l 381 849 l 363 849 q 288 828 308 849 q 265 756 267 808 l 369 756 l 369 601 l 265 601 l 265 0 l 81 0 z "},"g":{"ha":917,"x_min":42,"x_max":849,"o":"m 672 769 l 849 769 l 849 146 q 771 -167 849 -65 q 450 -307 660 -307 q 205 -242 308 -307 q 54 -62 101 -178 l 264 -62 q 348 -126 304 -107 q 457 -144 392 -144 q 672 101 663 -144 q 559 10 618 38 q 419 -18 500 -18 q 148 97 254 -18 q 42 390 42 213 q 149 674 42 561 q 421 788 257 788 q 672 672 588 788 l 672 769 m 442 618 q 286 553 344 618 q 228 382 228 489 q 287 214 228 276 q 444 151 346 151 q 603 215 543 151 q 664 382 664 278 q 602 553 664 488 q 442 618 540 618 z "},"h":{"ha":833,"x_min":75,"x_max":757,"o":"m 75 0 l 75 1026 l 260 1026 l 260 717 q 456 789 340 789 q 706 667 626 789 q 757 435 757 589 l 757 0 l 572 0 l 572 393 q 538 566 572 514 q 422 618 503 618 q 286 544 328 618 q 260 390 260 497 l 260 0 l 75 0 z "},"i":{"ha":333,"x_min":75,"x_max":6633,"o":"m 535 -312 q 376 -256 438 -312 q 315 -114 315 -199 q 378 30 315 -26 q 539 86 442 86 q 699 29 636 86 q 761 -114 761 -28 q 698 -256 761 -200 q 535 -312 635 -312 m 693 -112 q 683 -49 693 -78 q 657 -2 674 -21 q 621 31 640 17 q 581 52 601 44 q 544 63 560 60 q 517 67 528 67 q 379 8 433 67 q 333 -111 333 -43 q 386 -240 333 -186 q 514 -293 439 -293 q 640 -240 588 -293 q 693 -112 693 -187 m 3167 392 l 2744 392 l 2744 461 l 3167 461 l 3167 392 m 3964 -975 l 3542 -975 l 3542 -906 l 3964 -906 l 3964 -975 m 5914 1008 l 5492 1008 l 5492 1356 l 5914 1356 l 5914 1008 m 6633 1008 l 6211 1008 l 6211 1217 l 6633 1217 l 6633 1008 m 5490 1008 l 5067 1008 l 5067 1078 l 5490 1078 l 5490 1008 m 75 0 l 75 769 l 260 769 l 260 0 l 75 0 m 75 853 l 75 1026 l 260 1026 l 260 853 l 75 853 z "},"j":{"ha":361,"x_min":24,"x_max":285,"o":"m 100 769 l 285 769 l 285 51 q 203 -190 285 -114 q 24 -257 132 -257 l 24 -78 q 88 -47 75 -68 q 100 56 100 -26 l 100 769 m 100 853 l 100 1026 l 285 1026 l 285 853 l 100 853 z "},"k":{"ha":806,"x_min":75,"x_max":771,"o":"m 75 0 l 75 1026 l 260 1026 l 260 407 l 506 769 l 726 769 l 451 393 l 771 0 l 522 0 l 260 360 l 260 0 l 75 0 z "},"l":{"ha":333,"x_min":75,"x_max":260,"o":"m 75 0 l 75 1026 l 260 1026 l 260 0 l 75 0 z "},"m":{"ha":1306,"x_min":75,"x_max":9897,"o":"m 4607 -835 l 4572 -835 l 4572 -869 l 4503 -869 l 4503 -835 l 4572 -835 l 4572 -800 l 4607 -800 l 4607 -835 m 4503 -765 l 4468 -765 l 4468 -731 l 4503 -731 l 4503 -765 m 4607 -765 l 4572 -765 l 4572 -731 l 4607 -731 l 4607 -765 m 4468 -904 l 4607 -904 l 4607 -939 l 4468 -939 l 4468 -904 m 4468 -904 l 4433 -904 l 4433 -869 l 4468 -869 l 4468 -904 m 4607 -904 l 4607 -869 l 4642 -869 l 4642 -904 l 4607 -904 m 4433 -869 l 4399 -869 l 4399 -835 l 4399 -800 l 4399 -765 l 4399 -731 l 4399 -696 l 4433 -696 l 4433 -731 l 4433 -765 l 4433 -800 l 4433 -835 l 4433 -869 m 4642 -869 l 4642 -835 l 4642 -800 l 4642 -765 l 4642 -731 l 4642 -696 l 4676 -696 l 4676 -731 l 4676 -765 l 4676 -800 l 4676 -835 l 4676 -869 l 4642 -869 m 4503 -835 l 4468 -835 l 4468 -800 l 4503 -800 l 4503 -835 m 4433 -696 l 4433 -661 l 4468 -661 l 4468 -696 l 4433 -696 m 4642 -696 l 4607 -696 l 4607 -661 l 4642 -661 l 4642 -696 m 4468 -661 l 4468 -626 l 4607 -626 l 4607 -661 l 4468 -661 m 971 -503 l 936 -503 l 936 -537 l 867 -537 l 867 -503 l 936 -503 l 936 -468 l 971 -468 l 971 -503 m 867 -433 l 832 -433 l 832 -399 l 867 -399 l 867 -433 m 971 -433 l 936 -433 l 936 -399 l 971 -399 l 971 -433 m 832 -572 l 971 -572 l 971 -607 l 832 -607 l 832 -572 m 832 -572 l 797 -572 l 797 -537 l 832 -537 l 832 -572 m 971 -572 l 971 -537 l 1006 -537 l 1006 -572 l 971 -572 m 797 -537 l 763 -537 l 763 -503 l 763 -468 l 763 -433 l 763 -399 l 763 -364 l 797 -364 l 797 -399 l 797 -433 l 797 -468 l 797 -503 l 797 -537 m 1006 -537 l 1006 -503 l 1006 -468 l 1006 -433 l 1006 -399 l 1006 -364 l 1040 -364 l 1040 -399 l 1040 -433 l 1040 -468 l 1040 -503 l 1040 -537 l 1006 -537 m 867 -503 l 832 -503 l 832 -468 l 867 -468 l 867 -503 m 797 -364 l 797 -329 l 832 -329 l 832 -364 l 797 -364 m 1006 -364 l 971 -364 l 971 -329 l 1006 -329 l 1006 -364 m 832 -329 l 832 -294 l 971 -294 l 971 -329 l 832 -329 m 4878 -615 l 4878 -337 l 5153 -476 l 4878 -615 m 9758 2025 l 9758 2007 l 9782 2007 l 9782 2025 l 9758 2025 m 9735 2106 l 9744 2082 l 9765 2093 l 9772 2058 l 9810 2058 l 9825 2008 l 9778 1933 l 9826 1872 l 9875 1886 l 9881 1876 l 9861 1869 l 9861 1864 l 9896 1869 l 9897 1858 l 9861 1856 l 9861 1851 l 9889 1846 l 9882 1838 l 9856 1842 l 9806 1833 l 9754 1881 l 9721 1842 l 9758 1806 l 9840 1808 l 9842 1793 l 9796 1794 l 9790 1789 l 9853 1781 l 9849 1768 l 9781 1778 l 9778 1775 l 9817 1761 l 9811 1749 l 9742 1768 l 9686 1761 l 9478 1761 l 9424 1807 l 9424 1869 l 9481 1947 l 9613 1983 l 9686 2028 l 9672 2081 l 9694 2074 l 9701 2097 l 9719 2081 l 9735 2106 m 1964 978 l 1964 1254 l 2239 1115 l 1964 978 m 75 0 l 75 769 l 244 769 l 244 697 q 331 767 285 746 q 444 788 376 788 q 671 668 596 788 q 918 788 761 788 q 1074 756 1004 788 q 1179 665 1143 724 q 1229 444 1229 586 l 1229 225 l 1278 200 l 1229 175 l 1229 0 l 1044 0 l 1044 83 l 1003 61 l 1003 339 l 1044 317 l 1044 422 q 1010 571 1044 531 q 900 618 971 618 q 771 544 808 618 q 744 379 744 496 l 744 0 l 560 0 l 560 422 q 528 569 560 528 q 410 618 488 618 q 279 539 314 618 q 275 526 276 533 l 494 417 l 260 299 l 260 0 l 75 0 z "},"n":{"ha":833,"x_min":75,"x_max":758,"o":"m 75 0 l 75 769 l 246 769 l 246 696 q 463 788 342 788 q 703 676 626 788 q 746 574 733 632 q 758 413 758 515 l 758 0 l 574 0 l 574 376 q 538 569 574 521 q 426 618 500 618 q 290 547 335 618 q 260 363 260 499 l 260 0 l 75 0 z "},"o":{"ha":889,"x_min":42,"x_max":860,"o":"m 449 788 q 741 669 622 788 q 860 379 860 551 q 739 99 860 217 q 450 -18 618 -18 q 161 100 281 -18 q 42 385 42 218 q 161 669 42 550 q 449 788 281 788 m 450 618 q 294 550 360 618 q 228 388 228 482 q 293 220 228 289 q 451 151 358 151 q 608 219 543 151 q 674 385 674 288 q 608 549 674 481 q 450 618 543 618 z "},"p":{"ha":917,"x_min":75,"x_max":881,"o":"m 75 -257 l 75 769 l 244 769 l 244 679 q 497 788 338 788 q 772 674 664 788 q 881 388 881 561 q 772 97 881 213 q 496 -18 663 -18 q 260 72 360 -18 l 260 -257 l 75 -257 m 474 618 q 313 551 378 618 q 249 386 249 485 q 313 218 249 285 q 476 151 378 151 q 631 219 568 151 q 694 383 694 286 q 631 551 694 483 q 474 618 568 618 z "},"q":{"ha":917,"x_min":42,"x_max":849,"o":"m 679 769 l 849 769 l 849 -257 l 664 -257 l 664 74 q 432 -18 572 -18 q 154 99 267 -18 q 42 388 42 215 q 155 671 42 554 q 429 788 268 788 q 679 671 593 788 l 679 769 m 456 618 q 292 551 357 618 q 228 383 228 485 q 292 217 228 283 q 454 151 357 151 q 612 217 549 151 q 675 382 675 283 q 613 551 675 483 q 456 618 550 618 z "},"r":{"ha":444,"x_min":75,"x_max":425,"o":"m 75 0 l 75 769 l 244 769 l 244 694 q 316 767 281 747 q 411 788 351 788 l 425 788 l 425 610 q 260 428 260 606 l 260 0 l 75 0 z "},"s":{"ha":611,"x_min":26,"x_max":5610,"o":"m 3575 -256 l 3667 -357 l 3667 -422 l 3417 -528 l 3417 -476 l 3224 -476 l 3224 -406 l 3324 -303 l 3538 -303 l 3575 -256 m 3575 -274 l 3543 -314 l 3329 -314 l 3236 -411 l 3465 -411 l 3433 -454 l 3654 -361 l 3575 -274 m 2008 46 l 2100 -56 l 2100 -119 l 1850 -225 l 1850 -174 l 1657 -174 l 1657 -103 l 1757 -1 l 1971 -1 l 2008 46 m 2008 28 l 1976 -11 l 1763 -11 l 1669 -108 l 1899 -108 l 1867 -151 l 2088 -58 l 2008 28 m 3433 -822 l 3011 -822 l 3011 -614 l 3433 -614 l 3433 -822 m 5438 1488 q 5432 1469 5433 1482 q 5465 1436 5454 1451 q 5472 1435 5469 1435 q 5479 1439 5476 1435 q 5479 1444 5479 1439 q 5476 1454 5479 1449 q 5471 1458 5474 1457 l 5439 1486 l 5438 1488 m 5454 1507 l 5449 1501 q 5475 1478 5460 1490 q 5494 1449 5490 1464 q 5496 1442 5496 1444 q 5503 1438 5500 1438 q 5507 1442 5506 1438 q 5507 1446 5507 1443 q 5504 1458 5507 1451 q 5501 1463 5503 1460 q 5454 1507 5472 1493 m 5592 1649 q 5581 1664 5592 1664 q 5571 1646 5571 1664 l 5568 1615 q 5565 1593 5568 1608 l 5557 1540 q 5549 1531 5554 1532 l 5535 1526 l 5528 1529 q 5514 1560 5525 1533 l 5508 1571 q 5476 1640 5496 1600 q 5464 1658 5469 1654 q 5456 1661 5460 1661 q 5449 1658 5450 1661 q 5446 1654 5446 1657 q 5454 1631 5446 1646 q 5463 1610 5457 1624 l 5489 1540 l 5526 1513 q 5576 1468 5551 1493 q 5578 1463 5578 1465 q 5572 1457 5578 1458 l 5571 1457 q 5560 1463 5564 1457 q 5557 1465 5557 1464 q 5513 1503 5544 1479 l 5499 1513 q 5485 1522 5497 1514 q 5472 1528 5478 1528 q 5467 1525 5469 1528 q 5465 1521 5465 1524 q 5481 1504 5467 1514 q 5494 1490 5492 1496 q 5510 1474 5497 1488 q 5524 1447 5524 1460 q 5518 1421 5524 1438 q 5513 1399 5514 1408 q 5528 1368 5513 1385 q 5540 1356 5535 1361 q 5557 1342 5556 1346 q 5558 1338 5558 1340 q 5551 1332 5558 1333 q 5504 1375 5518 1346 q 5501 1382 5503 1379 q 5497 1393 5497 1388 l 5500 1414 q 5499 1421 5500 1418 q 5493 1425 5496 1424 q 5474 1418 5485 1418 q 5465 1419 5471 1418 q 5454 1424 5460 1421 q 5439 1443 5442 1443 q 5439 1442 5438 1443 q 5443 1410 5442 1432 q 5447 1390 5444 1397 l 5472 1333 l 5472 1328 l 5472 1285 l 5588 1285 l 5588 1335 q 5591 1363 5588 1349 q 5594 1393 5594 1376 l 5594 1396 l 5593 1414 q 5594 1443 5594 1429 q 5592 1488 5594 1468 q 5590 1511 5590 1500 l 5590 1515 l 5594 1603 l 5594 1606 q 5593 1621 5594 1610 l 5592 1649 m 5417 1471 q 5426 1499 5417 1486 q 5438 1510 5433 1501 l 5451 1535 q 5468 1547 5456 1540 l 5469 1547 q 5451 1594 5463 1560 q 5438 1629 5443 1619 q 5429 1654 5429 1644 q 5435 1669 5429 1663 q 5451 1678 5443 1678 q 5461 1676 5457 1678 q 5479 1667 5474 1674 q 5519 1586 5499 1638 l 5529 1560 q 5538 1544 5533 1550 q 5544 1565 5543 1549 q 5549 1586 5546 1578 q 5553 1626 5550 1590 q 5554 1644 5554 1643 l 5554 1650 q 5554 1653 5554 1650 q 5563 1672 5554 1663 q 5581 1681 5569 1681 q 5604 1664 5596 1681 q 5607 1653 5607 1657 q 5610 1599 5610 1621 q 5610 1588 5610 1599 l 5607 1506 l 5607 1501 q 5608 1488 5607 1496 l 5608 1482 q 5610 1447 5610 1471 q 5610 1426 5610 1438 l 5610 1393 q 5604 1349 5610 1386 q 5604 1306 5604 1343 l 5604 1268 l 5456 1268 l 5456 1318 q 5454 1332 5456 1322 q 5442 1364 5451 1346 q 5429 1399 5429 1389 q 5421 1444 5429 1421 q 5417 1471 5417 1461 m 26 244 l 213 244 q 251 174 226 196 q 315 151 275 151 q 375 173 351 151 q 399 226 399 194 q 364 286 399 264 q 268 325 342 300 q 103 416 153 364 q 54 553 54 468 q 110 701 54 638 q 251 782 165 764 l 250 783 q 239 817 249 799 q 225 851 225 842 q 218 897 225 872 q 213 924 213 914 q 222 951 213 939 q 233 961 229 953 l 247 988 q 264 1000 251 993 l 265 1000 l 267 1000 q 247 1047 258 1013 q 235 1081 240 1072 q 225 1107 225 1097 q 232 1122 225 1114 q 249 1131 239 1131 q 258 1129 253 1131 q 275 1119 271 1126 q 315 1039 294 1090 l 326 1013 q 333 997 331 1003 q 340 1018 339 1001 q 344 1039 342 1031 q 350 1079 346 1043 q 350 1097 350 1094 l 350 1103 q 350 1106 350 1103 q 358 1125 350 1115 q 378 1133 367 1133 q 400 1117 392 1133 q 404 1106 403 1110 q 407 1050 407 1072 q 406 1040 407 1044 l 404 958 l 404 954 q 404 940 404 954 l 406 933 q 406 900 406 924 q 406 879 406 890 l 407 844 q 400 801 407 839 q 400 772 400 797 q 507 703 464 751 q 563 557 558 644 l 382 557 q 310 618 369 618 q 259 599 279 618 q 239 553 239 581 q 276 501 239 518 q 369 469 294 493 q 511 404 474 438 q 583 244 583 347 q 503 58 583 135 q 308 -18 424 -18 q 177 10 239 -18 q 78 89 115 39 q 26 244 38 143 m 233 940 q 229 922 229 935 q 261 889 251 904 q 268 886 265 886 q 275 892 272 886 q 276 897 276 894 q 272 907 276 901 q 268 911 271 910 l 235 939 l 233 940 m 250 958 l 246 954 q 271 931 256 942 q 290 900 286 917 q 292 894 292 897 q 300 889 297 889 q 303 894 303 889 q 304 899 304 896 q 300 911 304 904 q 297 914 300 913 q 250 958 268 944 m 389 1101 q 378 1117 388 1117 q 367 1097 368 1117 l 365 1068 q 363 1044 365 1061 l 353 992 q 346 983 351 985 l 331 979 l 324 982 q 310 1013 322 986 l 306 1022 q 272 1093 293 1053 q 260 1111 265 1107 q 251 1114 256 1114 q 244 1111 247 1114 q 243 1106 243 1108 q 250 1083 243 1097 q 260 1061 254 1076 l 285 993 l 322 965 q 374 921 347 946 q 375 915 375 918 q 369 910 375 911 l 367 910 q 356 914 361 910 q 353 918 354 917 q 310 956 340 932 l 294 965 q 282 975 293 967 q 268 981 274 981 q 264 978 265 981 q 261 972 263 976 q 276 957 264 967 q 292 943 288 947 q 306 926 293 939 q 319 900 319 913 q 314 872 319 889 q 310 851 310 861 q 325 821 310 838 q 338 808 331 814 q 354 794 351 799 q 356 790 356 792 q 350 785 356 788 q 383 778 367 782 l 383 786 q 387 815 383 801 q 390 846 390 829 l 390 847 l 390 867 q 392 896 392 882 q 389 940 392 919 q 388 964 388 953 l 388 967 l 390 1056 l 390 1058 q 390 1074 390 1063 l 389 1101 m 268 785 q 310 788 289 788 q 343 786 326 788 q 301 828 313 800 q 297 833 300 831 q 294 846 293 840 l 296 867 q 294 874 297 871 q 289 878 293 876 q 269 871 281 871 q 263 872 267 871 q 251 876 256 874 q 236 894 238 894 q 235 894 236 894 q 239 863 238 885 q 243 843 240 850 l 268 786 l 268 785 z "},"t":{"ha":417,"x_min":13,"x_max":8863,"o":"m 3717 -267 l 3718 -267 l 3721 -267 q 3985 -386 3867 -267 q 3861 -483 3924 -447 q 3724 -518 3799 -518 l 3718 -518 l 3714 -518 q 3576 -483 3639 -518 q 3453 -386 3514 -447 q 3717 -267 3571 -267 m 3717 -293 q 3493 -386 3603 -293 q 3510 -403 3504 -397 q 3607 -347 3557 -368 q 3717 -325 3657 -325 l 3718 -325 l 3721 -325 q 3831 -347 3781 -325 q 3926 -403 3881 -368 q 3944 -386 3933 -397 q 3721 -293 3835 -293 l 3718 -293 l 3717 -293 m 3764 -375 q 3755 -365 3764 -375 q 3719 -356 3746 -356 q 3673 -375 3692 -356 q 3654 -421 3654 -394 q 3673 -466 3654 -447 q 3719 -485 3692 -485 q 3764 -466 3746 -485 q 3782 -421 3782 -447 q 3764 -375 3782 -394 m 3650 -361 q 3532 -419 3593 -376 q 3651 -481 3590 -465 q 3628 -421 3628 -456 q 3650 -361 3628 -389 m 3788 -361 q 3810 -421 3810 -389 q 3786 -481 3810 -456 q 3906 -419 3846 -465 q 3788 -361 3844 -376 m 3688 -392 q 3694 -386 3688 -392 q 3719 -381 3700 -381 q 3749 -392 3738 -381 q 3761 -422 3761 -403 q 3749 -451 3761 -439 q 3718 -464 3736 -464 q 3689 -451 3701 -464 q 3676 -422 3676 -439 q 3688 -392 3676 -403 m 3718 -407 q 3708 -411 3713 -407 q 3704 -422 3704 -415 q 3708 -432 3704 -428 q 3718 -436 3713 -436 q 3729 -432 3725 -436 q 3733 -422 3733 -428 q 3729 -411 3733 -415 q 3718 -407 3725 -407 m 4431 -747 q 4422 -735 4431 -737 q 4386 -732 4414 -733 q 4311 -725 4375 -732 l 4271 -781 l 4242 -785 l 4261 -719 l 4242 -711 l 4261 -706 l 4242 -639 l 4271 -643 l 4311 -699 l 4332 -696 q 4362 -694 4344 -696 q 4392 -692 4379 -692 l 4410 -692 q 4431 -676 4431 -690 q 4431 -673 4431 -675 q 4431 -668 4431 -671 q 4418 -622 4431 -653 l 4369 -512 l 4390 -512 q 4401 -515 4397 -512 q 4413 -528 4406 -518 l 4435 -558 l 4468 -558 q 4473 -561 4471 -558 q 4475 -567 4475 -564 q 4473 -574 4475 -571 q 4468 -576 4471 -576 l 4450 -576 l 4478 -615 l 4511 -615 q 4515 -618 4513 -615 q 4517 -625 4517 -621 q 4515 -631 4517 -628 q 4510 -635 4513 -635 l 4493 -635 l 4533 -689 l 4578 -692 q 4644 -711 4644 -700 q 4619 -727 4644 -722 q 4533 -735 4593 -732 l 4493 -789 l 4510 -789 q 4515 -792 4513 -789 q 4517 -799 4517 -796 q 4515 -806 4517 -803 q 4511 -808 4514 -808 l 4478 -808 l 4450 -847 l 4468 -847 q 4473 -850 4471 -847 q 4475 -857 4475 -853 q 4473 -862 4475 -860 q 4468 -865 4471 -865 l 4435 -865 l 4413 -896 q 4401 -908 4406 -906 q 4390 -911 4397 -911 l 4369 -911 l 4418 -801 q 4431 -747 4431 -753 m 1689 -1333 l 1544 -1507 l 1672 -1551 l 1419 -1778 l 1581 -1568 l 1456 -1519 l 1689 -1333 m 4156 1815 l 4011 1642 l 4139 1597 l 3886 1371 l 4047 1581 l 3922 1629 l 4156 1815 m 4156 1815 l 4011 1642 l 4139 1597 l 3886 1371 l 4047 1581 l 3922 1629 l 4156 1815 m 8863 1746 l 8718 1572 l 8846 1528 l 8593 1301 l 8754 1511 l 8629 1560 l 8863 1746 m 8863 1746 l 8718 1572 l 8846 1528 l 8593 1301 l 8754 1511 l 8629 1560 l 8863 1746 m 103 0 l 103 601 l 13 601 l 13 769 l 103 769 l 103 1026 l 288 1026 l 288 906 l 421 1079 l 296 1128 l 529 1314 l 385 1140 l 513 1096 l 288 894 l 288 769 l 399 769 l 399 601 l 288 601 l 288 0 l 103 0 z "},"u":{"ha":833,"x_min":75,"x_max":760,"o":"m 760 769 l 760 0 l 589 0 l 589 74 q 488 2 538 22 q 368 -18 438 -18 q 133 96 213 -18 q 88 202 101 144 q 75 357 75 260 l 75 769 l 260 769 l 260 393 q 297 200 260 247 q 406 151 333 151 q 546 222 504 151 q 575 407 575 267 l 575 769 l 760 769 z "},"v":{"ha":778,"x_min":1,"x_max":768,"o":"m 311 0 l 1 769 l 207 769 l 385 260 l 560 769 l 768 769 l 458 0 l 311 0 z "},"w":{"ha":1111,"x_min":14,"x_max":1090,"o":"m 289 0 l 14 769 l 213 769 l 350 300 l 479 769 l 626 769 l 753 300 l 893 769 l 1090 769 l 813 0 l 697 0 l 551 499 l 403 0 l 289 0 z "},"x":{"ha":778,"x_min":1,"x_max":768,"o":"m 1 0 l 274 397 l 38 769 l 246 769 l 385 538 l 521 769 l 729 769 l 494 397 l 768 0 l 546 0 l 385 264 l 224 0 l 1 0 z "},"y":{"ha":806,"x_min":8,"x_max":789,"o":"m 146 -257 l 290 72 l 8 769 l 219 769 l 390 271 l 576 769 l 789 769 l 344 -257 l 146 -257 z "},"z":{"ha":639,"x_min":28,"x_max":614,"o":"m 28 0 l 28 165 l 367 604 l 67 604 l 67 769 l 588 769 l 588 604 l 249 165 l 614 165 l 614 0 l 28 0 z "},"{":{"ha":472,"x_min":51,"x_max":419,"o":"m 310 774 l 310 603 q 282 481 310 521 q 185 424 254 442 q 282 367 254 407 q 310 246 310 326 l 310 75 q 328 -37 310 -14 q 419 -67 346 -61 l 419 -178 q 363 -179 399 -179 q 210 -134 257 -179 q 164 14 164 -89 l 164 232 q 51 368 164 354 l 51 481 q 164 617 164 494 l 164 835 q 210 983 164 938 q 363 1028 257 1028 q 419 1026 399 1028 l 419 915 q 328 886 346 910 q 310 774 310 863 z "},"|":{"ha":833,"x_min":338,"x_max":503,"o":"m 503 1026 l 503 0 l 338 0 l 338 1026 l 503 1026 z "},"}":{"ha":472,"x_min":53,"x_max":421,"o":"m 163 75 l 163 246 q 190 367 163 328 q 288 425 218 407 q 190 482 218 442 q 163 603 163 522 l 163 774 q 144 886 163 863 q 53 915 126 910 l 53 1026 q 110 1028 74 1028 q 262 983 215 1028 q 308 835 308 938 l 308 617 q 421 481 308 494 l 421 368 q 308 232 308 354 l 308 14 q 262 -134 308 -89 q 110 -179 215 -179 q 53 -178 74 -179 l 53 -67 q 144 -37 126 -61 q 163 75 163 -14 z "},"~":{"ha":833,"x_min":71,"x_max":771,"o":"m 682 585 l 771 482 q 672 356 717 393 q 569 319 626 319 q 443 353 524 319 l 368 383 q 279 410 307 410 q 214 379 243 410 q 168 311 206 371 q 158 297 165 307 l 71 401 q 138 501 117 476 q 276 572 193 572 q 383 550 331 572 l 476 513 q 575 482 551 482 q 682 585 625 482 z "},"":{"ha":389,"x_min":100,"x_max":285,"o":"m 285 508 l 285 -257 l 100 -257 l 100 508 l 285 508 m 285 769 l 285 592 l 100 592 l 100 769 l 285 769 z "},"":{"ha":778,"x_min":54,"x_max":710,"o":"m 476 54 l 303 54 l 303 206 q 147 292 208 228 q 54 529 54 388 q 157 772 54 674 q 303 849 213 826 l 303 993 l 476 993 l 476 849 q 628 764 565 826 q 710 615 690 701 l 513 615 q 383 679 467 679 q 281 635 322 679 q 239 526 239 592 q 281 418 239 461 q 389 375 324 375 q 507 431 457 375 l 710 431 q 476 206 638 249 l 476 54 z "},"":{"ha":778,"x_min":0,"x_max":782,"o":"m 57 0 l 57 174 l 250 174 q 278 275 278 221 q 197 431 278 356 l 0 431 l 0 604 l 81 604 q 57 717 57 657 q 153 949 57 854 q 389 1044 250 1044 q 612 963 521 1044 q 714 751 703 882 l 526 751 q 476 843 511 811 q 390 875 440 875 q 285 827 328 875 q 242 710 242 779 q 279 604 242 650 l 567 604 l 567 431 l 418 431 q 463 278 463 343 q 444 174 463 225 q 531 190 501 174 q 597 306 597 226 q 583 381 597 336 l 767 381 q 782 308 782 340 q 678 75 782 165 q 572 17 629 33 q 418 0 514 0 l 57 0 z "},"":{"ha":778,"x_min":38,"x_max":742,"o":"m 38 797 l 149 908 l 211 847 q 389 897 293 897 q 572 847 483 897 l 635 907 l 742 794 l 683 735 q 735 554 735 646 q 682 376 735 460 l 740 317 l 633 206 l 572 264 q 390 213 486 213 q 208 264 296 213 l 147 206 l 38 318 l 96 378 q 56 469 65 435 q 46 556 46 504 q 56 642 46 607 q 96 735 65 678 l 38 797 m 394 731 q 265 680 318 731 q 213 556 213 629 q 265 431 213 483 q 390 379 318 379 q 515 430 464 379 q 565 554 565 481 q 515 678 565 626 q 394 731 464 731 z "},"":{"ha":778,"x_min":-49,"x_max":818,"o":"m 289 0 l 289 260 l 17 260 l 17 382 l 289 382 l 211 528 l 17 528 l 17 650 l 147 650 l -49 1026 l 158 1026 l 381 553 l 604 1026 l 818 1026 l 619 650 l 747 650 l 747 528 l 553 528 l 474 382 l 747 382 l 747 260 l 474 260 l 474 0 l 289 0 z "},"":{"ha":833,"x_min":338,"x_max":503,"o":"m 503 1026 l 503 607 l 338 607 l 338 1026 l 503 1026 m 503 419 l 503 0 l 338 0 l 338 419 l 503 419 z "},"":{"ha":778,"x_min":56,"x_max":735,"o":"m 690 782 l 515 782 q 396 875 497 875 q 327 857 353 875 q 301 808 301 839 q 386 711 301 751 l 614 599 q 702 519 669 571 q 735 406 735 467 q 631 208 735 286 q 700 43 700 138 q 616 -145 700 -72 q 401 -218 532 -218 q 147 -104 235 -218 q 83 76 93 -35 l 269 76 q 278 17 269 36 q 403 -49 310 -49 q 489 -23 454 -49 q 524 42 524 3 q 503 91 524 71 q 422 143 482 111 l 196 260 q 56 482 56 331 q 164 685 56 604 q 125 814 125 744 q 203 980 125 915 q 404 1044 281 1044 q 601 978 528 1044 q 690 782 674 911 m 479 471 l 272 574 q 218 492 218 531 q 301 404 218 447 l 511 299 q 563 386 563 335 q 546 428 563 411 q 479 471 529 446 z "},"":{"ha":694,"x_min":103,"x_max":579,"o":"m 103 875 l 103 1060 l 288 1060 l 288 875 l 103 875 m 394 875 l 394 1060 l 579 1060 l 579 875 l 394 875 z "},"":{"ha":1028,"x_min":-17,"x_max":1054,"o":"m 663 444 l 817 444 q 712 281 792 343 q 526 218 632 218 q 312 306 400 218 q 224 518 224 393 q 310 730 224 643 q 524 817 397 817 q 715 750 631 817 q 817 586 800 683 l 663 586 q 608 660 646 633 q 524 688 571 688 q 414 639 458 688 q 369 519 369 590 q 414 397 369 447 q 524 347 458 347 q 663 444 617 347 m 518 1044 q 899 888 743 1044 q 1054 507 1054 732 q 896 137 1054 292 q 519 -18 738 -18 q 140 138 297 -18 q -17 514 -17 294 q 140 889 -17 733 q 518 1044 297 1044 m 518 938 q 219 813 343 938 q 94 514 94 689 q 219 217 94 340 q 518 93 343 93 q 817 216 692 93 q 943 508 943 339 q 819 813 943 689 q 518 938 696 938 z "},"":{"ha":500,"x_min":39,"x_max":475,"o":"m 469 1026 l 469 613 l 378 613 l 378 669 q 236 599 324 599 q 96 663 153 599 q 39 822 39 728 q 99 978 39 914 q 243 1042 158 1042 q 378 972 324 1042 l 378 1026 l 469 1026 m 337 905 q 320 922 337 905 q 257 939 304 939 q 177 903 210 939 q 144 818 144 868 q 177 735 144 769 q 257 701 210 701 q 337 736 304 701 q 369 821 369 771 q 337 905 369 871 m 43 431 l 43 528 l 475 528 l 475 431 l 43 431 z "},"":{"ha":639,"x_min":50,"x_max":539,"o":"m 539 150 l 346 332 l 346 471 l 539 651 l 539 481 l 446 401 l 539 321 l 539 150 m 243 150 l 50 332 l 50 471 l 243 651 l 243 481 l 150 401 l 243 321 l 243 150 z "},"":{"ha":833,"x_min":71,"x_max":771,"o":"m 71 657 l 771 657 l 771 253 l 613 253 l 613 499 l 71 499 l 71 657 z "},"":{"ha":1028,"x_min":-17,"x_max":1054,"o":"m 318 231 l 318 804 l 500 804 q 609 795 572 804 q 675 763 646 786 q 746 607 746 707 q 707 487 746 536 q 604 426 668 438 l 760 231 l 592 231 l 458 417 l 458 231 l 318 231 m 458 517 l 510 517 q 606 597 606 517 q 511 675 606 675 l 458 675 l 458 517 m 518 1044 q 899 888 743 1044 q 1054 507 1054 732 q 896 137 1054 292 q 519 -18 738 -18 q 140 138 297 -18 q -17 514 -17 294 q 140 889 -17 733 q 518 1044 297 1044 m 518 938 q 219 813 343 938 q 94 514 94 689 q 219 217 94 340 q 518 93 343 93 q 817 216 692 93 q 943 508 943 339 q 819 813 943 689 q 518 938 696 938 z "},"":{"ha":583,"x_min":103,"x_max":488,"o":"m 103 900 l 103 1039 l 488 1039 l 488 900 l 103 900 z "},"":{"ha":556,"x_min":69,"x_max":486,"o":"m 283 953 q 428 891 369 953 q 486 740 486 829 q 426 590 486 651 q 278 528 365 528 q 130 590 190 528 q 69 742 69 651 q 131 892 69 831 q 283 953 193 953 m 281 874 q 186 835 225 874 q 147 740 147 796 q 186 646 147 685 q 278 607 225 607 q 369 646 332 607 q 407 740 407 685 q 370 835 407 796 q 281 874 333 874 z "},"":{"ha":833,"x_min":71,"x_max":771,"o":"m 338 636 l 338 907 l 504 907 l 504 636 l 771 636 l 771 472 l 504 472 l 504 243 l 338 243 l 338 472 l 71 472 l 71 636 l 338 636 m 771 164 l 771 0 l 71 0 l 71 164 l 771 164 z "},"":{"ha":467,"x_min":14,"x_max":453,"o":"m 18 411 l 18 514 l 254 719 q 314 784 297 758 q 331 838 331 810 q 303 902 331 876 q 236 928 276 928 q 163 897 189 928 q 135 808 136 865 l 14 808 q 49 947 14 893 q 127 1013 78 989 q 235 1038 176 1038 q 390 979 328 1038 q 453 835 453 921 q 329 626 453 725 l 199 522 l 450 522 l 450 411 l 18 411 z "},"":{"ha":467,"x_min":6,"x_max":460,"o":"m 178 703 l 178 817 q 267 831 242 818 q 293 875 293 844 q 276 913 293 899 q 233 928 260 928 q 175 872 185 928 l 51 872 q 96 983 58 944 q 232 1036 151 1036 q 363 988 311 1036 q 415 868 415 940 q 368 765 415 801 q 460 610 460 722 q 397 460 460 519 q 236 400 333 400 q 75 457 139 400 q 6 604 11 514 l 128 604 q 163 535 135 560 q 236 510 192 510 q 310 537 281 510 q 339 606 339 564 q 303 676 339 650 q 207 703 268 703 l 178 703 z "},"":{"ha":583,"x_min":103,"x_max":489,"o":"m 174 851 l 103 960 l 414 1146 l 489 1018 l 174 851 z "},"":{"ha":833,"x_min":51,"x_max":732,"o":"m 335 -178 l 335 458 q 130 538 208 460 q 51 740 51 617 q 87 885 51 821 q 186 983 122 949 q 429 1026 264 1026 l 732 1026 l 732 -178 l 592 -178 l 592 878 l 475 878 l 475 -178 l 335 -178 z "},"":{"ha":389,"x_min":100,"x_max":285,"o":"m 100 417 l 100 601 l 285 601 l 285 417 l 100 417 z "},"":{"ha":472,"x_min":103,"x_max":375,"o":"m 165 0 l 238 0 l 208 -81 q 249 -71 233 -71 q 338 -112 300 -71 q 375 -211 375 -154 q 338 -310 375 -272 q 242 -349 301 -349 q 150 -316 189 -349 q 103 -231 111 -283 l 188 -231 q 240 -272 206 -272 q 278 -253 263 -272 q 294 -208 294 -235 q 278 -165 294 -183 q 240 -147 263 -147 q 188 -185 214 -147 l 115 -149 l 165 0 z "},"":{"ha":467,"x_min":131,"x_max":335,"o":"m 213 411 l 213 915 l 131 915 l 131 1026 l 335 1026 l 335 411 l 213 411 z "},"":{"ha":500,"x_min":43,"x_max":469,"o":"m 257 1042 q 408 979 346 1042 q 469 828 469 917 q 407 676 469 739 q 256 614 344 614 q 106 678 168 614 q 43 832 43 742 q 106 980 43 918 q 257 1042 169 1042 m 257 944 q 178 911 211 944 q 144 832 144 878 q 176 749 144 782 q 256 717 207 717 q 335 749 303 717 q 368 829 368 781 q 335 910 368 876 q 257 944 301 944 m 43 432 l 43 529 l 469 529 l 469 432 l 43 432 z "},"":{"ha":639,"x_min":101,"x_max":590,"o":"m 101 150 l 101 321 l 194 401 l 101 481 l 101 651 l 294 471 l 294 332 l 101 150 m 397 150 l 397 321 l 490 401 l 397 481 l 397 651 l 590 471 l 590 332 l 397 150 z "},"":{"ha":1167,"x_min":131,"x_max":1161,"o":"m 306 0 l 731 1026 l 863 1026 l 438 0 l 306 0 m 703 185 l 992 615 l 1094 615 l 1094 197 l 1161 197 l 1161 92 l 1094 92 l 1094 0 l 972 0 l 972 92 l 703 92 l 703 185 m 972 197 l 972 411 l 831 197 l 972 197 m 213 411 l 213 915 l 131 915 l 131 1026 l 335 1026 l 335 411 l 213 411 z "},"":{"ha":1167,"x_min":131,"x_max":1153,"o":"m 276 0 l 701 1026 l 833 1026 l 408 0 l 276 0 m 213 411 l 213 915 l 131 915 l 131 1026 l 335 1026 l 335 411 l 213 411 m 718 0 l 718 103 l 954 308 q 1014 373 997 347 q 1031 426 1031 399 q 1003 491 1031 465 q 936 517 976 517 q 863 485 889 517 q 835 397 836 454 l 714 397 q 749 536 714 482 q 827 602 778 578 q 935 626 876 626 q 1090 568 1028 626 q 1153 424 1153 510 q 1029 215 1153 314 l 899 111 l 1150 111 l 1150 0 l 718 0 z "},"":{"ha":1167,"x_min":6,"x_max":1161,"o":"m 347 0 l 772 1026 l 904 1026 l 479 0 l 347 0 m 703 185 l 992 615 l 1094 615 l 1094 197 l 1161 197 l 1161 92 l 1094 92 l 1094 0 l 972 0 l 972 92 l 703 92 l 703 185 m 972 197 l 972 411 l 831 197 l 972 197 m 178 703 l 178 817 q 267 831 242 818 q 293 875 293 844 q 276 913 293 899 q 233 928 260 928 q 175 872 185 928 l 51 872 q 96 983 58 944 q 232 1036 151 1036 q 363 988 311 1036 q 415 868 415 940 q 368 765 415 801 q 460 610 460 722 q 397 460 460 519 q 236 400 333 400 q 75 457 139 400 q 6 604 11 514 l 128 604 q 163 535 135 560 q 236 510 192 510 q 310 537 281 510 q 339 606 339 564 q 303 676 339 650 q 207 703 268 703 l 178 703 z "},"":{"ha":778,"x_min":96,"x_max":725,"o":"m 328 510 l 513 510 l 513 482 q 460 276 513 357 q 419 224 438 243 q 343 156 400 204 q 281 38 281 104 q 318 -55 281 -18 q 413 -92 356 -92 q 540 47 524 -92 l 725 47 q 658 -154 714 -85 q 549 -243 615 -211 q 408 -275 482 -275 q 185 -184 275 -275 q 96 43 96 -93 q 126 167 96 113 q 238 292 157 221 q 314 389 301 349 q 328 485 328 428 l 328 510 m 513 769 l 513 592 l 328 592 l 328 769 l 513 769 z "},"":{"ha":1028,"x_min":10,"x_max":1018,"o":"m 10 0 l 438 1026 l 588 1026 l 1018 0 l 808 0 l 699 265 l 333 265 l 219 0 l 10 0 m 403 447 l 622 447 l 513 758 l 403 447 m 274 1267 l 353 1389 l 661 1204 l 588 1094 l 274 1267 z "},"":{"ha":1028,"x_min":10,"x_max":1018,"o":"m 10 0 l 438 1026 l 588 1026 l 1018 0 l 808 0 l 699 265 l 333 265 l 219 0 l 10 0 m 403 447 l 622 447 l 513 758 l 403 447 m 438 1094 l 367 1203 l 678 1389 l 753 1261 l 438 1094 z "},"":{"ha":1028,"x_min":10,"x_max":1018,"o":"m 10 0 l 438 1026 l 588 1026 l 1018 0 l 808 0 l 699 265 l 333 265 l 219 0 l 10 0 m 403 447 l 622 447 l 513 758 l 403 447 m 238 1118 l 442 1310 l 590 1310 l 792 1118 l 590 1118 l 517 1207 l 442 1118 l 238 1118 z "},"":{"ha":1028,"x_min":10,"x_max":1018,"o":"m 10 0 l 438 1026 l 588 1026 l 1018 0 l 808 0 l 699 265 l 333 265 l 219 0 l 10 0 m 403 447 l 622 447 l 513 758 l 403 447 m 360 1126 l 285 1238 q 353 1288 321 1274 q 428 1303 385 1303 q 511 1283 464 1303 q 576 1268 549 1268 q 669 1315 628 1268 l 744 1203 q 614 1126 682 1126 q 532 1144 585 1126 q 457 1161 485 1161 q 416 1156 432 1161 q 360 1126 400 1150 z "},"":{"ha":1028,"x_min":10,"x_max":1018,"o":"m 10 0 l 438 1026 l 588 1026 l 1018 0 l 808 0 l 699 265 l 333 265 l 219 0 l 10 0 m 403 447 l 622 447 l 513 758 l 403 447 m 276 1118 l 276 1303 l 461 1303 l 461 1118 l 276 1118 m 568 1118 l 568 1303 l 753 1303 l 753 1118 l 568 1118 z "},"":{"ha":1028,"x_min":10,"x_max":1018,"o":"m 10 0 l 438 1026 l 588 1026 l 1018 0 l 808 0 l 699 265 l 333 265 l 219 0 l 10 0 m 403 447 l 622 447 l 513 758 l 403 447 m 515 1376 q 615 1334 574 1376 q 657 1233 657 1292 q 615 1132 657 1174 q 514 1090 572 1090 q 413 1132 454 1090 q 371 1233 371 1174 q 413 1335 371 1293 q 515 1376 456 1376 m 549 1269 q 542 1276 549 1269 q 514 1283 535 1283 q 478 1269 493 1283 q 464 1233 464 1254 q 478 1198 464 1213 q 514 1183 493 1183 q 549 1198 535 1183 q 564 1233 564 1213 q 549 1269 564 1254 z "},"":{"ha":1250,"x_min":24,"x_max":1171,"o":"m 24 0 l 700 1026 l 1171 1026 l 1171 844 l 868 844 l 868 603 l 1156 603 l 1156 421 l 868 421 l 868 182 l 1171 182 l 1171 0 l 678 0 l 678 265 l 408 265 l 253 0 l 24 0 m 518 447 l 678 447 l 678 713 l 518 447 z "},"":{"ha":1083,"x_min":42,"x_max":1056,"o":"m 554 -18 l 532 -81 q 572 -71 560 -71 q 663 -112 625 -71 q 700 -211 700 -154 q 663 -310 700 -272 q 567 -349 626 -349 q 474 -316 513 -349 q 426 -231 435 -283 l 513 -231 q 565 -272 529 -272 q 603 -253 588 -272 q 619 -208 619 -235 q 603 -165 619 -183 q 565 -147 588 -147 q 513 -185 538 -147 l 439 -149 l 485 -10 q 170 171 299 18 q 42 517 42 324 q 197 890 42 735 q 569 1044 351 1044 q 910 926 764 1044 q 993 841 961 883 q 1056 732 1025 799 l 843 732 q 726 831 790 800 q 574 861 663 861 q 318 749 414 861 q 233 515 233 650 q 335 268 233 371 q 578 165 436 165 q 711 193 653 165 q 832 286 769 221 l 1056 286 q 858 58 992 139 q 554 -18 724 -24 z "},"":{"ha":722,"x_min":94,"x_max":646,"o":"m 94 0 l 94 1026 l 646 1026 l 646 844 l 285 844 l 285 603 l 631 603 l 631 421 l 285 421 l 285 182 l 646 182 l 646 0 l 94 0 m 121 1267 l 200 1389 l 508 1204 l 435 1094 l 121 1267 z "},"":{"ha":722,"x_min":94,"x_max":646,"o":"m 94 0 l 94 1026 l 646 1026 l 646 844 l 285 844 l 285 603 l 631 603 l 631 421 l 285 421 l 285 182 l 646 182 l 646 0 l 94 0 m 313 1094 l 242 1203 l 553 1389 l 628 1261 l 313 1094 z "},"":{"ha":722,"x_min":89,"x_max":646,"o":"m 94 0 l 94 1026 l 646 1026 l 646 844 l 285 844 l 285 603 l 631 603 l 631 421 l 285 421 l 285 182 l 646 182 l 646 0 l 94 0 m 89 1118 l 293 1310 l 442 1310 l 643 1118 l 442 1118 l 368 1207 l 293 1118 l 89 1118 z "},"":{"ha":722,"x_min":94,"x_max":646,"o":"m 94 0 l 94 1026 l 646 1026 l 646 844 l 285 844 l 285 603 l 631 603 l 631 421 l 285 421 l 285 182 l 646 182 l 646 0 l 94 0 m 132 1118 l 132 1303 l 317 1303 l 317 1118 l 132 1118 m 424 1118 l 424 1303 l 608 1303 l 608 1118 l 424 1118 z "},"":{"ha":389,"x_min":6,"x_max":393,"o":"m 94 0 l 94 1026 l 285 1026 l 285 0 l 94 0 m 6 1267 l 85 1389 l 393 1204 l 319 1094 l 6 1267 z "},"":{"ha":389,"x_min":6,"x_max":392,"o":"m 94 0 l 94 1026 l 285 1026 l 285 0 l 94 0 m 76 1094 l 6 1203 l 317 1389 l 392 1261 l 76 1094 z "},"":{"ha":389,"x_min":-78,"x_max":476,"o":"m 94 0 l 94 1026 l 285 1026 l 285 0 l 94 0 m -78 1118 l 126 1310 l 275 1310 l 476 1118 l 275 1118 l 201 1207 l 126 1118 l -78 1118 z "},"":{"ha":389,"x_min":-50,"x_max":426,"o":"m 94 0 l 94 1026 l 285 1026 l 285 0 l 94 0 m -50 1118 l -50 1303 l 135 1303 l 135 1118 l -50 1118 m 242 1118 l 242 1303 l 426 1303 l 426 1118 l 242 1118 z "},"":{"ha":1031,"x_min":19,"x_max":975,"o":"m 153 0 l 153 438 l 19 438 l 19 586 l 153 586 l 153 1026 l 388 1026 q 751 953 629 1026 q 917 773 858 889 q 975 510 975 657 q 908 235 975 354 q 724 57 842 115 q 392 0 610 0 l 153 0 m 343 182 l 385 182 q 635 228 553 182 q 744 342 704 265 q 783 511 783 418 q 741 688 783 610 q 626 803 699 765 q 381 844 544 844 l 343 844 l 343 586 l 557 586 l 557 438 l 343 438 l 343 182 z "},"":{"ha":1028,"x_min":94,"x_max":926,"o":"m 94 0 l 94 1026 l 311 1026 l 736 279 l 736 1026 l 926 1026 l 926 0 l 714 0 l 285 746 l 285 0 l 94 0 m 365 1126 l 290 1238 q 358 1288 326 1274 q 433 1303 390 1303 q 517 1283 469 1303 q 582 1268 556 1268 q 675 1315 633 1268 l 750 1203 q 619 1126 688 1126 q 538 1144 590 1126 q 463 1161 490 1161 q 422 1156 438 1161 q 365 1126 406 1150 z "},"":{"ha":1167,"x_min":42,"x_max":1111,"o":"m 583 1044 q 957 889 803 1044 q 1111 514 1111 733 q 958 135 1111 289 q 582 -18 806 -18 q 199 136 356 -18 q 42 513 42 290 q 198 891 42 738 q 583 1044 354 1044 m 581 861 q 333 761 432 861 q 233 513 233 661 q 334 266 233 367 q 581 165 435 165 q 823 264 726 165 q 919 511 919 363 q 822 760 919 658 q 581 861 724 861 m 383 1267 l 463 1389 l 771 1204 l 697 1094 l 383 1267 z "},"":{"ha":1167,"x_min":42,"x_max":1111,"o":"m 583 1044 q 957 889 803 1044 q 1111 514 1111 733 q 958 135 1111 289 q 582 -18 806 -18 q 199 136 356 -18 q 42 513 42 290 q 198 891 42 738 q 583 1044 354 1044 m 581 861 q 333 761 432 861 q 233 513 233 661 q 334 266 233 367 q 581 165 435 165 q 823 264 726 165 q 919 511 919 363 q 822 760 919 658 q 581 861 724 861 m 454 1094 l 383 1203 l 694 1389 l 769 1261 l 454 1094 z "},"":{"ha":1167,"x_min":42,"x_max":1111,"o":"m 583 1044 q 957 889 803 1044 q 1111 514 1111 733 q 958 135 1111 289 q 582 -18 806 -18 q 199 136 356 -18 q 42 513 42 290 q 198 891 42 738 q 583 1044 354 1044 m 581 861 q 333 761 432 861 q 233 513 233 661 q 334 266 233 367 q 581 165 435 165 q 823 264 726 165 q 919 511 919 363 q 822 760 919 658 q 581 861 724 861 m 300 1118 l 504 1310 l 653 1310 l 854 1118 l 653 1118 l 579 1207 l 504 1118 l 300 1118 z "},"":{"ha":1167,"x_min":42,"x_max":1111,"o":"m 583 1044 q 957 889 803 1044 q 1111 514 1111 733 q 958 135 1111 289 q 582 -18 806 -18 q 199 136 356 -18 q 42 513 42 290 q 198 891 42 738 q 583 1044 354 1044 m 581 861 q 333 761 432 861 q 233 513 233 661 q 334 266 233 367 q 581 165 435 165 q 823 264 726 165 q 919 511 919 363 q 822 760 919 658 q 581 861 724 861 m 422 1126 l 347 1238 q 415 1288 383 1274 q 490 1303 447 1303 q 574 1283 526 1303 q 639 1268 611 1268 q 732 1315 690 1268 l 807 1203 q 676 1126 744 1126 q 594 1144 647 1126 q 519 1161 547 1161 q 478 1156 494 1161 q 422 1126 463 1150 z "},"":{"ha":1167,"x_min":42,"x_max":1111,"o":"m 583 1044 q 957 889 803 1044 q 1111 514 1111 733 q 958 135 1111 289 q 582 -18 806 -18 q 199 136 356 -18 q 42 513 42 290 q 198 891 42 738 q 583 1044 354 1044 m 581 861 q 333 761 432 861 q 233 513 233 661 q 334 266 233 367 q 581 165 435 165 q 823 264 726 165 q 919 511 919 363 q 822 760 919 658 q 581 861 724 861 m 339 1118 l 339 1303 l 524 1303 l 524 1118 l 339 1118 m 631 1118 l 631 1303 l 815 1303 l 815 1118 l 631 1118 z "},"":{"ha":833,"x_min":71,"x_max":771,"o":"m 535 508 l 771 272 l 657 158 l 421 394 l 185 158 l 71 272 l 307 508 l 71 744 l 185 858 l 421 622 l 657 858 l 771 744 l 535 508 z "},"":{"ha":1167,"x_min":42,"x_max":1115,"o":"m 1025 1032 l 940 907 q 1115 514 1115 747 q 962 135 1115 289 q 585 -18 808 -18 q 351 32 461 -18 l 268 -90 l 135 0 l 217 121 q 88 299 133 196 q 42 514 42 403 q 198 890 42 735 q 578 1044 354 1044 q 807 996 696 1044 l 893 1124 l 1025 1032 m 835 750 l 457 188 q 583 165 519 165 q 826 264 729 165 q 924 511 924 363 q 835 750 924 646 m 324 279 l 701 840 q 578 861 642 861 q 333 760 433 861 q 233 514 233 660 q 324 279 233 382 z "},"":{"ha":889,"x_min":94,"x_max":788,"o":"m 94 1026 l 285 1026 l 285 376 q 310 235 285 278 q 442 165 353 165 q 572 235 529 165 q 597 376 597 278 l 597 1026 l 788 1026 l 788 376 q 718 114 788 207 q 598 17 672 53 q 440 -18 524 -18 q 272 23 350 -18 q 150 135 194 64 q 94 376 94 224 l 94 1026 m 192 1267 l 271 1389 l 579 1204 l 506 1094 l 192 1267 z "},"":{"ha":889,"x_min":94,"x_max":788,"o":"m 94 1026 l 285 1026 l 285 376 q 310 235 285 278 q 442 165 353 165 q 572 235 529 165 q 597 376 597 278 l 597 1026 l 788 1026 l 788 376 q 718 114 788 207 q 598 17 672 53 q 440 -18 524 -18 q 272 23 350 -18 q 150 135 194 64 q 94 376 94 224 l 94 1026 m 375 1094 l 304 1203 l 615 1389 l 690 1261 l 375 1094 z "},"":{"ha":889,"x_min":94,"x_max":788,"o":"m 94 1026 l 285 1026 l 285 376 q 310 235 285 278 q 442 165 353 165 q 572 235 529 165 q 597 376 597 278 l 597 1026 l 788 1026 l 788 376 q 718 114 788 207 q 598 17 672 53 q 440 -18 524 -18 q 272 23 350 -18 q 150 135 194 64 q 94 376 94 224 l 94 1026 m 164 1118 l 368 1310 l 517 1310 l 718 1118 l 517 1118 l 443 1207 l 368 1118 l 164 1118 z "},"":{"ha":889,"x_min":94,"x_max":788,"o":"m 94 1026 l 285 1026 l 285 376 q 310 235 285 278 q 442 165 353 165 q 572 235 529 165 q 597 376 597 278 l 597 1026 l 788 1026 l 788 376 q 718 114 788 207 q 598 17 672 53 q 440 -18 524 -18 q 272 23 350 -18 q 150 135 194 64 q 94 376 94 224 l 94 1026 m 203 1118 l 203 1303 l 388 1303 l 388 1118 l 203 1118 m 494 1118 l 494 1303 l 679 1303 l 679 1118 l 494 1118 z "},"":{"ha":861,"x_min":4,"x_max":869,"o":"m 342 0 l 342 379 l 4 1026 l 210 1026 l 438 554 l 664 1026 l 869 1026 l 532 379 l 532 0 l 342 0 m 371 1094 l 300 1203 l 611 1389 l 686 1261 l 371 1094 z "},"":{"ha":778,"x_min":94,"x_max":750,"o":"m 94 0 l 94 1026 l 285 1026 l 285 844 l 349 844 q 611 797 532 844 q 750 528 750 713 q 714 366 750 439 q 615 253 678 293 q 514 217 572 226 q 346 207 456 207 l 285 207 l 285 0 l 94 0 m 285 389 l 340 389 q 496 413 451 389 q 558 524 558 447 q 535 607 558 572 q 469 653 511 642 q 349 663 429 663 l 285 663 l 285 389 z "},"":{"ha":833,"x_min":71,"x_max":811,"o":"m 71 0 l 71 676 q 115 893 71 804 q 223 1004 153 964 q 378 1044 293 1044 q 593 963 506 1044 q 681 758 681 881 q 576 567 681 625 q 714 506 664 547 q 811 300 811 429 q 720 71 811 160 q 486 -18 629 -18 q 240 110 318 -18 l 240 0 l 71 0 m 256 263 l 369 263 q 416 183 379 215 q 499 151 453 151 q 589 190 553 151 q 625 285 625 228 q 546 414 625 376 q 369 438 496 438 l 354 438 l 354 601 l 369 601 q 459 642 424 601 q 494 744 494 683 q 462 840 494 804 q 376 875 429 875 q 256 699 256 875 l 256 263 z "},"":{"ha":917,"x_min":42,"x_max":854,"o":"m 854 769 l 854 0 l 685 0 l 685 100 q 569 10 629 38 q 429 -18 510 -18 q 151 95 261 -18 q 42 382 42 208 q 152 673 42 558 q 433 788 263 788 q 685 667 593 788 l 685 769 l 854 769 m 615 551 q 583 585 615 551 q 453 618 551 618 q 291 551 354 618 q 228 378 228 483 q 291 214 228 276 q 456 151 354 151 q 624 221 565 151 q 679 379 679 286 q 615 551 679 485 m 236 1024 l 315 1146 l 624 961 l 550 851 l 236 1024 z "},"":{"ha":917,"x_min":42,"x_max":854,"o":"m 854 769 l 854 0 l 685 0 l 685 100 q 569 10 629 38 q 429 -18 510 -18 q 151 95 261 -18 q 42 382 42 208 q 152 673 42 558 q 433 788 263 788 q 685 667 593 788 l 685 769 l 854 769 m 615 551 q 583 585 615 551 q 453 618 551 618 q 291 551 354 618 q 228 378 228 483 q 291 214 228 276 q 456 151 354 151 q 624 221 565 151 q 679 379 679 286 q 615 551 679 485 m 410 851 l 339 960 l 650 1146 l 725 1018 l 410 851 z "},"":{"ha":917,"x_min":42,"x_max":854,"o":"m 854 769 l 854 0 l 685 0 l 685 100 q 569 10 629 38 q 429 -18 510 -18 q 151 95 261 -18 q 42 382 42 208 q 152 673 42 558 q 433 788 263 788 q 685 667 593 788 l 685 769 l 854 769 m 615 551 q 583 585 615 551 q 453 618 551 618 q 291 551 354 618 q 228 378 228 483 q 291 214 228 276 q 456 151 354 151 q 624 221 565 151 q 679 379 679 286 q 615 551 679 485 m 203 875 l 407 1067 l 556 1067 l 757 875 l 556 875 l 482 964 l 407 875 l 203 875 z "},"":{"ha":917,"x_min":42,"x_max":854,"o":"m 854 769 l 854 0 l 685 0 l 685 100 q 569 10 629 38 q 429 -18 510 -18 q 151 95 261 -18 q 42 382 42 208 q 152 673 42 558 q 433 788 263 788 q 685 667 593 788 l 685 769 l 854 769 m 615 551 q 583 585 615 551 q 453 618 551 618 q 291 551 354 618 q 228 378 228 483 q 291 214 228 276 q 456 151 354 151 q 624 221 565 151 q 679 379 679 286 q 615 551 679 485 m 325 883 l 250 994 q 318 1045 286 1031 q 393 1060 350 1060 q 476 1040 429 1060 q 542 1025 515 1025 q 635 1072 593 1025 l 710 960 q 579 883 647 883 q 497 901 550 883 q 422 918 450 918 q 381 913 397 918 q 325 883 365 907 z "},"":{"ha":917,"x_min":42,"x_max":854,"o":"m 854 769 l 854 0 l 685 0 l 685 100 q 569 10 629 38 q 429 -18 510 -18 q 151 95 261 -18 q 42 382 42 208 q 152 673 42 558 q 433 788 263 788 q 685 667 593 788 l 685 769 l 854 769 m 615 551 q 583 585 615 551 q 453 618 551 618 q 291 551 354 618 q 228 378 228 483 q 291 214 228 276 q 456 151 354 151 q 624 221 565 151 q 679 379 679 286 q 615 551 679 485 m 242 875 l 242 1060 l 426 1060 l 426 875 l 242 875 m 533 875 l 533 1060 l 718 1060 l 718 875 l 533 875 z "},"":{"ha":917,"x_min":42,"x_max":854,"o":"m 854 769 l 854 0 l 685 0 l 685 100 q 569 10 629 38 q 429 -18 510 -18 q 151 95 261 -18 q 42 382 42 208 q 152 673 42 558 q 433 788 263 788 q 685 667 593 788 l 685 769 l 854 769 m 615 551 q 583 585 615 551 q 453 618 551 618 q 291 551 354 618 q 228 378 228 483 q 291 214 228 276 q 456 151 354 151 q 624 221 565 151 q 679 379 679 286 q 615 551 679 485 m 482 1133 q 582 1091 540 1133 q 624 990 624 1049 q 581 889 624 931 q 481 847 539 847 q 379 889 421 847 q 338 990 338 931 q 380 1092 338 1050 q 482 1133 422 1133 m 516 1026 q 509 1033 516 1026 q 481 1040 501 1040 q 445 1026 460 1040 q 431 990 431 1011 q 445 955 431 969 q 481 940 460 940 q 516 955 501 940 q 531 990 531 969 q 516 1026 531 1011 z "},"":{"ha":1500,"x_min":42,"x_max":1460,"o":"m 1232 228 l 1433 228 q 1297 52 1399 122 q 1078 -18 1196 -18 q 843 83 931 -18 l 843 0 l 674 0 l 674 83 q 575 5 626 28 q 444 -18 524 -18 q 156 96 271 -18 q 42 382 42 210 q 157 671 42 554 q 442 788 272 788 q 674 693 583 788 l 674 769 l 843 769 l 843 693 q 1075 788 936 788 q 1348 675 1236 788 q 1460 400 1460 563 q 1447 304 1460 358 l 853 304 q 934 192 876 232 q 1069 151 992 151 q 1232 228 1168 151 m 605 551 q 573 584 605 551 q 449 618 542 618 q 292 551 356 618 q 228 389 228 485 q 291 219 228 286 q 451 151 354 151 q 606 218 544 151 q 668 383 668 285 q 605 551 668 483 m 843 468 l 1265 468 q 1057 618 1225 618 q 843 468 896 618 z "},"":{"ha":889,"x_min":42,"x_max":835,"o":"m 443 -18 l 417 -81 q 460 -71 442 -71 q 547 -110 513 -71 q 582 -210 582 -150 q 546 -310 582 -272 q 450 -349 510 -349 q 358 -315 397 -349 q 313 -231 319 -282 l 396 -231 q 449 -272 413 -272 q 487 -256 472 -272 q 501 -212 501 -239 q 486 -169 501 -186 q 449 -151 471 -151 q 396 -185 421 -151 l 324 -149 l 382 -12 q 138 126 233 14 q 42 385 42 238 q 159 671 42 554 q 447 788 276 788 q 731 679 614 788 q 835 513 800 615 l 626 513 q 447 618 571 618 q 290 553 351 618 q 228 386 228 488 q 292 218 228 285 q 451 151 356 151 q 626 253 561 151 l 835 253 q 686 51 790 124 q 443 -18 582 -21 z "},"":{"ha":889,"x_min":42,"x_max":844,"o":"m 838 303 l 242 303 q 315 192 258 233 q 454 151 372 151 q 549 169 511 151 q 624 228 588 186 l 825 228 q 764 121 808 176 q 458 -18 643 -18 q 162 97 282 -18 q 42 382 42 213 q 160 669 42 551 q 447 788 278 788 q 732 670 619 788 q 844 374 844 553 q 838 303 844 336 m 236 465 l 663 465 q 590 578 644 539 q 450 618 535 618 q 236 465 282 618 m 199 1024 l 278 1146 l 586 961 l 513 851 l 199 1024 z "},"":{"ha":889,"x_min":42,"x_max":844,"o":"m 838 303 l 242 303 q 315 192 258 233 q 454 151 372 151 q 549 169 511 151 q 624 228 588 186 l 825 228 q 764 121 808 176 q 458 -18 643 -18 q 162 97 282 -18 q 42 382 42 213 q 160 669 42 551 q 447 788 278 788 q 732 670 619 788 q 844 374 844 553 q 838 303 844 336 m 236 465 l 663 465 q 590 578 644 539 q 450 618 535 618 q 236 465 282 618 m 386 851 l 315 960 l 626 1146 l 701 1018 l 386 851 z "},"":{"ha":889,"x_min":42,"x_max":844,"o":"m 838 303 l 242 303 q 315 192 258 233 q 454 151 372 151 q 549 169 511 151 q 624 228 588 186 l 825 228 q 764 121 808 176 q 458 -18 643 -18 q 162 97 282 -18 q 42 382 42 213 q 160 669 42 551 q 447 788 278 788 q 732 670 619 788 q 844 374 844 553 q 838 303 844 336 m 236 465 l 663 465 q 590 578 644 539 q 450 618 535 618 q 236 465 282 618 m 175 875 l 379 1067 l 528 1067 l 729 875 l 528 875 l 454 964 l 379 875 l 175 875 z "},"":{"ha":889,"x_min":42,"x_max":844,"o":"m 838 303 l 242 303 q 315 192 258 233 q 454 151 372 151 q 549 169 511 151 q 624 228 588 186 l 825 228 q 764 121 808 176 q 458 -18 643 -18 q 162 97 282 -18 q 42 382 42 213 q 160 669 42 551 q 447 788 278 788 q 732 670 619 788 q 844 374 844 553 q 838 303 844 336 m 236 465 l 663 465 q 590 578 644 539 q 450 618 535 618 q 236 465 282 618 m 215 875 l 215 1060 l 400 1060 l 400 875 l 215 875 m 507 875 l 507 1060 l 692 1060 l 692 875 l 507 875 z "},"":{"ha":333,"x_min":-22,"x_max":365,"o":"m 75 0 l 75 769 l 260 769 l 260 0 l 75 0 m -22 1024 l 57 1146 l 365 961 l 292 851 l -22 1024 z "},"":{"ha":333,"x_min":-22,"x_max":364,"o":"m 75 0 l 75 769 l 260 769 l 260 0 l 75 0 m 49 851 l -22 960 l 289 1146 l 364 1018 l 49 851 z "},"":{"ha":333,"x_min":-106,"x_max":449,"o":"m 75 0 l 75 769 l 260 769 l 260 0 l 75 0 m -106 875 l 99 1067 l 247 1067 l 449 875 l 247 875 l 174 964 l 99 875 l -106 875 z "},"":{"ha":333,"x_min":-78,"x_max":399,"o":"m 75 0 l 75 769 l 260 769 l 260 0 l 75 0 m -78 875 l -78 1060 l 107 1060 l 107 875 l -78 875 m 214 875 l 214 1060 l 399 1060 l 399 875 l 214 875 z "},"":{"ha":889,"x_min":42,"x_max":860,"o":"m 235 1001 l 378 1050 q 391 1041 383 1046 q 400 1035 399 1036 l 442 1003 q 468 985 443 1003 l 589 1040 l 646 972 l 538 924 q 717 747 658 819 q 860 394 860 569 q 742 101 860 221 q 451 -18 624 -18 q 162 101 282 -18 q 42 386 42 219 q 95 583 42 490 q 238 725 149 676 q 414 772 325 772 q 507 760 450 772 l 468 799 q 400 863 429 838 l 279 807 l 224 871 l 332 922 q 235 1001 272 972 m 450 618 q 294 550 360 618 q 228 388 228 482 q 293 220 228 289 q 451 151 358 151 q 608 219 543 151 q 674 385 674 288 q 608 549 674 481 q 450 618 543 618 z "},"":{"ha":833,"x_min":75,"x_max":758,"o":"m 75 0 l 75 769 l 246 769 l 246 696 q 463 788 342 788 q 703 676 626 788 q 746 574 733 632 q 758 413 758 515 l 758 0 l 574 0 l 574 376 q 538 569 574 521 q 426 618 500 618 q 290 547 335 618 q 260 363 260 499 l 260 0 l 75 0 m 249 883 l 174 994 q 242 1045 210 1031 q 317 1060 274 1060 q 400 1040 353 1060 q 465 1025 439 1025 q 558 1072 517 1025 l 633 960 q 503 883 571 883 q 421 901 474 883 q 346 918 374 918 q 305 913 321 918 q 249 883 289 907 z "},"":{"ha":889,"x_min":42,"x_max":860,"o":"m 449 788 q 741 669 622 788 q 860 379 860 551 q 739 99 860 217 q 450 -18 618 -18 q 161 100 281 -18 q 42 385 42 218 q 161 669 42 550 q 449 788 281 788 m 450 618 q 294 550 360 618 q 228 388 228 482 q 293 220 228 289 q 451 151 358 151 q 608 219 543 151 q 674 385 674 288 q 608 549 674 481 q 450 618 543 618 m 211 1024 l 290 1146 l 599 961 l 525 851 l 211 1024 z "},"":{"ha":889,"x_min":42,"x_max":860,"o":"m 449 788 q 741 669 622 788 q 860 379 860 551 q 739 99 860 217 q 450 -18 618 -18 q 161 100 281 -18 q 42 385 42 218 q 161 669 42 550 q 449 788 281 788 m 450 618 q 294 550 360 618 q 228 388 228 482 q 293 220 228 289 q 451 151 358 151 q 608 219 543 151 q 674 385 674 288 q 608 549 674 481 q 450 618 543 618 m 375 851 l 304 960 l 615 1146 l 690 1018 l 375 851 z "},"":{"ha":889,"x_min":42,"x_max":860,"o":"m 449 788 q 741 669 622 788 q 860 379 860 551 q 739 99 860 217 q 450 -18 618 -18 q 161 100 281 -18 q 42 385 42 218 q 161 669 42 550 q 449 788 281 788 m 450 618 q 294 550 360 618 q 228 388 228 482 q 293 220 228 289 q 451 151 358 151 q 608 219 543 151 q 674 385 674 288 q 608 549 674 481 q 450 618 543 618 m 174 875 l 378 1067 l 526 1067 l 728 875 l 526 875 l 453 964 l 378 875 l 174 875 z "},"":{"ha":889,"x_min":42,"x_max":860,"o":"m 449 788 q 741 669 622 788 q 860 379 860 551 q 739 99 860 217 q 450 -18 618 -18 q 161 100 281 -18 q 42 385 42 218 q 161 669 42 550 q 449 788 281 788 m 450 618 q 294 550 360 618 q 228 388 228 482 q 293 220 228 289 q 451 151 358 151 q 608 219 543 151 q 674 385 674 288 q 608 549 674 481 q 450 618 543 618 m 300 883 l 225 994 q 293 1045 261 1031 q 368 1060 325 1060 q 451 1040 404 1060 q 517 1025 489 1025 q 610 1072 568 1025 l 685 960 q 554 883 622 883 q 472 901 525 883 q 397 918 425 918 q 356 913 372 918 q 300 883 340 907 z "},"":{"ha":889,"x_min":42,"x_max":860,"o":"m 449 788 q 741 669 622 788 q 860 379 860 551 q 739 99 860 217 q 450 -18 618 -18 q 161 100 281 -18 q 42 385 42 218 q 161 669 42 550 q 449 788 281 788 m 450 618 q 294 550 360 618 q 228 388 228 482 q 293 220 228 289 q 451 151 358 151 q 608 219 543 151 q 674 385 674 288 q 608 549 674 481 q 450 618 543 618 m 213 875 l 213 1060 l 397 1060 l 397 875 l 213 875 m 504 875 l 504 1060 l 689 1060 l 689 875 l 504 875 z "},"":{"ha":833,"x_min":71,"x_max":771,"o":"m 514 747 l 326 747 l 326 929 l 514 929 l 514 747 m 514 101 l 326 101 l 326 283 l 514 283 l 514 101 m 771 597 l 771 433 l 71 433 l 71 597 l 771 597 z "},"":{"ha":917,"x_min":42,"x_max":861,"o":"m 82 -14 l 161 103 q 42 385 42 215 q 163 669 42 551 q 453 788 283 788 q 604 758 531 788 l 676 865 l 796 785 l 726 683 q 861 385 861 560 q 742 100 861 218 q 453 -18 622 -18 q 278 21 361 -18 l 200 -93 l 82 -14 m 265 257 l 504 611 q 451 618 478 618 q 294 550 360 618 q 228 386 228 482 q 265 257 228 317 m 625 532 l 376 165 q 451 151 414 151 q 610 219 544 151 q 675 383 675 288 q 625 532 675 465 z "},"":{"ha":833,"x_min":75,"x_max":760,"o":"m 760 769 l 760 0 l 589 0 l 589 74 q 488 2 538 22 q 368 -18 438 -18 q 133 96 213 -18 q 88 202 101 144 q 75 357 75 260 l 75 769 l 260 769 l 260 393 q 297 200 260 247 q 406 151 333 151 q 546 222 504 151 q 575 407 575 267 l 575 769 l 760 769 m 168 1024 l 247 1146 l 556 961 l 482 851 l 168 1024 z "},"":{"ha":833,"x_min":75,"x_max":760,"o":"m 760 769 l 760 0 l 589 0 l 589 74 q 488 2 538 22 q 368 -18 438 -18 q 133 96 213 -18 q 88 202 101 144 q 75 357 75 260 l 75 769 l 260 769 l 260 393 q 297 200 260 247 q 406 151 333 151 q 546 222 504 151 q 575 407 575 267 l 575 769 l 760 769 m 351 851 l 281 960 l 592 1146 l 667 1018 l 351 851 z "},"":{"ha":833,"x_min":75,"x_max":760,"o":"m 760 769 l 760 0 l 589 0 l 589 74 q 488 2 538 22 q 368 -18 438 -18 q 133 96 213 -18 q 88 202 101 144 q 75 357 75 260 l 75 769 l 260 769 l 260 393 q 297 200 260 247 q 406 151 333 151 q 546 222 504 151 q 575 407 575 267 l 575 769 l 760 769 m 140 875 l 344 1067 l 493 1067 l 694 875 l 493 875 l 419 964 l 344 875 l 140 875 z "},"":{"ha":833,"x_min":75,"x_max":760,"o":"m 760 769 l 760 0 l 589 0 l 589 74 q 488 2 538 22 q 368 -18 438 -18 q 133 96 213 -18 q 88 202 101 144 q 75 357 75 260 l 75 769 l 260 769 l 260 393 q 297 200 260 247 q 406 151 333 151 q 546 222 504 151 q 575 407 575 267 l 575 769 l 760 769 m 179 875 l 179 1060 l 364 1060 l 364 875 l 179 875 m 471 875 l 471 1060 l 656 1060 l 656 875 l 471 875 z "},"":{"ha":806,"x_min":8,"x_max":789,"o":"m 146 -257 l 290 72 l 8 769 l 219 769 l 390 271 l 576 769 l 789 769 l 344 -257 l 146 -257 m 285 851 l 214 960 l 525 1146 l 600 1018 l 285 851 z "},"":{"ha":917,"x_min":75,"x_max":881,"o":"m 75 1026 l 260 1026 l 260 688 q 499 788 351 788 q 773 674 665 788 q 881 385 881 560 q 773 95 881 208 q 499 -18 665 -18 q 260 82 351 -18 l 260 -257 l 75 -257 l 75 1026 m 474 618 q 313 552 378 618 q 249 388 249 486 q 313 219 249 286 q 474 151 376 151 q 631 219 567 151 q 694 385 694 286 q 631 551 694 483 q 474 618 567 618 z "},"":{"ha":806,"x_min":8,"x_max":789,"o":"m 146 -257 l 290 72 l 8 769 l 219 769 l 390 271 l 576 769 l 789 769 l 344 -257 l 146 -257 m 161 875 l 161 1060 l 346 1060 l 346 875 l 161 875 m 453 875 l 453 1060 l 638 1060 l 638 875 l 453 875 z "},"":{"ha":1028,"x_min":10,"x_max":1018,"o":"m 10 0 l 438 1026 l 588 1026 l 1018 0 l 808 0 l 699 265 l 333 265 l 219 0 l 10 0 m 403 447 l 622 447 l 513 758 l 403 447 m 325 1143 l 325 1282 l 710 1282 l 710 1143 l 325 1143 z "},"":{"ha":917,"x_min":42,"x_max":854,"o":"m 854 769 l 854 0 l 685 0 l 685 100 q 569 10 629 38 q 429 -18 510 -18 q 151 95 261 -18 q 42 382 42 208 q 152 673 42 558 q 433 788 263 788 q 685 667 593 788 l 685 769 l 854 769 m 615 551 q 583 585 615 551 q 453 618 551 618 q 291 551 354 618 q 228 378 228 483 q 291 214 228 276 q 456 151 354 151 q 624 221 565 151 q 679 379 679 286 q 615 551 679 485 m 269 900 l 269 1039 l 654 1039 l 654 900 l 269 900 z "},"":{"ha":1028,"x_min":10,"x_max":1018,"o":"m 10 0 l 438 1026 l 588 1026 l 1018 0 l 808 0 l 699 265 l 333 265 l 219 0 l 10 0 m 403 447 l 622 447 l 513 758 l 403 447 m 283 1311 l 419 1311 q 514 1251 444 1251 q 600 1311 589 1251 l 742 1311 q 676 1172 739 1225 q 514 1118 613 1118 q 350 1169 411 1118 q 283 1311 289 1219 z "},"":{"ha":917,"x_min":42,"x_max":854,"o":"m 854 769 l 854 0 l 685 0 l 685 100 q 569 10 629 38 q 429 -18 510 -18 q 151 95 261 -18 q 42 382 42 208 q 152 673 42 558 q 433 788 263 788 q 685 667 593 788 l 685 769 l 854 769 m 615 551 q 583 585 615 551 q 453 618 551 618 q 291 551 354 618 q 228 378 228 483 q 291 214 228 276 q 456 151 354 151 q 624 221 565 151 q 679 379 679 286 q 615 551 679 485 m 228 1068 l 364 1068 q 458 1008 389 1008 q 544 1068 533 1008 l 686 1068 q 620 928 683 982 q 458 875 557 875 q 294 926 356 875 q 228 1068 233 976 z "},"":{"ha":1028,"x_min":10,"x_max":1054,"o":"m 697 265 l 333 265 l 219 0 l 10 0 l 438 1026 l 588 1026 l 1018 0 q 947 -61 965 -37 q 928 -112 928 -85 q 947 -154 928 -137 q 997 -171 967 -171 q 1054 -157 1019 -171 l 1054 -264 q 963 -283 1007 -283 q 846 -245 890 -283 q 801 -146 801 -207 q 921 0 801 -57 l 807 0 l 697 265 m 403 447 l 622 447 l 513 758 l 403 447 z "},"":{"ha":917,"x_min":42,"x_max":890,"o":"m 854 769 l 854 0 q 783 -62 801 -39 q 764 -112 764 -85 q 783 -154 764 -137 q 833 -171 803 -171 q 890 -157 856 -171 l 890 -264 q 799 -283 843 -283 q 682 -245 726 -283 q 638 -146 638 -207 q 757 0 638 -56 l 685 0 l 685 100 q 569 10 629 38 q 429 -18 510 -18 q 151 95 261 -18 q 42 382 42 208 q 152 673 42 558 q 433 788 263 788 q 685 667 593 788 l 685 769 l 854 769 m 615 551 q 583 585 615 551 q 453 618 551 618 q 291 551 354 618 q 228 378 228 483 q 291 214 228 276 q 456 151 354 151 q 624 221 565 151 q 679 379 679 286 q 615 551 679 485 z "},"":{"ha":1083,"x_min":42,"x_max":1056,"o":"m 832 286 l 1056 286 q 867 64 996 146 q 582 -18 739 -18 q 199 138 357 -18 q 42 517 42 294 q 197 890 42 735 q 569 1044 351 1044 q 910 926 764 1044 q 993 841 961 883 q 1056 732 1025 799 l 843 732 q 726 831 790 800 q 574 861 663 861 q 318 749 414 861 q 233 515 233 650 q 335 268 233 371 q 578 165 436 165 q 711 193 653 165 q 832 286 769 221 m 479 1094 l 408 1203 l 719 1389 l 794 1261 l 479 1094 z "},"":{"ha":889,"x_min":42,"x_max":835,"o":"m 626 253 l 835 253 q 687 53 786 124 q 453 -18 588 -18 q 162 99 282 -18 q 42 385 42 217 q 159 671 42 554 q 447 788 276 788 q 731 679 614 788 q 835 513 800 615 l 626 513 q 447 618 571 618 q 290 553 351 618 q 228 386 228 488 q 292 218 228 285 q 451 151 356 151 q 626 253 561 151 m 326 851 l 256 960 l 567 1146 l 642 1018 l 326 851 z "},"":{"ha":1083,"x_min":42,"x_max":11344,"o":"m 11275 -1237 l 11240 -1237 l 11240 -1272 l 11171 -1272 l 11171 -1237 l 11240 -1237 l 11240 -1203 l 11275 -1203 l 11275 -1237 m 11171 -1168 l 11136 -1168 l 11136 -1133 l 11171 -1133 l 11171 -1168 m 11275 -1168 l 11240 -1168 l 11240 -1133 l 11275 -1133 l 11275 -1168 m 11136 -1307 l 11275 -1307 l 11275 -1342 l 11136 -1342 l 11136 -1307 m 11136 -1307 l 11101 -1307 l 11101 -1272 l 11136 -1272 l 11136 -1307 m 11275 -1307 l 11275 -1272 l 11310 -1272 l 11310 -1307 l 11275 -1307 m 11101 -1272 l 11067 -1272 l 11067 -1237 l 11067 -1203 l 11067 -1168 l 11067 -1133 l 11067 -1099 l 11101 -1099 l 11101 -1133 l 11101 -1168 l 11101 -1203 l 11101 -1237 l 11101 -1272 m 11310 -1272 l 11310 -1237 l 11310 -1203 l 11310 -1168 l 11310 -1133 l 11310 -1099 l 11344 -1099 l 11344 -1133 l 11344 -1168 l 11344 -1203 l 11344 -1237 l 11344 -1272 l 11310 -1272 m 11171 -1237 l 11136 -1237 l 11136 -1203 l 11171 -1203 l 11171 -1237 m 11101 -1099 l 11101 -1064 l 11136 -1064 l 11136 -1099 l 11101 -1099 m 11310 -1099 l 11275 -1099 l 11275 -1064 l 11310 -1064 l 11310 -1099 m 11136 -1064 l 11136 -1029 l 11275 -1029 l 11275 -1064 l 11136 -1064 m 2506 1046 l 2471 1046 l 2471 1011 l 2401 1011 l 2401 1046 l 2471 1046 l 2471 1081 l 2506 1081 l 2506 1046 m 2401 1115 l 2367 1115 l 2367 1150 l 2401 1150 l 2401 1115 m 2506 1115 l 2471 1115 l 2471 1150 l 2506 1150 l 2506 1115 m 2367 976 l 2506 976 l 2506 942 l 2367 942 l 2367 976 m 2367 976 l 2332 976 l 2332 1011 l 2367 1011 l 2367 976 m 2506 976 l 2506 1011 l 2540 1011 l 2540 976 l 2506 976 m 2332 1011 l 2297 1011 l 2297 1046 l 2297 1081 l 2297 1115 l 2297 1150 l 2297 1185 l 2332 1185 l 2332 1150 l 2332 1115 l 2332 1081 l 2332 1046 l 2332 1011 m 2540 1011 l 2540 1046 l 2540 1081 l 2540 1115 l 2540 1150 l 2540 1185 l 2575 1185 l 2575 1150 l 2575 1115 l 2575 1081 l 2575 1046 l 2575 1011 l 2540 1011 m 2401 1046 l 2367 1046 l 2367 1081 l 2401 1081 l 2401 1046 m 2332 1185 l 2332 1219 l 2367 1219 l 2367 1185 l 2332 1185 m 2540 1185 l 2506 1185 l 2506 1219 l 2540 1219 l 2540 1185 m 2367 1219 l 2367 1254 l 2506 1254 l 2506 1219 l 2367 1219 m 6289 225 l 6261 128 l 6358 153 l 6289 81 l 6385 53 l 6289 22 l 6358 -50 l 6261 -25 l 6289 -122 l 6211 -50 l 6183 -149 l 6158 -50 l 6085 -122 l 6110 -25 l 6013 -50 l 6085 22 l 5983 53 l 6085 81 l 6013 153 l 6110 128 l 6085 225 l 6158 153 l 6183 251 l 6211 153 l 6289 225 m 832 286 l 1056 286 q 867 64 996 146 q 582 -18 739 -18 q 199 138 357 -18 q 42 517 42 294 q 86 727 42 628 q 208 901 131 826 l 79 1071 q 58 1113 64 1092 q 53 1153 51 1135 q 62 1189 54 1172 q 82 1217 69 1206 q 111 1236 94 1229 q 147 1243 128 1243 q 188 1236 169 1243 q 217 1217 207 1229 q 236 1192 228 1206 q 247 1164 244 1178 q 251 1139 250 1150 q 253 1119 253 1128 l 253 1114 l 253 939 q 275 954 264 947 l 275 1114 l 275 1119 q 277 1139 275 1128 q 282 1164 279 1150 q 292 1192 285 1178 q 311 1217 300 1206 q 340 1236 322 1229 q 381 1243 358 1243 q 417 1236 400 1243 q 447 1217 435 1229 q 467 1189 460 1206 q 476 1153 475 1172 q 471 1113 478 1135 q 449 1071 464 1092 l 410 1019 q 569 1044 488 1044 q 910 926 764 1044 q 993 841 961 883 q 1056 732 1025 799 l 843 732 q 726 831 790 800 q 574 861 663 861 q 318 749 414 861 q 233 515 233 650 q 335 268 233 371 q 578 165 436 165 q 711 193 653 165 q 832 286 769 221 m 292 1128 l 496 1319 l 644 1319 l 846 1128 l 644 1128 l 571 1217 l 496 1128 l 292 1128 z "},"":{"ha":889,"x_min":42,"x_max":6942,"o":"m 4378 -156 l 4339 -156 l 4167 256 l 4206 256 l 4378 -156 m 1450 917 l 1411 917 l 1239 1328 l 1278 1328 l 1450 917 m 6844 1428 l 6817 1331 l 6914 1356 l 6844 1283 l 6942 1256 l 6844 1225 l 6914 1153 l 6817 1178 l 6844 1081 l 6767 1153 l 6739 1054 l 6714 1153 l 6642 1081 l 6667 1178 l 6568 1153 l 6642 1225 l 6540 1256 l 6642 1283 l 6568 1356 l 6667 1331 l 6642 1428 l 6714 1356 l 6739 1456 l 6767 1356 l 6844 1428 m 539 554 l 511 457 l 608 482 l 539 410 l 636 382 l 539 351 l 608 279 l 511 304 l 539 207 l 461 279 l 433 181 l 408 279 l 336 207 l 361 304 l 263 279 l 336 351 l 235 382 l 336 410 l 263 482 l 361 457 l 336 554 l 408 482 l 433 582 l 461 482 l 539 554 m 936 -24 l 936 -43 l 961 -43 l 961 -24 l 936 -24 m 914 56 l 924 33 l 944 43 l 951 10 l 989 10 l 1004 -40 l 957 -117 l 1006 -178 l 1053 -164 l 1058 -172 l 1040 -179 l 1040 -185 l 1075 -181 l 1076 -190 l 1040 -194 l 1040 -199 l 1067 -204 l 1061 -212 l 1035 -207 l 985 -215 l 933 -168 l 900 -207 l 936 -244 l 1019 -242 l 1019 -257 l 975 -256 l 969 -261 l 1032 -269 l 1028 -282 l 958 -272 l 957 -275 l 996 -289 l 989 -300 l 919 -282 l 865 -289 l 657 -289 l 603 -243 l 603 -181 l 658 -103 l 792 -67 l 865 -22 l 851 32 l 872 25 l 881 47 l 897 32 l 914 56 m 626 253 l 835 253 q 687 53 786 124 q 453 -18 588 -18 q 162 99 282 -18 q 42 385 42 217 q 159 671 42 554 q 447 788 276 788 q 731 679 614 788 q 835 513 800 615 l 626 513 q 447 618 571 618 q 290 553 351 618 q 228 386 228 488 q 292 218 228 285 q 451 151 356 151 q 626 253 561 151 m 169 872 l 374 1064 l 522 1064 l 724 872 l 522 872 l 449 961 l 374 872 l 169 872 z "},"":{"ha":1083,"x_min":42,"x_max":11344,"o":"m 11275 -1237 l 11240 -1237 l 11240 -1272 l 11171 -1272 l 11171 -1237 l 11240 -1237 l 11240 -1203 l 11275 -1203 l 11275 -1237 m 11171 -1168 l 11136 -1168 l 11136 -1133 l 11171 -1133 l 11171 -1168 m 11275 -1168 l 11240 -1168 l 11240 -1133 l 11275 -1133 l 11275 -1168 m 11136 -1307 l 11275 -1307 l 11275 -1342 l 11136 -1342 l 11136 -1307 m 11136 -1307 l 11101 -1307 l 11101 -1272 l 11136 -1272 l 11136 -1307 m 11275 -1307 l 11275 -1272 l 11310 -1272 l 11310 -1307 l 11275 -1307 m 11101 -1272 l 11067 -1272 l 11067 -1237 l 11067 -1203 l 11067 -1168 l 11067 -1133 l 11067 -1099 l 11101 -1099 l 11101 -1133 l 11101 -1168 l 11101 -1203 l 11101 -1237 l 11101 -1272 m 11310 -1272 l 11310 -1237 l 11310 -1203 l 11310 -1168 l 11310 -1133 l 11310 -1099 l 11344 -1099 l 11344 -1133 l 11344 -1168 l 11344 -1203 l 11344 -1237 l 11344 -1272 l 11310 -1272 m 11171 -1237 l 11136 -1237 l 11136 -1203 l 11171 -1203 l 11171 -1237 m 11101 -1099 l 11101 -1064 l 11136 -1064 l 11136 -1099 l 11101 -1099 m 11310 -1099 l 11275 -1099 l 11275 -1064 l 11310 -1064 l 11310 -1099 m 11136 -1064 l 11136 -1029 l 11275 -1029 l 11275 -1064 l 11136 -1064 m 2506 1046 l 2471 1046 l 2471 1011 l 2401 1011 l 2401 1046 l 2471 1046 l 2471 1081 l 2506 1081 l 2506 1046 m 2401 1115 l 2367 1115 l 2367 1150 l 2401 1150 l 2401 1115 m 2506 1115 l 2471 1115 l 2471 1150 l 2506 1150 l 2506 1115 m 2367 976 l 2506 976 l 2506 942 l 2367 942 l 2367 976 m 2367 976 l 2332 976 l 2332 1011 l 2367 1011 l 2367 976 m 2506 976 l 2506 1011 l 2540 1011 l 2540 976 l 2506 976 m 2332 1011 l 2297 1011 l 2297 1046 l 2297 1081 l 2297 1115 l 2297 1150 l 2297 1185 l 2332 1185 l 2332 1150 l 2332 1115 l 2332 1081 l 2332 1046 l 2332 1011 m 2540 1011 l 2540 1046 l 2540 1081 l 2540 1115 l 2540 1150 l 2540 1185 l 2575 1185 l 2575 1150 l 2575 1115 l 2575 1081 l 2575 1046 l 2575 1011 l 2540 1011 m 2401 1046 l 2367 1046 l 2367 1081 l 2401 1081 l 2401 1046 m 2332 1185 l 2332 1219 l 2367 1219 l 2367 1185 l 2332 1185 m 2540 1185 l 2506 1185 l 2506 1219 l 2540 1219 l 2540 1185 m 2367 1219 l 2367 1254 l 2506 1254 l 2506 1219 l 2367 1219 m 6289 225 l 6261 128 l 6358 153 l 6289 81 l 6385 53 l 6289 22 l 6358 -50 l 6261 -25 l 6289 -122 l 6211 -50 l 6183 -149 l 6158 -50 l 6085 -122 l 6110 -25 l 6013 -50 l 6085 22 l 5983 53 l 6085 81 l 6013 153 l 6110 128 l 6085 225 l 6158 153 l 6183 251 l 6211 153 l 6289 225 m 832 286 l 1056 286 q 867 64 996 146 q 582 -18 739 -18 q 199 138 357 -18 q 42 517 42 294 q 86 727 42 628 q 208 901 131 826 l 79 1071 q 58 1113 64 1092 q 53 1153 51 1135 q 62 1189 54 1172 q 82 1217 69 1206 q 111 1236 94 1229 q 147 1243 128 1243 q 188 1236 169 1243 q 217 1217 207 1229 q 236 1192 228 1206 q 247 1164 244 1178 q 251 1139 250 1150 q 253 1119 253 1128 l 253 1114 l 253 939 q 275 954 264 947 l 275 1114 l 275 1119 q 277 1139 275 1128 q 282 1164 279 1150 q 292 1192 285 1178 q 311 1217 300 1206 q 340 1236 322 1229 q 381 1243 358 1243 q 417 1236 400 1243 q 447 1217 435 1229 q 467 1189 460 1206 q 476 1153 475 1172 q 471 1113 478 1135 q 449 1071 464 1092 l 410 1019 q 569 1044 488 1044 q 910 926 764 1044 q 993 841 961 883 q 1056 732 1025 799 l 843 732 q 726 831 790 800 q 574 861 663 861 q 318 749 414 861 q 233 515 233 650 q 335 268 233 371 q 578 165 436 165 q 711 193 653 165 q 832 286 769 221 m 478 1128 l 478 1313 l 663 1313 l 663 1128 l 478 1128 z "},"":{"ha":889,"x_min":42,"x_max":6942,"o":"m 4378 -156 l 4339 -156 l 4167 256 l 4206 256 l 4378 -156 m 1450 917 l 1411 917 l 1239 1328 l 1278 1328 l 1450 917 m 6844 1428 l 6817 1331 l 6914 1356 l 6844 1283 l 6942 1256 l 6844 1225 l 6914 1153 l 6817 1178 l 6844 1081 l 6767 1153 l 6739 1054 l 6714 1153 l 6642 1081 l 6667 1178 l 6568 1153 l 6642 1225 l 6540 1256 l 6642 1283 l 6568 1356 l 6667 1331 l 6642 1428 l 6714 1356 l 6739 1456 l 6767 1356 l 6844 1428 m 539 554 l 511 457 l 608 482 l 539 410 l 636 382 l 539 351 l 608 279 l 511 304 l 539 207 l 461 279 l 433 181 l 408 279 l 336 207 l 361 304 l 263 279 l 336 351 l 235 382 l 336 410 l 263 482 l 361 457 l 336 554 l 408 482 l 433 582 l 461 482 l 539 554 m 936 -24 l 936 -43 l 961 -43 l 961 -24 l 936 -24 m 914 56 l 924 33 l 944 43 l 951 10 l 989 10 l 1004 -40 l 957 -117 l 1006 -178 l 1053 -164 l 1058 -172 l 1040 -179 l 1040 -185 l 1075 -181 l 1076 -190 l 1040 -194 l 1040 -199 l 1067 -204 l 1061 -212 l 1035 -207 l 985 -215 l 933 -168 l 900 -207 l 936 -244 l 1019 -242 l 1019 -257 l 975 -256 l 969 -261 l 1032 -269 l 1028 -282 l 958 -272 l 957 -275 l 996 -289 l 989 -300 l 919 -282 l 865 -289 l 657 -289 l 603 -243 l 603 -181 l 658 -103 l 792 -67 l 865 -22 l 851 32 l 872 25 l 881 47 l 897 32 l 914 56 m 626 253 l 835 253 q 687 53 786 124 q 453 -18 588 -18 q 162 99 282 -18 q 42 385 42 217 q 159 671 42 554 q 447 788 276 788 q 731 679 614 788 q 835 513 800 615 l 626 513 q 447 618 571 618 q 290 553 351 618 q 228 386 228 488 q 292 218 228 285 q 451 151 356 151 q 626 253 561 151 m 356 872 l 356 1057 l 540 1057 l 540 872 l 356 872 z "},"":{"ha":1083,"x_min":42,"x_max":1056,"o":"m 832 286 l 1056 286 q 867 64 996 146 q 582 -18 739 -18 q 199 138 357 -18 q 42 517 42 294 q 197 890 42 735 q 569 1044 351 1044 q 910 926 764 1044 q 993 841 961 883 q 1056 732 1025 799 l 843 732 q 726 831 790 800 q 574 861 663 861 q 318 749 414 861 q 233 515 233 650 q 335 268 233 371 q 578 165 436 165 q 711 193 653 165 q 832 286 769 221 m 297 1310 l 501 1310 l 576 1221 l 650 1310 l 851 1310 l 650 1118 l 501 1118 l 297 1310 z "},"":{"ha":889,"x_min":42,"x_max":835,"o":"m 626 253 l 835 253 q 687 53 786 124 q 453 -18 588 -18 q 162 99 282 -18 q 42 385 42 217 q 159 671 42 554 q 447 788 276 788 q 731 679 614 788 q 835 513 800 615 l 626 513 q 447 618 571 618 q 290 553 351 618 q 228 386 228 488 q 292 218 228 285 q 451 151 356 151 q 626 253 561 151 m 172 1067 l 376 1067 l 451 978 l 525 1067 l 726 1067 l 525 875 l 376 875 l 172 1067 z "},"":{"ha":972,"x_min":94,"x_max":917,"o":"m 94 0 l 94 1026 l 329 1026 q 693 953 571 1026 q 858 773 800 889 q 917 511 917 657 q 850 235 917 356 q 665 57 783 115 q 333 0 551 0 l 94 0 m 285 182 l 326 182 q 576 228 494 182 q 685 342 644 265 q 725 511 725 418 q 683 688 725 610 q 568 803 642 765 q 322 844 486 844 l 285 844 l 285 182 m 158 1310 l 363 1310 l 438 1221 l 511 1310 l 713 1310 l 511 1118 l 363 1118 l 158 1310 z "},"":{"ha":1047,"x_min":42,"x_max":1103,"o":"m 851 1026 l 851 0 l 682 0 l 682 100 q 428 -18 578 -18 q 153 99 264 -18 q 42 386 42 215 q 153 678 42 558 q 426 797 265 797 q 667 701 579 797 l 667 1026 l 851 1026 m 453 628 q 293 560 358 628 q 228 394 228 493 q 294 222 228 292 q 457 151 360 151 q 616 220 551 151 q 681 389 681 289 q 615 559 681 490 q 453 628 550 628 m 878 760 l 958 1026 l 1103 1026 l 1022 760 l 878 760 z "},"":{"ha":1031,"x_min":19,"x_max":975,"o":"m 153 0 l 153 438 l 19 438 l 19 586 l 153 586 l 153 1026 l 388 1026 q 751 953 629 1026 q 917 773 858 889 q 975 510 975 657 q 908 235 975 354 q 724 57 842 115 q 392 0 610 0 l 153 0 m 343 182 l 385 182 q 635 228 553 182 q 744 342 704 265 q 783 511 783 418 q 741 688 783 610 q 626 803 699 765 q 381 844 544 844 l 343 844 l 343 586 l 557 586 l 557 438 l 343 438 l 343 182 z "},"":{"ha":917,"x_min":42,"x_max":917,"o":"m 851 957 l 917 957 l 917 836 l 851 836 l 851 0 l 682 0 l 682 100 q 428 -18 576 -18 q 153 99 264 -18 q 42 386 42 215 q 153 678 42 560 q 428 797 265 797 q 667 700 581 797 l 667 836 l 492 836 l 492 957 l 667 957 l 667 1026 l 851 1026 l 851 957 m 453 628 q 293 560 358 628 q 228 394 228 493 q 294 222 228 292 q 457 151 360 151 q 616 220 551 151 q 681 389 681 289 q 615 559 681 490 q 453 628 550 628 z "},"":{"ha":722,"x_min":94,"x_max":646,"o":"m 94 0 l 94 1026 l 646 1026 l 646 844 l 285 844 l 285 603 l 631 603 l 631 421 l 285 421 l 285 182 l 646 182 l 646 0 l 94 0 m 172 1143 l 172 1282 l 557 1282 l 557 1143 l 172 1143 z "},"":{"ha":889,"x_min":42,"x_max":844,"o":"m 838 303 l 242 303 q 315 192 258 233 q 454 151 372 151 q 549 169 511 151 q 624 228 588 186 l 825 228 q 764 121 808 176 q 458 -18 643 -18 q 162 97 282 -18 q 42 382 42 213 q 160 669 42 551 q 447 788 278 788 q 732 670 619 788 q 844 374 844 553 q 838 303 844 336 m 236 465 l 663 465 q 590 578 644 539 q 450 618 535 618 q 236 465 282 618 m 256 900 l 256 1039 l 640 1039 l 640 900 l 256 900 z "},"":{"ha":722,"x_min":94,"x_max":646,"o":"m 94 0 l 94 1026 l 646 1026 l 646 844 l 285 844 l 285 603 l 631 603 l 631 421 l 285 421 l 285 182 l 646 182 l 646 0 l 94 0 m 142 1321 l 278 1321 q 372 1261 303 1261 q 458 1321 447 1261 l 600 1321 q 534 1181 597 1235 q 372 1128 471 1128 q 208 1178 269 1128 q 142 1321 147 1229 z "},"":{"ha":889,"x_min":42,"x_max":844,"o":"m 838 303 l 242 303 q 315 192 258 233 q 454 151 372 151 q 549 169 511 151 q 624 228 588 186 l 825 228 q 764 121 808 176 q 458 -18 643 -18 q 162 97 282 -18 q 42 382 42 213 q 160 669 42 551 q 447 788 278 788 q 732 670 619 788 q 844 374 844 553 q 838 303 844 336 m 236 465 l 663 465 q 590 578 644 539 q 450 618 535 618 q 236 465 282 618 m 218 1065 l 354 1065 q 449 1006 379 1006 q 535 1065 524 1006 l 676 1065 q 610 926 674 979 q 449 872 547 872 q 285 923 346 872 q 218 1065 224 974 z "},"":{"ha":722,"x_min":94,"x_max":646,"o":"m 94 0 l 94 1026 l 646 1026 l 646 844 l 285 844 l 285 603 l 631 603 l 631 421 l 285 421 l 285 182 l 646 182 l 646 0 l 94 0 m 292 1118 l 292 1303 l 476 1303 l 476 1118 l 292 1118 z "},"":{"ha":889,"x_min":42,"x_max":844,"o":"m 838 303 l 242 303 q 315 192 258 233 q 454 151 372 151 q 549 169 511 151 q 624 228 588 186 l 825 228 q 764 121 808 176 q 458 -18 643 -18 q 162 97 282 -18 q 42 382 42 213 q 160 669 42 551 q 447 788 278 788 q 732 670 619 788 q 844 374 844 553 q 838 303 844 336 m 236 465 l 663 465 q 590 578 644 539 q 450 618 535 618 q 236 465 282 618 m 353 875 l 353 1060 l 538 1060 l 538 875 l 353 875 z "},"":{"ha":722,"x_min":94,"x_max":682,"o":"m 646 182 l 646 0 q 574 -62 593 -39 q 556 -112 556 -85 q 575 -154 556 -137 q 625 -171 594 -171 q 682 -157 647 -171 l 682 -264 q 590 -283 635 -283 q 474 -245 518 -283 q 429 -146 429 -207 q 549 0 429 -56 l 94 0 l 94 1026 l 646 1026 l 646 844 l 285 844 l 285 603 l 631 603 l 631 421 l 285 421 l 285 182 l 646 182 z "},"":{"ha":889,"x_min":42,"x_max":844,"o":"m 836 303 l 240 303 q 315 192 257 233 q 454 151 372 151 q 549 169 511 151 q 624 228 588 186 l 825 228 q 643 -4 797 140 q 579 -70 592 -53 q 567 -111 567 -87 q 586 -154 567 -137 q 636 -171 606 -171 q 693 -157 658 -171 l 693 -264 q 601 -283 646 -283 q 485 -245 529 -283 q 440 -146 440 -207 q 536 -11 440 -67 q 458 -18 499 -18 q 162 97 282 -18 q 42 382 42 213 q 160 669 42 551 q 447 788 278 788 q 732 670 619 788 q 844 374 844 553 q 836 303 844 335 m 235 465 l 663 465 q 590 578 644 539 q 450 618 535 618 q 235 465 282 618 z "},"":{"ha":722,"x_min":89,"x_max":646,"o":"m 94 0 l 94 1026 l 646 1026 l 646 844 l 285 844 l 285 603 l 631 603 l 631 421 l 285 421 l 285 182 l 646 182 l 646 0 l 94 0 m 89 1310 l 293 1310 l 368 1221 l 442 1310 l 643 1310 l 442 1118 l 293 1118 l 89 1310 z "},"":{"ha":889,"x_min":42,"x_max":844,"o":"m 838 303 l 242 303 q 315 192 258 233 q 454 151 372 151 q 549 169 511 151 q 624 228 588 186 l 825 228 q 764 121 808 176 q 458 -18 643 -18 q 162 97 282 -18 q 42 382 42 213 q 160 669 42 551 q 447 788 278 788 q 732 670 619 788 q 844 374 844 553 q 838 303 844 336 m 236 465 l 663 465 q 590 578 644 539 q 450 618 535 618 q 236 465 282 618 m 172 1067 l 376 1067 l 451 978 l 525 1067 l 726 1067 l 525 875 l 376 875 l 172 1067 z "},"":{"ha":1167,"x_min":42,"x_max":1136,"o":"m 465 346 l 465 524 l 1136 524 l 1136 499 q 989 140 1136 294 q 600 -18 835 -18 q 203 136 364 -18 q 42 515 42 290 q 199 890 42 736 q 582 1044 357 1044 q 892 954 750 1044 q 1083 725 1033 864 l 860 725 q 578 861 763 861 q 329 760 422 861 q 260 647 286 714 q 233 513 233 579 q 335 265 233 365 q 589 165 438 165 q 769 213 690 165 q 890 346 849 260 l 465 346 m 306 1128 l 510 1319 l 658 1319 l 860 1128 l 658 1128 l 585 1217 l 510 1128 l 306 1128 z "},"":{"ha":917,"x_min":42,"x_max":849,"o":"m 672 769 l 849 769 l 849 146 q 771 -167 849 -65 q 450 -307 660 -307 q 205 -242 308 -307 q 54 -62 101 -178 l 264 -62 q 348 -126 304 -107 q 457 -144 392 -144 q 672 101 663 -144 q 559 10 618 38 q 419 -18 500 -18 q 148 97 254 -18 q 42 390 42 213 q 149 674 42 561 q 421 788 257 788 q 672 672 588 788 l 672 769 m 442 618 q 286 553 344 618 q 228 382 228 489 q 287 214 228 276 q 444 151 346 151 q 603 215 543 151 q 664 382 664 278 q 602 553 664 488 q 442 618 540 618 m 144 872 l 349 1064 l 497 1064 l 699 872 l 497 872 l 424 961 l 349 872 l 144 872 z "},"":{"ha":1167,"x_min":42,"x_max":1136,"o":"m 465 346 l 465 524 l 1136 524 l 1136 499 q 989 140 1136 294 q 600 -18 835 -18 q 203 136 364 -18 q 42 515 42 290 q 199 890 42 736 q 582 1044 357 1044 q 892 954 750 1044 q 1083 725 1033 864 l 860 725 q 578 861 763 861 q 329 760 422 861 q 260 647 286 714 q 233 513 233 579 q 335 265 233 365 q 589 165 438 165 q 769 213 690 165 q 890 346 849 260 l 465 346 m 353 1311 l 489 1311 q 583 1251 514 1251 q 669 1311 658 1251 l 811 1311 q 745 1172 808 1225 q 583 1118 682 1118 q 419 1169 481 1118 q 353 1311 358 1219 z "},"":{"ha":917,"x_min":42,"x_max":849,"o":"m 672 769 l 849 769 l 849 146 q 771 -167 849 -65 q 450 -307 660 -307 q 205 -242 308 -307 q 54 -62 101 -178 l 264 -62 q 348 -126 304 -107 q 457 -144 392 -144 q 672 101 663 -144 q 559 10 618 38 q 419 -18 500 -18 q 148 97 254 -18 q 42 390 42 213 q 149 674 42 561 q 421 788 257 788 q 672 672 588 788 l 672 769 m 442 618 q 286 553 344 618 q 228 382 228 489 q 287 214 228 276 q 444 151 346 151 q 603 215 543 151 q 664 382 664 278 q 602 553 664 488 q 442 618 540 618 m 228 1068 l 364 1068 q 458 1008 389 1008 q 544 1068 533 1008 l 686 1068 q 620 928 683 982 q 458 875 557 875 q 294 926 356 875 q 228 1068 233 976 z "},"":{"ha":1167,"x_min":42,"x_max":1136,"o":"m 465 346 l 465 524 l 1136 524 l 1136 499 q 989 140 1136 294 q 600 -18 835 -18 q 203 136 364 -18 q 42 515 42 290 q 199 890 42 736 q 582 1044 357 1044 q 892 954 750 1044 q 1083 725 1033 864 l 860 725 q 578 861 763 861 q 329 760 422 861 q 260 647 286 714 q 233 513 233 579 q 335 265 233 365 q 589 165 438 165 q 769 213 690 165 q 890 346 849 260 l 465 346 m 489 1128 l 489 1313 l 674 1313 l 674 1128 l 489 1128 z "},"":{"ha":917,"x_min":42,"x_max":849,"o":"m 672 769 l 849 769 l 849 146 q 771 -167 849 -65 q 450 -307 660 -307 q 205 -242 308 -307 q 54 -62 101 -178 l 264 -62 q 348 -126 304 -107 q 457 -144 392 -144 q 672 101 663 -144 q 559 10 618 38 q 419 -18 500 -18 q 148 97 254 -18 q 42 390 42 213 q 149 674 42 561 q 421 788 257 788 q 672 672 588 788 l 672 769 m 442 618 q 286 553 344 618 q 228 382 228 489 q 287 214 228 276 q 444 151 346 151 q 603 215 543 151 q 664 382 664 278 q 602 553 664 488 q 442 618 540 618 m 328 872 l 328 1057 l 513 1057 l 513 872 l 328 872 z "},"":{"ha":1167,"x_min":42,"x_max":1136,"o":"m 465 346 l 465 524 l 1136 524 l 1136 499 q 989 140 1136 294 q 600 -18 835 -18 q 203 136 364 -18 q 42 515 42 290 q 199 890 42 736 q 582 1044 357 1044 q 892 954 750 1044 q 1083 725 1033 864 l 860 725 q 578 861 763 861 q 329 760 422 861 q 260 647 286 714 q 233 513 233 579 q 335 265 233 365 q 589 165 438 165 q 769 213 690 165 q 890 346 849 260 l 465 346 m 439 -340 l 519 -74 l 664 -74 l 583 -340 l 439 -340 z "},"":{"ha":917,"x_min":42,"x_max":849,"o":"m 672 769 l 849 769 l 849 146 q 771 -167 849 -65 q 450 -307 660 -307 q 205 -242 308 -307 q 54 -62 101 -178 l 264 -62 q 348 -126 304 -107 q 457 -144 392 -144 q 672 101 663 -144 q 559 10 618 38 q 419 -18 500 -18 q 148 97 254 -18 q 42 390 42 213 q 149 674 42 561 q 421 788 257 788 q 672 672 588 788 l 672 769 m 442 618 q 286 553 344 618 q 228 382 228 489 q 287 214 228 276 q 444 151 346 151 q 603 215 543 151 q 664 382 664 278 q 602 553 664 488 q 442 618 540 618 m 378 843 l 458 1110 l 603 1110 l 522 843 l 378 843 z "},"":{"ha":944,"x_min":94,"x_max":842,"o":"m 94 0 l 94 1026 l 285 1026 l 285 613 l 651 613 l 651 1026 l 842 1026 l 842 0 l 651 0 l 651 431 l 285 431 l 285 0 l 94 0 m 192 1128 l 396 1319 l 544 1319 l 746 1128 l 544 1128 l 471 1217 l 396 1128 l 192 1128 z "},"":{"ha":833,"x_min":75,"x_max":757,"o":"m 75 0 l 75 1026 l 260 1026 l 260 717 q 456 789 340 789 q 706 667 626 789 q 757 435 757 589 l 757 0 l 572 0 l 572 393 q 538 566 572 514 q 422 618 503 618 q 286 544 328 618 q 260 390 260 497 l 260 0 l 75 0 m 139 1110 l 343 1301 l 492 1301 l 693 1110 l 492 1110 l 418 1199 l 343 1110 l 139 1110 z "},"":{"ha":944,"x_min":11,"x_max":933,"o":"m 842 763 l 842 0 l 651 0 l 651 431 l 285 431 l 285 0 l 94 0 l 94 763 l 11 763 l 11 901 l 94 901 l 94 1026 l 285 1026 l 285 901 l 651 901 l 651 1026 l 842 1026 l 842 901 l 933 901 l 933 763 l 842 763 m 651 763 l 285 763 l 285 613 l 651 613 l 651 763 z "},"":{"ha":833,"x_min":-22,"x_max":757,"o":"m 260 836 l 260 717 q 456 789 340 789 q 706 667 626 789 q 757 435 757 589 l 757 0 l 572 0 l 572 393 q 538 566 572 514 q 422 618 503 618 q 286 544 328 618 q 260 390 260 497 l 260 0 l 75 0 l 75 836 l -22 836 l -22 975 l 75 975 l 75 1026 l 260 1026 l 260 975 l 363 975 l 363 836 l 260 836 z "},"":{"ha":389,"x_min":-40,"x_max":419,"o":"m 94 0 l 94 1026 l 285 1026 l 285 0 l 94 0 m 35 1128 l -40 1239 q 28 1290 -4 1275 q 103 1304 60 1304 q 186 1285 139 1304 q 251 1269 224 1269 q 344 1317 303 1269 l 419 1204 q 289 1128 357 1128 q 207 1146 260 1128 q 132 1163 160 1163 q 91 1157 107 1163 q 35 1128 75 1151 z "},"":{"ha":333,"x_min":-64,"x_max":396,"o":"m 75 0 l 75 769 l 260 769 l 260 0 l 75 0 m 11 871 l -64 982 q 4 1033 -28 1018 q 79 1047 36 1047 q 163 1028 115 1047 q 228 1013 200 1013 q 321 1060 279 1013 l 396 947 q 265 871 333 871 q 183 889 236 871 q 108 906 136 906 q 67 900 83 906 q 11 871 51 894 z "},"":{"ha":389,"x_min":6,"x_max":390,"o":"m 94 0 l 94 1026 l 285 1026 l 285 0 l 94 0 m 6 1143 l 6 1282 l 390 1282 l 390 1143 l 6 1143 z "},"":{"ha":333,"x_min":-22,"x_max":363,"o":"m 75 0 l 75 769 l 260 769 l 260 0 l 75 0 m -22 900 l -22 1039 l 363 1039 l 363 900 l -22 900 z "},"":{"ha":389,"x_min":-39,"x_max":419,"o":"m 94 0 l 94 1026 l 285 1026 l 285 0 l 94 0 m -39 1321 l 97 1321 q 192 1261 122 1261 q 278 1321 267 1261 l 419 1321 q 353 1181 417 1235 q 192 1128 290 1128 q 28 1178 89 1128 q -39 1321 -33 1229 z "},"":{"ha":333,"x_min":-62,"x_max":396,"o":"m 75 0 l 75 769 l 260 769 l 260 0 l 75 0 m -62 1064 l 74 1064 q 168 1004 99 1004 q 254 1064 243 1004 l 396 1064 q 330 924 393 978 q 168 871 267 871 q 4 922 65 871 q -62 1064 -57 972 z "},"":{"ha":389,"x_min":68,"x_max":321,"o":"m 285 1026 l 285 0 q 213 -62 232 -39 q 194 -112 194 -85 q 214 -154 194 -137 q 264 -171 233 -171 q 321 -157 286 -171 l 321 -264 q 229 -283 274 -283 q 113 -245 157 -283 q 68 -146 68 -207 q 188 0 68 -56 l 94 0 l 94 1026 l 285 1026 z "},"":{"ha":333,"x_min":43,"x_max":296,"o":"m 260 769 l 260 0 q 188 -62 207 -39 q 169 -112 169 -85 q 189 -154 169 -137 q 239 -171 208 -171 q 296 -157 261 -171 l 296 -264 q 204 -283 249 -283 q 88 -245 132 -283 q 43 -146 43 -207 q 163 0 43 -56 l 75 0 l 75 769 l 260 769 m 75 853 l 75 1026 l 260 1026 l 260 853 l 75 853 z "},"":{"ha":389,"x_min":94,"x_max":288,"o":"m 94 0 l 94 1026 l 285 1026 l 285 0 l 94 0 m 103 1118 l 103 1303 l 288 1303 l 288 1118 l 103 1118 z "},"":{"ha":333,"x_min":75,"x_max":260,"o":"m 75 0 l 75 769 l 260 769 l 260 0 l 75 0 z "},"":{"ha":1058,"x_min":94,"x_max":954,"o":"m 764 1026 l 954 1026 l 954 294 q 880 66 954 150 q 676 -18 806 -18 q 457 75 542 -18 q 413 146 426 110 q 392 243 399 182 l 582 243 q 672 165 601 165 q 764 300 764 165 l 764 1026 m 94 0 l 94 1026 l 285 1026 l 285 0 l 94 0 z "},"":{"ha":606,"x_min":75,"x_max":532,"o":"m 347 769 l 532 769 l 532 51 q 450 -190 532 -114 q 271 -257 379 -257 l 271 -78 q 335 -47 322 -68 q 347 56 347 -26 l 347 769 m 347 853 l 347 1026 l 532 1026 l 532 853 l 347 853 m 75 0 l 75 769 l 260 769 l 260 0 l 75 0 m 75 853 l 75 1026 l 260 1026 l 260 853 l 75 853 z "},"":{"ha":667,"x_min":13,"x_max":757,"o":"m 203 1165 l 407 1357 l 556 1357 l 757 1165 l 556 1165 l 482 1254 l 407 1165 l 203 1165 m 385 1026 l 575 1026 l 575 294 q 501 66 575 150 q 297 -18 426 -18 q 78 75 163 -18 q 33 146 47 110 q 13 243 19 182 l 203 243 q 293 165 222 165 q 385 300 385 165 l 385 1026 z "},"":{"ha":361,"x_min":-74,"x_max":481,"o":"m 100 769 l 285 769 l 285 51 q 203 -190 285 -114 q 24 -257 132 -257 l 24 -78 q 88 -47 75 -68 q 100 56 100 -26 l 100 769 m -74 875 l 131 1067 l 279 1067 l 481 875 l 279 875 l 206 964 l 131 875 l -74 875 z "},"":{"ha":861,"x_min":94,"x_max":832,"o":"m 94 0 l 94 1026 l 285 1026 l 285 583 l 603 1026 l 832 1026 l 446 522 l 832 0 l 603 0 l 285 451 l 285 0 l 94 0 m 286 -340 l 367 -74 l 511 -74 l 431 -340 l 286 -340 z "},"":{"ha":806,"x_min":75,"x_max":771,"o":"m 75 0 l 75 1026 l 260 1026 l 260 407 l 506 769 l 726 769 l 451 393 l 771 0 l 522 0 l 260 360 l 260 0 l 75 0 m 258 -340 l 339 -74 l 483 -74 l 403 -340 l 258 -340 z "},"":{"ha":774,"x_min":75,"x_max":771,"o":"m 75 0 l 75 769 l 260 769 l 260 407 l 506 769 l 726 769 l 451 393 l 771 0 l 522 0 l 260 360 l 260 0 l 75 0 z "},"":{"ha":611,"x_min":94,"x_max":599,"o":"m 94 0 l 94 1026 l 285 1026 l 285 182 l 599 182 l 599 0 l 94 0 m 188 1094 l 117 1203 l 428 1389 l 503 1261 l 188 1094 z "},"":{"ha":333,"x_min":-22,"x_max":364,"o":"m 75 0 l 75 1026 l 260 1026 l 260 0 l 75 0 m 49 1094 l -22 1203 l 289 1389 l 364 1261 l 49 1094 z "},"":{"ha":611,"x_min":94,"x_max":599,"o":"m 94 0 l 94 1026 l 285 1026 l 285 182 l 599 182 l 599 0 l 94 0 m 161 -340 l 242 -74 l 386 -74 l 306 -340 l 161 -340 z "},"":{"ha":333,"x_min":22,"x_max":260,"o":"m 75 0 l 75 1026 l 260 1026 l 260 0 l 75 0 m 22 -340 l 103 -74 l 247 -74 l 167 -340 l 22 -340 z "},"":{"ha":611,"x_min":94,"x_max":611,"o":"m 94 0 l 94 1026 l 285 1026 l 285 182 l 599 182 l 599 0 l 94 0 m 386 760 l 467 1026 l 611 1026 l 531 760 l 386 760 z "},"":{"ha":458,"x_min":75,"x_max":514,"o":"m 75 0 l 75 1026 l 260 1026 l 260 0 l 75 0 m 289 760 l 369 1026 l 514 1026 l 433 760 l 289 760 z "},"":{"ha":611,"x_min":94,"x_max":599,"o":"m 332 424 l 332 608 l 517 608 l 517 424 l 332 424 m 94 0 l 94 1026 l 285 1026 l 285 182 l 599 182 l 599 0 l 94 0 z "},"":{"ha":722,"x_min":75,"x_max":618,"o":"m 433 417 l 433 601 l 618 601 l 618 417 l 433 417 m 75 0 l 75 1026 l 260 1026 l 260 0 l 75 0 z "},"":{"ha":667,"x_min":19,"x_max":657,"o":"m 153 0 l 153 379 l 19 269 l 19 442 l 153 551 l 153 1026 l 343 1026 l 343 658 l 540 811 l 540 640 l 343 486 l 343 178 l 657 178 l 657 0 l 153 0 z "},"":{"ha":444,"x_min":24,"x_max":433,"o":"m 136 0 l 136 440 l 24 354 l 24 492 l 136 579 l 136 1026 l 321 1026 l 321 669 l 433 757 l 433 619 l 321 532 l 321 0 l 136 0 z "},"":{"ha":1028,"x_min":94,"x_max":926,"o":"m 94 0 l 94 1026 l 311 1026 l 736 279 l 736 1026 l 926 1026 l 926 0 l 714 0 l 285 746 l 285 0 l 94 0 m 396 1094 l 325 1203 l 636 1389 l 711 1261 l 396 1094 z "},"":{"ha":833,"x_min":75,"x_max":758,"o":"m 75 0 l 75 769 l 246 769 l 246 696 q 463 788 342 788 q 703 676 626 788 q 746 574 733 632 q 758 413 758 515 l 758 0 l 574 0 l 574 376 q 538 569 574 521 q 426 618 500 618 q 290 547 335 618 q 260 363 260 499 l 260 0 l 75 0 m 299 851 l 228 960 l 539 1146 l 614 1018 l 299 851 z "},"":{"ha":1028,"x_min":94,"x_max":926,"o":"m 94 0 l 94 1026 l 311 1026 l 736 279 l 736 1026 l 926 1026 l 926 0 l 714 0 l 285 746 l 285 0 l 94 0 m 369 -340 l 450 -74 l 594 -74 l 514 -340 l 369 -340 z "},"":{"ha":833,"x_min":75,"x_max":758,"o":"m 75 0 l 75 769 l 246 769 l 246 696 q 463 788 342 788 q 703 676 626 788 q 746 574 733 632 q 758 413 758 515 l 758 0 l 574 0 l 574 376 q 538 569 574 521 q 426 618 500 618 q 290 547 335 618 q 260 363 260 499 l 260 0 l 75 0 m 272 -340 l 353 -74 l 497 -74 l 417 -340 l 272 -340 z "},"":{"ha":1028,"x_min":94,"x_max":926,"o":"m 94 0 l 94 1026 l 311 1026 l 736 279 l 736 1026 l 926 1026 l 926 0 l 714 0 l 285 746 l 285 0 l 94 0 m 242 1310 l 446 1310 l 521 1221 l 594 1310 l 796 1310 l 594 1118 l 446 1118 l 242 1310 z "},"":{"ha":833,"x_min":75,"x_max":758,"o":"m 75 0 l 75 769 l 246 769 l 246 696 q 463 788 342 788 q 703 676 626 788 q 746 574 733 632 q 758 413 758 515 l 758 0 l 574 0 l 574 376 q 538 569 574 521 q 426 618 500 618 q 290 547 335 618 q 260 363 260 499 l 260 0 l 75 0 m 144 1067 l 349 1067 l 424 978 l 497 1067 l 699 1067 l 497 875 l 349 875 l 144 1067 z "},"":{"ha":833,"x_min":75,"x_max":758,"o":"m 89 1029 l 89 1207 l 274 1207 l 274 1013 q 185 850 274 896 q 89 828 147 828 l 89 921 q 152 949 133 929 q 171 1004 171 968 q 169 1029 171 1019 l 89 1029 m 75 0 l 75 769 l 246 769 l 246 696 q 463 788 342 788 q 703 676 626 788 q 746 574 733 632 q 758 413 758 515 l 758 0 l 574 0 l 574 376 q 538 569 574 521 q 426 618 500 618 q 290 547 335 618 q 260 363 260 499 l 260 0 l 75 0 z "},"":{"ha":1028,"x_min":94,"x_max":926,"o":"m 714 0 l 285 746 l 285 0 l 94 0 l 94 1026 l 311 1026 l 736 279 l 736 1026 l 926 1026 l 926 76 q 875 -156 926 -78 q 625 -278 800 -271 l 592 -278 l 592 -107 q 675 -81 647 -107 q 714 0 703 -56 z "},"":{"ha":833,"x_min":75,"x_max":758,"o":"m 574 121 l 574 376 q 538 569 574 521 q 426 618 500 618 q 290 547 335 618 q 260 363 260 499 l 260 0 l 75 0 l 75 769 l 246 769 l 246 696 q 463 788 342 788 q 703 676 626 788 q 746 574 733 632 q 758 413 758 515 l 758 79 q 707 -153 758 -75 q 457 -275 632 -268 l 424 -275 l 424 -104 q 539 -52 504 -104 q 574 121 574 0 z "},"":{"ha":1167,"x_min":42,"x_max":1111,"o":"m 583 1044 q 957 889 803 1044 q 1111 514 1111 733 q 958 135 1111 289 q 582 -18 806 -18 q 199 136 356 -18 q 42 513 42 290 q 198 891 42 738 q 583 1044 354 1044 m 581 861 q 333 761 432 861 q 233 513 233 661 q 334 266 233 367 q 581 165 435 165 q 823 264 726 165 q 919 511 919 363 q 822 760 919 658 q 581 861 724 861 m 394 1143 l 394 1282 l 779 1282 l 779 1143 l 394 1143 z "},"":{"ha":889,"x_min":42,"x_max":860,"o":"m 449 788 q 741 669 622 788 q 860 379 860 551 q 739 99 860 217 q 450 -18 618 -18 q 161 100 281 -18 q 42 385 42 218 q 161 669 42 550 q 449 788 281 788 m 450 618 q 294 550 360 618 q 228 388 228 482 q 293 220 228 289 q 451 151 358 151 q 608 219 543 151 q 674 385 674 288 q 608 549 674 481 q 450 618 543 618 m 256 900 l 256 1039 l 640 1039 l 640 900 l 256 900 z "},"":{"ha":1167,"x_min":42,"x_max":1111,"o":"m 583 1044 q 957 889 803 1044 q 1111 514 1111 733 q 958 135 1111 289 q 582 -18 806 -18 q 199 136 356 -18 q 42 513 42 290 q 198 891 42 738 q 583 1044 354 1044 m 581 861 q 333 761 432 861 q 233 513 233 661 q 334 266 233 367 q 581 165 435 165 q 823 264 726 165 q 919 511 919 363 q 822 760 919 658 q 581 861 724 861 m 354 1321 l 490 1321 q 585 1261 515 1261 q 671 1321 660 1261 l 813 1321 q 747 1181 810 1235 q 585 1128 683 1128 q 421 1178 482 1128 q 354 1321 360 1229 z "},"":{"ha":889,"x_min":42,"x_max":860,"o":"m 449 788 q 741 669 622 788 q 860 379 860 551 q 739 99 860 217 q 450 -18 618 -18 q 161 100 281 -18 q 42 385 42 218 q 161 669 42 550 q 449 788 281 788 m 450 618 q 294 550 360 618 q 228 388 228 482 q 293 220 228 289 q 451 151 358 151 q 608 219 543 151 q 674 385 674 288 q 608 549 674 481 q 450 618 543 618 m 219 1065 l 356 1065 q 450 1006 381 1006 q 536 1065 525 1006 l 678 1065 q 612 926 675 979 q 450 872 549 872 q 286 923 347 872 q 219 1065 225 974 z "},"":{"ha":1167,"x_min":42,"x_max":1111,"o":"m 583 1044 q 957 889 803 1044 q 1111 514 1111 733 q 958 135 1111 289 q 582 -18 806 -18 q 199 136 356 -18 q 42 513 42 290 q 198 891 42 738 q 583 1044 354 1044 m 581 861 q 333 761 432 861 q 233 513 233 661 q 334 266 233 367 q 581 165 435 165 q 823 264 726 165 q 919 511 919 363 q 822 760 919 658 q 581 861 724 861 m 200 1190 l 492 1389 l 578 1278 l 269 1094 l 200 1190 m 593 1190 l 886 1389 l 971 1278 l 664 1094 l 593 1190 z "},"":{"ha":889,"x_min":42,"x_max":860,"o":"m 449 788 q 741 669 622 788 q 860 379 860 551 q 739 99 860 217 q 450 -18 618 -18 q 161 100 281 -18 q 42 385 42 218 q 161 669 42 550 q 449 788 281 788 m 450 618 q 294 550 360 618 q 228 388 228 482 q 293 220 228 289 q 451 151 358 151 q 608 219 543 151 q 674 385 674 288 q 608 549 674 481 q 450 618 543 618 m 61 947 l 353 1146 l 439 1035 l 131 851 l 61 947 m 454 947 l 747 1146 l 832 1035 l 525 851 l 454 947 z "},"":{"ha":1472,"x_min":53,"x_max":1394,"o":"m 1394 0 l 899 0 l 899 113 q 581 -18 781 -18 q 204 134 356 -18 q 53 513 53 286 q 201 892 53 740 q 574 1044 350 1044 q 899 913 783 1044 l 899 1026 l 1394 1026 l 1394 844 l 1092 844 l 1092 603 l 1379 603 l 1379 421 l 1092 421 l 1092 182 l 1394 182 l 1394 0 m 576 861 q 338 760 429 861 q 244 507 244 656 q 340 264 244 363 q 578 165 436 165 q 813 263 721 165 q 906 511 906 361 q 812 761 906 661 q 576 861 718 861 z "},"":{"ha":1500,"x_min":42,"x_max":1456,"o":"m 1233 226 l 1431 226 q 1291 49 1390 115 q 1067 -18 1192 -18 q 754 139 864 -18 q 450 -18 646 -18 q 158 97 275 -18 q 42 385 42 213 q 158 670 42 553 q 444 788 275 788 q 676 713 579 788 q 754 633 713 686 q 893 751 821 715 q 1058 788 965 788 q 1292 718 1188 788 q 1456 394 1456 608 q 1449 303 1456 350 l 853 303 q 933 192 876 233 q 1065 151 989 151 q 1159 172 1113 151 q 1233 226 1206 193 m 451 618 q 293 551 358 618 q 228 390 228 485 q 293 219 228 288 q 457 151 358 151 q 613 218 550 151 q 675 383 675 285 q 610 551 675 483 q 451 618 546 618 m 844 465 l 1264 465 q 1056 618 1219 618 q 844 465 897 618 z "},"":{"ha":806,"x_min":94,"x_max":789,"o":"m 94 0 l 94 1026 l 390 1026 q 558 1010 496 1026 q 671 950 621 993 q 779 697 779 858 q 674 454 779 544 q 511 379 615 404 l 789 0 l 554 0 l 285 393 l 285 0 l 94 0 m 285 536 l 378 536 q 538 573 488 536 q 588 692 588 610 q 538 808 588 769 q 369 844 496 844 l 285 844 l 285 536 m 285 1094 l 214 1203 l 525 1389 l 600 1261 l 285 1094 z "},"":{"ha":444,"x_min":33,"x_max":425,"o":"m 75 0 l 75 769 l 244 769 l 244 694 q 316 767 281 747 q 411 788 351 788 l 425 788 l 425 610 q 260 428 260 606 l 260 0 l 75 0 m 104 851 l 33 960 l 344 1146 l 419 1018 l 104 851 z "},"":{"ha":806,"x_min":94,"x_max":789,"o":"m 94 0 l 94 1026 l 390 1026 q 558 1010 496 1026 q 671 950 621 993 q 779 697 779 858 q 674 454 779 544 q 511 379 615 404 l 789 0 l 554 0 l 285 393 l 285 0 l 94 0 m 285 536 l 378 536 q 538 573 488 536 q 588 692 588 610 q 538 808 588 769 q 369 844 496 844 l 285 844 l 285 536 m 258 -340 l 339 -74 l 483 -74 l 403 -340 l 258 -340 z "},"":{"ha":444,"x_min":75,"x_max":425,"o":"m 75 0 l 75 769 l 244 769 l 244 694 q 316 767 281 747 q 411 788 351 788 l 425 788 l 425 610 q 260 428 260 606 l 260 0 l 75 0 m 78 -340 l 158 -74 l 303 -74 l 222 -340 l 78 -340 z "},"":{"ha":806,"x_min":94,"x_max":789,"o":"m 94 0 l 94 1026 l 390 1026 q 558 1010 496 1026 q 671 950 621 993 q 779 697 779 858 q 674 454 779 544 q 511 379 615 404 l 789 0 l 554 0 l 285 393 l 285 0 l 94 0 m 285 536 l 378 536 q 538 573 488 536 q 588 692 588 610 q 538 808 588 769 q 369 844 496 844 l 285 844 l 285 536 m 131 1310 l 335 1310 l 410 1221 l 483 1310 l 685 1310 l 483 1118 l 335 1118 l 131 1310 z "},"":{"ha":444,"x_min":-50,"x_max":504,"o":"m 75 0 l 75 769 l 244 769 l 244 694 q 316 767 281 747 q 411 788 351 788 l 425 788 l 425 610 q 260 428 260 606 l 260 0 l 75 0 m -50 1067 l 154 1067 l 229 978 l 303 1067 l 504 1067 l 303 875 l 154 875 l -50 1067 z "},"":{"ha":722,"x_min":19,"x_max":685,"o":"m 19 293 l 218 293 q 357 165 231 165 q 457 200 418 165 q 496 290 496 235 q 449 394 496 356 q 271 474 414 421 q 113 584 168 513 q 57 753 57 656 q 144 960 57 875 q 356 1044 232 1044 q 596 935 508 1044 q 660 753 654 864 l 463 753 q 431 833 458 806 q 354 861 403 861 q 278 832 307 861 q 249 757 249 803 q 306 664 249 700 q 419 618 321 654 q 593 525 543 572 q 685 311 685 440 q 590 77 685 172 q 357 -18 496 -18 q 203 15 275 -18 q 86 107 132 47 q 19 293 29 181 m 243 1094 l 172 1203 l 483 1389 l 558 1261 l 243 1094 z "},"":{"ha":611,"x_min":26,"x_max":583,"o":"m 26 244 l 213 244 q 251 174 226 196 q 315 151 275 151 q 375 173 351 151 q 399 226 399 194 q 364 286 399 264 q 268 325 342 300 q 103 416 153 364 q 54 553 54 468 q 128 719 54 651 q 310 788 203 788 q 507 703 431 788 q 563 557 558 646 l 382 557 q 310 618 369 618 q 259 599 279 618 q 239 553 239 581 q 276 501 239 518 q 369 469 294 493 q 511 404 472 438 q 583 244 583 347 q 503 58 583 135 q 308 -18 424 -18 q 177 10 239 -18 q 78 89 115 39 q 26 244 38 143 m 188 851 l 117 960 l 428 1146 l 503 1018 l 188 851 z "}}}
